<svg xmlns="http://www.w3.org/2000/svg" width="50" height="50" viewBox="0 0 5.6781543 5.6781628" clip-rule="evenodd" fill-rule="evenodd" image-rendering="optimizeQuality" shape-rendering="geometricPrecision" text-rendering="geometricPrecision"><defs id="defs5935"><style type="text/css" id="style5937"><![CDATA[
    .str0 {stroke:#373435;stroke-width:0.0804779}
    .str1 {stroke:#373435;stroke-width:0.100597;stroke-linecap:round;stroke-linejoin:round}
    .fil1 {fill:none}
    .fil0 {fill:#00AFEF}
   ]]></style></defs><path id="_256778312" class="fil0 str0" d="M1.288.661l.009-.006.011-.008.013-.007.013-.008.014-.007.014-.007.006-.003.006-.003.006-.002.006-.002.011.01.007.007.003.003.002.001h.001v.001l.001-.001.001-.001.001-.002.001-.003.001-.004.003-.011.004-.015h.008l.004.001.004.001.003.001.003.002.003.002.003.003.003.002.003.003.003.002.002.003.002.003.002.004.002.003.001.003.003.007.002.007.002.007.001.007v.021l-.001.006-.008.017-.008.014-.003.005-.003.005-.001.004-.001.004v.004l.001.001h.001l.001.001h.009000000000000001l.006-.001h.007l.009-.002.002-.001.002-.001.002-.002.001-.001.004-.003.003-.004.003-.004.002-.004.002-.004.002-.005.004-.008.003-.007.001-.003.001-.002.001-.001.001-.001h.002l.018-.001.013-.001h.007l.001.001h.001l.001.001.001.001v.005l-.001.004-.001.005-.005.014-.005.02.001-.001v-.001l.001-.001.001-.001h.006l.001-.001.002-.001.002-.002.002-.002.002-.003.002-.003.002-.005.002-.006.01-.003.01-.002.01-.002.01-.002h.028l.004.001h.004l.004.001.004.001.004.002.003.002.003.002.003.002.003.002.002.002.002.003.002.003.001.003.001.003v.011l-.001.005.008-.006.007-.006.006-.004.006-.004.005-.003.005-.002.002-.001h.01l.002.001.001.002.002.001.001.002.001.002.003.005.002.006.002.006.003.008.001-.001.002-.001.001-.001.001-.001.003-.003.001-.003.001-.003.002-.003.001-.004.001-.003.002-.007.002-.008.002-.004.002-.003.002-.004.002-.003h.013000000000000001l.002.002.003.001.002.001.002.002.002.002.002.001.001.003.001.002.003.005.002.005.002.005.001.005.001.005.001.006v.018000000000000002l.018-.013.009-.006h.002l.001.001.001.002.002.004.002.006.004.003.002.004.002.003v.006l-.001.002-.001.003-.002.002-.004.004-.004.004-.003.002-.001.002-.002.002-.001.001v.014l.001.004.001.005.002.004.002.004.002.004.004.008.004.008.002.004.002.005.002.004.001.004.001.011v.011l-.001.01-.003.009-.003.008-.005.008-.005.007-.006.007-.007.006-.007.006-.008.005-.009.005-.009.004-.009.004-.01.004-.011.004-.011.003-.011.003-.01.003-.011.003-.022.006-.021.006-.01.003-.01.003-.01.003-.009.004-.009.003-.008.004-.008.004-.006.005-.005-.003-.005-.002-.005-.001-.006-.001-.006-.001h-.018000000000000002l-.006.001h-.007l-.007.001-.007.001-.014.003-.014.003-.028.007-.026.007-.006.002-.006.001-.006.001-.005.001-.005.001h-.015l-.008-.002-.007-.004-.006-.004-.007-.003-.006-.004-.006-.005-.006-.005-.005-.005-.01-.011-.01-.011-.01-.012-.009-.011-.005-.006-.005-.005-.005-.005-.005-.005-.006-.005-.005-.004-.006-.004-.006-.004-.007-.004-.006-.004-.007-.002-.008-.002-.008-.001-.008-.001-.009-.001-.01.001.003-.017.001-.012.001-.004.001-.003v-.001l.001-.001.001-.001.001-.001.001-.001h.011l.006.001h.007l.009.001h.011l.007-.005.005-.004.005-.005.004-.004.004-.005.003-.005.003-.004.002-.005.001-.004.001-.004v-.012l-.001-.004-.002-.004-.002-.003-.002-.003-.003-.003-.002-.003-.003-.003-.004-.002-.004-.002-.005-.002-.004-.002-.005-.001-.005-.001h-.023l-.006.001-.006.001-.002-.005-.001-.005-.001-.004v-.008l.001-.003.002-.003.002-.003.002-.003.003-.002.003-.002.003-.002.004-.001.003-.002.004-.001.004-.001h.004l.005-.001h.018000000000000002l.009.001.009.001.008.002.008.002.007.002.045-.032-.002-.003-.003-.002-.003-.002-.003-.002-.006-.003-.007-.002-.015-.004-.014-.005-.007-.003-.007-.002-.003-.002-.002-.002-.002-.002-.002-.002-.002-.003-.002-.002-.001-.003-.001-.002v-.013000000000000001zm2.781.471v-.004l-.001-.001.001.004m.617-.048l.021-.028-.077-.004-.004-.024-.004-.024-.049-.041.038-.105-.098-.109-.003-.055.01-.041-.095-.061-.032-.129.015-.025-.012.022.096-.062-.055-.01-.016-.013-.003-.008.003-.003.023-.01.001-.002.002-.001.002-.004-.009-.026.057-.015-.123-.029-.042.053-.016-.05-.028-.005-.004.003-.001.01-.002.035-.001.003-.003.004-.023.005-.002.002-.026.012-.005.002-.001-.006.006-.046-.001-.002-.007-.008-.055.028-.069.02-.076.091-.034.029-.035-.007-.083.077-.03.039-.168.171-.021.035c-.026.043-.128.103-.105.162l-.019.024-.04.077-.033.062-.008.006-.01.014-.001.002.001.009.008.01-.131.085-.036.073c.01-.008.123-.105.125-.047v.013c-.039.046-.075.073-.135.058l-.012-.004c-.104.03-.197.088-.287.146l-.068.043.002.073-.027.031-.009.007-.015.112c.14-.002.025.061-.013.105l.073-.001-.04.078-.013.027.097.085.02.002c.082-.015.162-.082.225-.133l.024-.019.039-.079.026.053h-.001c-.001.079.009.163.061.226l.011.011-.011.036.001.002.001.001.036.026-.002.016.057.064.014.154.067-.013.032-.116c.053.03.118-.019.147-.062.073-.111.043-.099.036-.21-.005-.075.038-.078.1-.113l.048-.042.038-.086-.048-.015-.002-.003v-.001l.032-.034-.001-.004-.007-.005-.037-.009c-.045-.01-.095.014-.08-.084l.007-.092c.023-.031.264-.394.291-.37l-.023-.091.05-.023.04-.011-.019-.043.01-.012.061-.044c.022.028.146.043.142.103-.068-.015-.108.127-.111.173l-.025.003-.001.001-.001.001.011.03-.001.002-.04.024-.076.067-.017.059.001.034c.006.038.02.218.051.233l.045.024.067.034.029.005.321-.168.037-.022c.073-.062.115-.112.159-.198l.01-.077-.013-.023-.098-.052.011-.074zm-1.154 4.063l.028-.084c-.098 0-.191.079-.28.019l-.009-.006c-.08.037-.124.005-.139.084l-.001.008c.056.059.146.09.223.117l.125.05.023.01c.064-.057.008-.117.03-.2zm-.885-.428l.005.069-.02.149.097-.055.003.001.024.019.018-.037.028-.066-.021-.076.032-.026-.024-.127-.006-.007-.094.062-.039.073-.003.022zm.078-.369l.103-.089c.05.056.009.224-.048.262l-.062-.037.008-.136zm-.896-2.448l.041-.066.061-.01c.024.061-.061.076-.102.076zm.305.553l.006-.038v-.003l-.001-.001v-.001l-.054-.007c.006-.037.074-.123.016-.146l-.023-.004-.005-.006-.042-.018c.011-.061.077-.115.121-.154l.045-.055v-.006l-.103-.01-.098.012.165-.142-.004-.005-.042-.005-.117.005-.104.092-.03.033h-.002l-.001-.002-.033-.032-.003-.002-.041.003.032.06.039.027c-.042.02-.138.055-.134.116l.087.01.002.002.001.003v.006l-.018.034-.049.072.069-.015.003.001.005.005.001.003v.003l-.049.056.06.027.083-.014.012.05-.027.041c.029.068.024.092-.033.138l-.038.007-.078-.031-.002.001.014.062-.041.005v.001l.001.001.001.001.044.03c-.012.07-.08.072-.134.092l-.02.029-.01.027.138.004.011.025.069.003-.078.056-.069-.017-.049.055-.003.003-.175.061c.057.056.173-.024.21.002l.004.003.006.014.11-.032.091-.001.041-.009c.001.009.079.12.074.011v-.011l.14.012.093-.049-.002-.004-.035-.017-.043-.021.063-.053.121-.074-.117-.053-.052-.002c.025-.082.095-.166.012-.239l-.031-.023zm-.511.011l.011.064c-.032.176-.247.177-.386.192l-.068-.014-.044-.02-.001-.002v-.001l.033-.046v-.001l-.001-.002.02-.043.018-.009v-.002l-.001-.002-.001-.001-.027-.016.062-.012h.005v-.001l.025-.046.001.001.001.001.061.016.044-.024-.122-.043.067-.034-.01-.024-.016-.015.085-.036.072.031.045-.017.002-.037-.025-.002-.011-.007.036-.009.111-.048.029.026.024.012.04-.006.012.076.001.054-.082.055-.008-.012zm1.374.014l-.001-.06c-.038-.029-.013-.147-.017-.183l-.001-.009.135-.015.007-.005-.001-.002-.013-.008-.105.009.04-.056.002-.005.099-.003.048-.045-.034.119.004.003.073.022.002.001.003.003.001.002-.036.016-.033.016-.001.005-.042.084-.075.079.011-.002.001.001.001.001.001.001v.001l.001.002v.004l.057.022-.014.062.104.025.001.03.05.008.022-.04c.047.021.139-.019.142-.047v-.002l-.001-.002-.001-.002-.021-.013.06.005.01.028-.025.031v.001l.057.033.008.043.063-.057.218-.109.092-.025.093.052.196-.026.014.029.046-.012-.006-.058.02-.041-.01-.057-.007-.001-.048.005-.045-.023-.011-.077-.018-.076.085-.156.077.009.1.068.048-.182-.018.001v-.001l-.015-.022-.056.017.001-.055-.038-.051.049-.033c.056-.035.185-.062.251-.05l.027.015-.016.048-.002.001-.013.04.008.003.025.021.004.001h.002l.003.005-.065.061-.028-.027-.003-.001.039.042.084.022c.103.019.085.093.069.147v.012l.128.149.127.068c.068.037.045.061.043.129l.022.065c.026.04.115.057.113.129l-.036.027-.073-.045.004.104.015.008.071.105-.007.051-.025.002.069.009.093.008.158.028.08.003.003-.003-.008.431-.026-.003c-.118-.007-.17.08-.171.188l-.061-.009.022.052.024.057-.095.09.017.137-.002.001h.001l.001.002.001.001-.024.115-.032.114.054.058-.024.022.026-.022.053.044.038.03.078.036-.006.02-.009.004-.182.065-.038.033-.097.09.03-.086-.001-.001-.001-.002-.001-.001-.041.011-.002-.001-.123.014-.097.039-.031.062-.022-.018-.009.012.014.014.035.036.001.003.001.003-.003.014-.077-.047-.02.014.06.07-.019.005-.026-.022-.035-.028-.018.001.029.036-.004.043-.111-.145-.042.093c-.002.053.077.084.113.109l.019.018v.003l-.006.008-.085-.025.017.063c.034.078.087.085.147.121l.048.043.03.039.02.026-.002.006-.039-.001-.094-.055-.026-.002.003.071.05.021.03.015.002.003.002.003v.006l-.005.011-.097-.025-.032-.005.001.052.054.04.027.087.001.003-.074-.056-.021.065-.066-.088-.007.023-.069.022-.006-.09-.006-.03-.002-.002-.089-.046-.003-.023c.017-.106.128-.045.189-.045l.074-.055c-.092-.018-.233.054-.288-.031l.023-.042.028-.011-.117-.03-.043-.069.035-.015v-.004l-.036.016-.084-.076-.036-.083.024-.048-.038-.1.002-.07v-.002l-.001-.001-.018-.005-.003-.038-.001.013-.045.013-.113-.078-.045-.01c-.021-.005-.074-.107-.191-.095l-.015-.033-.001-.001-.003-.002-.067-.053-.051-.056-.01-.084-.061-.059-.064.083-.028-.073.034-.058-.071-.027-.135.093.015.076c-.051.095.016.124.082.176l.067.119c.007.056.053.125.105.15l.126.024.063.008-.039.057.175.09.154.1-.003.058-.002-.004c-.028-.052-.111-.1-.17-.1l-.07.138.081.046.006.07-.097.123-.029.053-.056.012.031-.096.05-.023c-.029-.084-.044-.23-.162-.229l-.015-.079-.105-.027-.085-.095c-.032-.01-.048.036-.142-.077l-.137-.1c-.117-.079-.077-.103-.093-.163l-.077-.131-.088-.033-.003.001-.173.08v-.003l-.048.006.045-.004-.003.001-.151.141c-.085.004-.089.002-.151-.057l-.148-.024-.065-.004c-.06.035-.075.111-.057.174l.016.004-.043.038-.076.045-.143.06-.127.041-.181.15c-.106.1-.044.145-.041.2l-.009.046-.013.015-.157.089.007.028-.001.005-.032.014-.256.07-.038.017-.015-.012-.169-.012c-.069.005-.219.052-.246.02l-.009-.031c-.026-.095-.14-.123-.177-.181l-.001.001-.208-.035.05-.05.026-.057-.001-.004.008-.045.04-.058-.046-.081.01-.042.211-.208.054-.087.007-.071.123-.104h-.002l.002-.003.032-.038-.011-.071c.014-.066.07-.055.124-.059l.03-.039.036-.003.038.027.13.041.079.012.184.07.188.05.142-.122.109-.218-.021-.111-.033-.094.025-.04v-.001l-.001-.001-.038-.019c-.003-.003-.042-.124-.125-.126l-.03.005-.045-.051.057-.021-.037-.029.025-.03.187-.001.091.045.037-.002.027-.064.006-.099.074.008.012.056.063.023.058-.059.002.001.008.003.017.005c.073-.02.083-.034.109-.104l.024-.043.046-.009.042-.003.002.001.001.001.001.001v.002l-.004.011.027-.017.101-.042.054.017-.041-.016.121-.108.061-.103.004.058.008.009h.046l.022-.048-.005-.051.148-.026.013-.008.048-.039.045.047.002.001.046-.061.014.012.025-.012.014-.037-.038-.095z" stroke="#000" stroke-width=".012" fill="none"/></svg>