<?xml version="1.0" encoding="UTF-8" standalone="no"?>
<!-- Generator: Adobe Illustrator 12.0.1, SVG Export Plug-In . SVG Version: 6.00 Build 51448)  -->

<svg
   xmlns:dc="http://purl.org/dc/elements/1.1/"
   xmlns:cc="http://creativecommons.org/ns#"
   xmlns:rdf="http://www.w3.org/1999/02/22-rdf-syntax-ns#"
   xmlns:svg="http://www.w3.org/2000/svg"
   xmlns="http://www.w3.org/2000/svg"
   xmlns:xlink="http://www.w3.org/1999/xlink"
   xmlns:sodipodi="http://sodipodi.sourceforge.net/DTD/sodipodi-0.dtd"
   xmlns:inkscape="http://www.inkscape.org/namespaces/inkscape"
   version="1.1"
   width="120.22709"
   height="94.456291"
   viewBox="0 0 120.22709 94.456292"
   overflow="visible"
   enable-background="new 0 0 631.104 323.379"
   xml:space="preserve"
   id="svg4107"
   inkscape:version="0.91 r13725"
   sodipodi:docname="oceanian_map.svg"
   style="overflow:visible"><metadata
     id="metadata5227"><rdf:RDF><cc:Work
         rdf:about=""><dc:format>image/svg+xml</dc:format><dc:type
           rdf:resource="http://purl.org/dc/dcmitype/StillImage" /><dc:title></dc:title></cc:Work></rdf:RDF></metadata><defs
     id="defs5225"><radialGradient
       inkscape:collect="always"
       xlink:href="#linearGradient5025"
       id="radialGradient5297"
       gradientUnits="userSpaceOnUse"
       gradientTransform="matrix(0.710244,2.064244e-6,2.666103e-8,0.701128,38.51969,16.24581)"
       spreadMethod="reflect"
       cx="121.10561"
       cy="66.073204"
       fx="121.10561"
       fy="66.073204"
       r="37.829708" /><linearGradient
       id="linearGradient5025"><stop
         id="stop5027"
         offset="0"
         style="stop-color:aqua;stop-opacity:1;" /><stop
         id="stop5029"
         offset="1"
         style="stop-color:#07f;stop-opacity:1;" /></linearGradient><radialGradient
       inkscape:collect="always"
       xlink:href="#linearGradient5015"
       id="radialGradient5299"
       gradientUnits="userSpaceOnUse"
       gradientTransform="matrix(0.913833,-0.15206,0.158961,0.955278,2.591464,-0.286686)"
       spreadMethod="pad"
       cx="120.078"
       cy="76.821388"
       fx="120.078"
       fy="76.821388"
       r="37.829708" /><linearGradient
       id="linearGradient5015"><stop
         style="stop-color:aqua;stop-opacity:0.25882354;"
         offset="0"
         id="stop5017" /><stop
         id="stop5019"
         offset="0.52734375"
         style="stop-color:#00efff;stop-opacity:0.46666667;" /><stop
         id="stop5021"
         offset="0.625"
         style="stop-color:#00d2ff;stop-opacity:0.64313728;" /><stop
         style="stop-color:#00458a;stop-opacity:1;"
         offset="1"
         id="stop5023" /></linearGradient><radialGradient
       inkscape:collect="always"
       xlink:href="#linearGradient2797"
       id="radialGradient5301"
       gradientUnits="userSpaceOnUse"
       gradientTransform="matrix(1.304427,1.115525,-0.917462,0.448415,3.406845,-100.2669)"
       cx="112.2124"
       cy="43.835297"
       fx="112.2124"
       fy="43.835297"
       r="37.829708" /><linearGradient
       inkscape:collect="always"
       id="linearGradient2797"><stop
         style="stop-color:white;stop-opacity:1;"
         offset="0"
         id="stop2799" /><stop
         style="stop-color:white;stop-opacity:0;"
         offset="1"
         id="stop2801" /></linearGradient><radialGradient
       r="37.829708"
       fy="43.835297"
       fx="112.2124"
       cy="43.835297"
       cx="112.2124"
       gradientTransform="matrix(1.304427,1.115525,-0.917462,0.448415,3.406845,-100.2669)"
       gradientUnits="userSpaceOnUse"
       id="radialGradient3374"
       xlink:href="#linearGradient2797"
       inkscape:collect="always" /><radialGradient
       inkscape:collect="always"
       xlink:href="#linearGradient5025"
       id="radialGradient4843"
       gradientUnits="userSpaceOnUse"
       gradientTransform="matrix(0.710244,2.064244e-6,2.666103e-8,0.701128,38.51969,16.24581)"
       spreadMethod="reflect"
       cx="121.10561"
       cy="66.073204"
       fx="121.10561"
       fy="66.073204"
       r="37.829708" /><radialGradient
       inkscape:collect="always"
       xlink:href="#linearGradient5015"
       id="radialGradient4845"
       gradientUnits="userSpaceOnUse"
       gradientTransform="matrix(0.913833,-0.15206,0.158961,0.955278,2.591464,-0.286686)"
       spreadMethod="pad"
       cx="120.078"
       cy="76.821388"
       fx="120.078"
       fy="76.821388"
       r="37.829708" /><radialGradient
       inkscape:collect="always"
       xlink:href="#linearGradient2797"
       id="radialGradient4847"
       gradientUnits="userSpaceOnUse"
       gradientTransform="matrix(1.304427,1.115525,-0.917462,0.448415,3.406845,-100.2669)"
       cx="112.2124"
       cy="43.835297"
       fx="112.2124"
       fy="43.835297"
       r="37.829708" /><radialGradient
       inkscape:collect="always"
       xlink:href="#linearGradient5025"
       id="radialGradient4915"
       gradientUnits="userSpaceOnUse"
       gradientTransform="matrix(0.710244,2.064244e-6,2.666103e-8,0.701128,38.51969,16.24581)"
       spreadMethod="reflect"
       cx="121.10561"
       cy="66.073204"
       fx="121.10561"
       fy="66.073204"
       r="37.829708" /><radialGradient
       inkscape:collect="always"
       xlink:href="#linearGradient5015"
       id="radialGradient4917"
       gradientUnits="userSpaceOnUse"
       gradientTransform="matrix(0.913833,-0.15206,0.158961,0.955278,2.591464,-0.286686)"
       spreadMethod="pad"
       cx="120.078"
       cy="76.821388"
       fx="120.078"
       fy="76.821388"
       r="37.829708" /><radialGradient
       inkscape:collect="always"
       xlink:href="#linearGradient2797"
       id="radialGradient4919"
       gradientUnits="userSpaceOnUse"
       gradientTransform="matrix(1.304427,1.115525,-0.917462,0.448415,3.406845,-100.2669)"
       cx="112.2124"
       cy="43.835297"
       fx="112.2124"
       fy="43.835297"
       r="37.829708" /><radialGradient
       inkscape:collect="always"
       xlink:href="#linearGradient5025"
       id="radialGradient5045"
       gradientUnits="userSpaceOnUse"
       gradientTransform="matrix(0.710244,2.064244e-6,2.666103e-8,0.701128,38.51969,16.24581)"
       spreadMethod="reflect"
       cx="121.10561"
       cy="66.073204"
       fx="121.10561"
       fy="66.073204"
       r="37.829708" /><radialGradient
       inkscape:collect="always"
       xlink:href="#linearGradient5015"
       id="radialGradient5047"
       gradientUnits="userSpaceOnUse"
       gradientTransform="matrix(0.913833,-0.15206,0.158961,0.955278,2.591464,-0.286686)"
       spreadMethod="pad"
       cx="120.078"
       cy="76.821388"
       fx="120.078"
       fy="76.821388"
       r="37.829708" /><radialGradient
       inkscape:collect="always"
       xlink:href="#linearGradient2797"
       id="radialGradient5049"
       gradientUnits="userSpaceOnUse"
       gradientTransform="matrix(1.304427,1.115525,-0.917462,0.448415,3.406845,-100.2669)"
       cx="112.2124"
       cy="43.835297"
       fx="112.2124"
       fy="43.835297"
       r="37.829708" /><radialGradient
       inkscape:collect="always"
       xlink:href="#linearGradient5025"
       id="radialGradient5117"
       gradientUnits="userSpaceOnUse"
       gradientTransform="matrix(0.710244,2.064244e-6,2.666103e-8,0.701128,38.51969,16.24581)"
       spreadMethod="reflect"
       cx="121.10561"
       cy="66.073204"
       fx="121.10561"
       fy="66.073204"
       r="37.829708" /><radialGradient
       inkscape:collect="always"
       xlink:href="#linearGradient5015"
       id="radialGradient5119"
       gradientUnits="userSpaceOnUse"
       gradientTransform="matrix(0.913833,-0.15206,0.158961,0.955278,2.591464,-0.286686)"
       spreadMethod="pad"
       cx="120.078"
       cy="76.821388"
       fx="120.078"
       fy="76.821388"
       r="37.829708" /><radialGradient
       inkscape:collect="always"
       xlink:href="#linearGradient2797"
       id="radialGradient5121"
       gradientUnits="userSpaceOnUse"
       gradientTransform="matrix(1.304427,1.115525,-0.917462,0.448415,3.406845,-100.2669)"
       cx="112.2124"
       cy="43.835297"
       fx="112.2124"
       fy="43.835297"
       r="37.829708" /><radialGradient
       inkscape:collect="always"
       xlink:href="#linearGradient5025"
       id="radialGradient5189"
       gradientUnits="userSpaceOnUse"
       gradientTransform="matrix(0.710244,2.064244e-6,2.666103e-8,0.701128,38.51969,16.24581)"
       spreadMethod="reflect"
       cx="121.10561"
       cy="66.073204"
       fx="121.10561"
       fy="66.073204"
       r="37.829708" /><radialGradient
       inkscape:collect="always"
       xlink:href="#linearGradient5015"
       id="radialGradient5191"
       gradientUnits="userSpaceOnUse"
       gradientTransform="matrix(0.913833,-0.15206,0.158961,0.955278,2.591464,-0.286686)"
       spreadMethod="pad"
       cx="120.078"
       cy="76.821388"
       fx="120.078"
       fy="76.821388"
       r="37.829708" /><radialGradient
       inkscape:collect="always"
       xlink:href="#linearGradient2797"
       id="radialGradient5193"
       gradientUnits="userSpaceOnUse"
       gradientTransform="matrix(1.304427,1.115525,-0.917462,0.448415,3.406845,-100.2669)"
       cx="112.2124"
       cy="43.835297"
       fx="112.2124"
       fy="43.835297"
       r="37.829708" /><radialGradient
       inkscape:collect="always"
       xlink:href="#linearGradient5025"
       id="radialGradient5261"
       gradientUnits="userSpaceOnUse"
       gradientTransform="matrix(0.710244,2.064244e-6,2.666103e-8,0.701128,38.51969,16.24581)"
       spreadMethod="reflect"
       cx="121.10561"
       cy="66.073204"
       fx="121.10561"
       fy="66.073204"
       r="37.829708" /><radialGradient
       inkscape:collect="always"
       xlink:href="#linearGradient5015"
       id="radialGradient5263"
       gradientUnits="userSpaceOnUse"
       gradientTransform="matrix(0.913833,-0.15206,0.158961,0.955278,2.591464,-0.286686)"
       spreadMethod="pad"
       cx="120.078"
       cy="76.821388"
       fx="120.078"
       fy="76.821388"
       r="37.829708" /><radialGradient
       inkscape:collect="always"
       xlink:href="#linearGradient2797"
       id="radialGradient5265"
       gradientUnits="userSpaceOnUse"
       gradientTransform="matrix(1.304427,1.115525,-0.917462,0.448415,3.406845,-100.2669)"
       cx="112.2124"
       cy="43.835297"
       fx="112.2124"
       fy="43.835297"
       r="37.829708" /></defs><sodipodi:namedview
     pagecolor="#ffffff"
     bordercolor="#666666"
     borderopacity="1"
     objecttolerance="10"
     gridtolerance="10"
     guidetolerance="10"
     inkscape:pageopacity="0"
     inkscape:pageshadow="2"
     inkscape:window-width="1280"
     inkscape:window-height="973"
     id="namedview5223"
     showgrid="false"
     inkscape:zoom="2.8284271"
     inkscape:cx="55.594566"
     inkscape:cy="79.243574"
     inkscape:window-x="-4"
     inkscape:window-y="-4"
     inkscape:window-maximized="1"
     inkscape:current-layer="svg4107"
     fit-margin-top="0"
     fit-margin-left="0"
     fit-margin-right="0"
     fit-margin-bottom="0" /><path
     style="fill:none;stroke:#000000;stroke-opacity:1;stroke-width:0.1;stroke-miterlimit:4;stroke-dasharray:none"
     inkscape:connector-curvature="0"
     id="path4194"
     d="m 91.956987,37.389853 c 0.298,-0.114 0.38,-0.604 0.134,-0.807 -0.202,-0.17 -0.508,-0.141 -0.672,0.066 -0.223,0.278 0.206,0.868 0.538,0.741"
     sodipodi:nodetypes="cccc" /><path
     style="fill:none;stroke:#000000;stroke-opacity:1;stroke-width:0.1;stroke-miterlimit:4;stroke-dasharray:none"
     inkscape:connector-curvature="0"
     id="path4196"
     d="m 96.466987,46.006853 c 0.204,0.055 0.385,0.078 0.54,-0.067 0.12,-0.114 0.179,-0.244 0.132,-0.403 -0.046,-0.162 -0.17,-0.234 -0.335,-0.27 -0.229,-0.05 -0.391,0.085 -0.54,0.27 -0.072,0.091 -0.151,0.153 -0.133,0.269 0.024,0.15 0.19,0.16 0.336,0.201"
     sodipodi:nodetypes="ccccccc" /><path
     style="fill:none;stroke:#000000;stroke-opacity:1;stroke-width:0.1;stroke-miterlimit:4;stroke-dasharray:none"
     inkscape:connector-curvature="0"
     id="path4198"
     d="m 91.687987,41.428853 c 0.081,0.229 0.022,0.393 0.136,0.605 0.123,0.229 0.286,0.287 0.471,0.472 0.238,0.235 0.41,0.334 0.606,0.606 0.121,0.172 0.131,0.309 0.269,0.471 0.222,0.262 0.524,0.205 0.74,0.472 0.147,0.183 0.159,0.331 0.269,0.538 0.103,0.186 0.093,0.355 0.27,0.472 0.243,0.158 0.451,-0.067 0.741,-0.067 0.289,0 0.514,0.248 0.741,0.067 0.137,-0.11 0.176,-0.229 0.201,-0.404 0.032,-0.214 -0.042,-0.343 -0.134,-0.539 -0.135,-0.285 -0.295,-0.405 -0.54,-0.606 -0.191,-0.155 -0.301,-0.26 -0.538,-0.336 -0.299,-0.097 -0.575,0.214 -0.807,0 -0.233,-0.213 0.006,-0.5 -0.068,-0.807 -0.12,-0.491 -0.147,-0.938 -0.606,-1.146 -0.24,-0.108 -0.431,0.041 -0.673,-0.067 -0.27,-0.121 -0.389,-0.281 -0.54,-0.539 -0.162,-0.279 0.022,-0.57 -0.199,-0.808 -0.194,-0.205 -0.407,-0.362 -0.676,-0.269 -0.174,0.062 -0.263,0.166 -0.334,0.336 -0.117,0.277 0.088,0.463 0.2,0.74 0.135,0.338 0.348,0.465 0.471,0.809"
     sodipodi:nodetypes="ccccccccsccccccccccccccc" /><path
     style="fill:none;stroke:#000000;stroke-opacity:1;stroke-width:0.1;stroke-miterlimit:4;stroke-dasharray:none"
     inkscape:connector-curvature="0"
     id="path4280"
     d="m 0.67098651,68.826853 c 0.157,0.213 -0.082,0.456 0.067,0.675 0.187,0.274 0.48199999,0.206 0.80899999,0.269 0.489,0.097 0.782,0.03 1.28,0 0.446,-0.027 0.698,-0.069 1.143,-0.135 0.449,-0.066 0.749,0.021 1.145,-0.202 0.241,-0.136 0.301,-0.325 0.538,-0.471 0.24,-0.148 0.404,-0.182 0.674,-0.27 0.309,-0.102 0.525,-0.04 0.808,-0.202 0.178,-0.102 0.226,-0.232 0.404,-0.337 0.216,-0.125 0.358,-0.165 0.604,-0.202 0.208,-0.03 0.33,0.02 0.539,0 0.407,-0.035 0.606,-0.221 1.009,-0.268 0.4730005,-0.056 0.7390005,0.053 1.2130005,0.066 0.524,0.016 0.821,0 1.347,0 l 0.74,0 c 0.499,0 0.822,0.201 1.279,0 0.274,-0.121 0.373,-0.283 0.606,-0.471 0.377,-0.305 0.58,-0.488 0.942,-0.809 0.265,-0.234 0.358,-0.443 0.673,-0.605 0.334,-0.174 0.628,0.002 0.942,-0.203 0.188,-0.12 0.217,-0.283 0.404,-0.402 0.253,-0.16 0.464,-0.084 0.74,-0.203 0.314,-0.135 0.421,-0.351 0.74,-0.47 0.323,-0.123 0.531,-0.12 0.875,-0.136 0.367,-0.016 0.593,-0.045 0.942,0.067 0.224,0.071 0.312,0.212 0.538,0.269 0.333,0.084 0.538,-0.01 0.877,-0.066 0.514,-0.088 0.805,-0.184 1.278,-0.404 0.273,-0.127 0.426,-0.255 0.651,-0.387 0.05,-0.027 0.101,-0.057 0.156,-0.084 0.358,-0.18 0.557,-0.299 0.942,-0.404 0.334,-0.092 0.53,-0.119 0.875,-0.135 0.369,-0.017 0.574,0.064 0.942,0.068 0.422,0.003 0.662,-0.004 1.077,-0.068 0.348,-0.053 0.541,-0.303 0.875,-0.202 0.321,0.097 0.453,0.31 0.607,0.605 0.039,0.078 0.044,0.15 0.055,0.22 0.012,0.064 0.027,0.125 0.078,0.186 0.176,0.203 0.408,0.107 0.674,0.135 0.261,0.024 0.413,-0.043 0.675,0 0.188,0.029 0.283,0.09 0.47,0.135 0.437,0.103 0.851,-0.208 1.146,0.134 0.16,0.189 0.071,0.394 0.201,0.606 0.135,0.223 0.456,0.211 0.471,0.471 0.013,0.211 -0.24,0.262 -0.269,0.472 -0.033,0.246 0.133,0.366 0.201,0.605 0.061,0.208 0.108,0.323 0.137,0.538 0.024,0.209 -0.039,0.332 0,0.539 0.027,0.164 0.102,0.24 0.134,0.403 0.043,0.233 0.032,0.373 0,0.606 -0.037,0.271 -0.234,0.4 -0.203,0.673 0.027,0.233 0.041,0.485 0.271,0.538 0.254,0.062 0.28,-0.293 0.47,-0.47 0.206,-0.192 0.309,-0.313 0.539,-0.472 0.174,-0.121 0.35,-0.096 0.471,-0.27 0.137,-0.195 -0.065,-0.41 0.069,-0.606 0.104,-0.155 0.236,-0.177 0.402,-0.269 0.247,-0.137 0.413,-0.158 0.673,-0.27 0.238,-0.102 0.376,-0.154 0.607,-0.27 0.242,-0.119 0.437,-0.126 0.606,-0.337 0.138,-0.175 0.059,-0.362 0.201,-0.538 0.183,-0.227 0.387,-0.276 0.674,-0.337 0.229,-0.048 0.478,-0.199 0.604,0 0.142,0.222 -0.348,0.282 -0.403,0.539 -0.028,0.128 0.017,0.206 0,0.336 -0.052,0.362 -0.178,0.596 -0.474,0.809 -0.16,0.118 -0.295,0.104 -0.469,0.202 -0.199,0.109 -0.345,0.148 -0.472,0.336 -0.121,0.181 -0.025,0.354 -0.134,0.539 -0.096,0.16 -0.211,0.199 -0.338,0.336 -0.227,0.247 -0.243,0.513 -0.537,0.674 -0.213,0.115 -0.458,-0.057 -0.607,0.135 -0.113,0.147 -0.169,0.316 -0.067,0.471 0.118,0.176 0.327,0.063 0.54,0.067 0.265,0.007 0.434,0.047 0.672,-0.067 0.234,-0.111 0.324,-0.257 0.472,-0.471 0.146,-0.213 0.098,-0.412 0.269,-0.606 0.164,-0.187 0.307,-0.42 0.538,-0.337 0.179,0.064 0.227,0.221 0.271,0.405 0.072,0.298 -0.134,0.465 -0.271,0.74 -0.111,0.221 -0.184,0.343 -0.335,0.538 -0.06,0.076 -0.146,0.129 -0.234,0.177 -0.186,0.101 -0.373,0.173 -0.306,0.362 0.109,0.297 0.589,-0.295 0.81,-0.068 0.133,0.139 0.095,0.285 0.134,0.473 0.077,0.359 0.163,0.586 0.065,0.942 -0.068,0.26 -0.179,0.384 -0.335,0.604 -0.139,0.199 -0.333,0.24 -0.404,0.471 -0.068,0.229 0.002,0.379 0.067,0.607 0.127,0.433 0.518,0.519 0.672,0.941 0.104,0.276 -0.013,0.49 0.138,0.741 0.151,0.257 0.344,0.326 0.604,0.472 0.269,0.148 0.435,0.238 0.74,0.268 0.319,0.033 0.498,-0.208 0.808,-0.133 0.278,0.064 0.377,0.236 0.607,0.404 0.271,0.196 0.365,0.402 0.674,0.538 0.292,0.128 0.5,0.224 0.806,0.134 0.305,-0.088 0.361,-0.339 0.606,-0.538 0.205,-0.165 0.296,-0.302 0.54,-0.405 0.314,-0.132 0.564,0.082 0.874,-0.066 0.218,-0.105 0.273,-0.263 0.472,-0.403 0.268,-0.191 0.44,-0.54 0.741,-0.403 0.313,0.141 0.087,0.532 0.134,0.873 0.028,0.211 -0.02,0.346 0.067,0.539 0.104,0.238 0.25,0.338 0.47,0.473 0.258,0.154 0.446,0.238 0.741,0.201 0.392,-0.048 0.473,-0.4 0.808,-0.605 0.301,-0.184 0.484,-0.266 0.81,-0.404 0.281,-0.12 0.514,-0.063 0.739,-0.27 0.218,-0.196 0.129,-0.465 0.336,-0.673 0.293,-0.293 0.604,-0.254 1.012,-0.337 0.488,-0.098 0.779,-0.105 1.277,-0.066 0.428,0.032 0.651,0.228 1.078,0.201 0.323,-0.019 0.539,-0.018 0.808,-0.201 0.264,-0.183 0.301,-0.404 0.471,-0.674 0.41,-0.643 0.343,-1.202 0.877,-1.75 0.314,-0.324 0.637,-0.339 0.943,-0.674 0.268,-0.296 0.272,-0.572 0.537,-0.875 0.293,-0.338 0.583,-0.406 0.897,-0.698 0.014,-0.014 0.03,-0.027 0.043,-0.042 0.293,-0.287 0.413,-0.492 0.674,-0.807 0.369,-0.446 0.58,-0.695 0.942,-1.146 0.399,-0.495 0.595,-0.798 1.011,-1.278 0.353,-0.408 0.519,-0.678 0.944,-1.011 0.312,-0.247 0.553,-0.298 0.874,-0.539 0.31,-0.233 0.445,-0.417 0.741,-0.673 0.309,-0.27 0.495,-0.406 0.807,-0.674 0.212,-0.181 0.339,-0.275 0.539,-0.471 0.14,-0.139 0.249,-0.264 0.347,-0.387 0.17,-0.215 0.31,-0.426 0.528,-0.69 0.39,-0.476 0.614,-0.741 1.009,-1.212 0.287,-0.342 0.497,-0.5 0.741,-0.874 0.268,-0.414 0.346,-0.69 0.539,-1.146 0.173,-0.413 0.139,-0.714 0.403,-1.077 0.207,-0.286 0.46,-0.323 0.673,-0.605 0.292,-0.384 0.338,-0.681 0.471,-1.145 0.125,-0.436 0.186,-0.691 0.203,-1.144 0.016,-0.477 -0.201,-0.742 -0.135,-1.212 0.054,-0.387 0.231,-0.566 0.336,-0.943 0.106,-0.387 0.162,-0.608 0.202,-1.011 0.057,-0.574 -0.03,-0.903 -0.066,-1.48 -0.04,-0.592 0.083,-0.969 -0.122,-1.515 -0.004,-0.011 -0.009,-0.021 -0.014,-0.033 -0.101,-0.251 -0.192,-0.377 -0.336,-0.606 -0.231,-0.363 -0.397,-0.545 -0.675,-0.875 -0.346,-0.412 -0.797,-0.49 -0.94,-1.009 -0.123,-0.433 0.119,-0.695 0.134,-1.146 0.016,-0.473 0.289,-0.9 -0.068,-1.211 -0.205,-0.182 -0.409,-0.127 -0.672,-0.201 -0.287,-0.084 -0.504,-0.021 -0.74,-0.203 -0.263,-0.199 -0.297,-0.43 -0.404,-0.74 -0.141,-0.399 -0.055,-0.662 -0.135,-1.078 -0.063,-0.317 -0.109,-0.496 -0.2,-0.807 -0.113,-0.375 -0.285,-0.556 -0.338,-0.943 -0.036,-0.26 0.142,-0.453 0,-0.672 -0.144,-0.217 -0.384,-0.139 -0.606,-0.271 -0.257,-0.151 -0.414,-0.242 -0.604,-0.472 -0.176,-0.207 -0.127,-0.435 -0.339,-0.605 -0.213,-0.172 -0.435,-0.065 -0.672,-0.201 -0.293,-0.164 -0.381,-0.361 -0.605,-0.605 -0.191,-0.205 -0.333,-0.297 -0.473,-0.538 -0.325,-0.571 -0.123,-1.029 -0.067,-1.684 0.006,-0.054 0.011,-0.103 0.021,-0.153 0.092,-0.468 0.388,-0.771 0.247,-1.262 -0.062,-0.225 -0.193,-0.314 -0.269,-0.537 -0.144,-0.426 -0.043,-0.699 -0.068,-1.146 -0.033,-0.683 -0.02,-1.068 -0.065,-1.75 -0.038,-0.578 0.211,-1.016 -0.135,-1.48 -0.178,-0.241 -0.439,-0.223 -0.605,-0.472 -0.08,-0.119 -0.069,-0.255 -0.074,-0.379 -0.004,-0.114 -0.019,-0.221 -0.128,-0.294 -0.268,-0.184 -0.502,0.095 -0.808,0.201 -0.066,0.023 -0.122,0.057 -0.177,0.093 -0.189,0.133 -0.326,0.313 -0.563,0.244 -0.143,-0.042 -0.206,-0.13 -0.23,-0.244 -0.048,-0.239 0.084,-0.598 0.097,-0.901 0.016,-0.509 0.246,-0.769 0.267,-1.278 0.024,-0.556 -0.148,-0.858 -0.201,-1.413 -0.044,-0.445 0.072,-0.721 -0.065,-1.145 -0.115,-0.347 -0.349,-0.465 -0.474,-0.809 -0.172,-0.471 0.242,-0.949 -0.134,-1.279 -0.264,-0.23 -0.545,-0.322 -0.875,-0.201 -0.336,0.123 -0.405,0.409 -0.54,0.741 -0.119,0.296 -0.05,0.498 -0.134,0.807 -0.134,0.5 -0.392,0.716 -0.538,1.212 -0.128,0.436 -0.149,0.693 -0.203,1.145 -0.057,0.496 0.071,0.8 -0.066,1.279 -0.111,0.395 -0.522,0.535 -0.473,0.941 0.027,0.199 0.171,0.275 0.204,0.473 0.027,0.17 -0.011,0.304 -0.075,0.429 -0.092,0.184 -0.242,0.346 -0.33,0.581 -0.138,0.365 -0.214,0.571 -0.337,0.941 -0.212,0.647 -0.313,1.02 -0.471,1.684 -0.086,0.365 -0.106,0.579 -0.202,0.942 -0.145,0.563 -0.129,0.945 -0.47,1.413 -0.265,0.362 -0.491,0.517 -0.875,0.741 -0.408,0.238 -0.672,0.388 -1.146,0.404 -0.432,0.016 -0.716,-0.032 -1.077,-0.27 -0.358,-0.236 -0.348,-0.593 -0.673,-0.876 -0.319,-0.276 -0.598,-0.292 -0.941,-0.538 -0.47,-0.334 -0.666,-0.607 -1.078,-1.01 -0.213,-0.206 -0.293,-0.37 -0.537,-0.538 -0.194,-0.133 -0.331,-0.162 -0.539,-0.27 -0.345,-0.178 -0.612,-0.186 -0.875,-0.471 -0.272,-0.293 -0.085,-0.704 -0.405,-0.942 -0.198,-0.149 -0.412,-0.046 -0.604,-0.202 -0.246,-0.199 -0.398,-0.43 -0.338,-0.74 0.045,-0.223 0.196,-0.295 0.338,-0.472 0.125,-0.161 0.234,-0.261 0.347,-0.379 0.063,-0.065 0.125,-0.137 0.192,-0.228 0.146,-0.199 0.314,-0.292 0.336,-0.537 0.021,-0.26 -0.246,-0.35 -0.271,-0.606 -0.021,-0.241 -0.005,-0.409 0.136,-0.606 0.155,-0.221 0.353,-0.244 0.604,-0.336 0.349,-0.129 0.748,0.18 0.944,-0.135 0.151,-0.248 -0.128,-0.457 -0.069,-0.74 0.074,-0.336 0.528,-0.403 0.473,-0.741 -0.036,-0.224 -0.166,-0.325 -0.338,-0.472 -0.195,-0.168 -0.348,-0.242 -0.604,-0.269 -0.299,-0.03 -0.49,0.365 -0.741,0.2 -0.209,-0.135 0.017,-0.486 -0.202,-0.604 -0.186,-0.101 -0.345,-0.018 -0.54,0.067 -0.289,0.126 -0.243,0.491 -0.538,0.605 -0.321,0.125 -0.541,-0.047 -0.875,-0.135 -0.353,-0.092 -0.539,-0.194 -0.875,-0.336 -0.292,-0.123 -0.438,-0.234 -0.739,-0.338 -0.357,-0.119 -0.605,-0.035 -0.943,-0.2 -0.302,-0.149 -0.383,-0.368 -0.672,-0.54 -0.226,-0.13 -0.356,-0.207 -0.606,-0.269 -0.332,-0.081 -0.647,-0.253 -0.877,0 -0.144,0.161 -0.204,0.333 -0.135,0.538 0.069,0.193 0.223,0.24 0.406,0.337 0.145,0.077 0.283,0.019 0.402,0.134 0.231,0.229 0.02,0.572 -0.203,0.809 -0.157,0.172 -0.336,0.148 -0.536,0.27 -0.194,0.117 -0.246,0.318 -0.473,0.337 -0.299,0.024 -0.307,-0.46 -0.605,-0.472 -0.335,-0.014 -0.377,0.379 -0.674,0.539 -0.29,0.158 -0.491,0.163 -0.808,0.269 l -0.47,0.202 c -0.187,0.262 -0.385,0.365 -0.473,0.674 -0.093,0.328 0.266,0.594 0.067,0.875 -0.177,0.252 -0.506,0.071 -0.74,0.269 -0.27,0.228 -0.153,0.56 -0.403,0.809 -0.175,0.175 -0.433,0.111 -0.539,0.337 -0.049,0.106 -0.046,0.199 -0.024,0.294 0.023,0.097 0.066,0.194 0.09,0.313 0.088,0.39 0.619,0.604 0.406,0.94 -0.152,0.24 -0.394,0.238 -0.674,0.27 -0.47,0.055 -0.674,-0.461 -1.145,-0.403 -0.314,0.039 -0.478,0.515 -0.739,0.337 -0.166,-0.113 -0.11,-0.294 -0.201,-0.471 -0.133,-0.253 -0.26,-0.363 -0.406,-0.606 -0.078,-0.132 -0.121,-0.257 -0.159,-0.379 -0.065,-0.204 -0.119,-0.392 -0.312,-0.563 -0.219,-0.195 -0.404,-0.221 -0.674,-0.338 -0.28,-0.121 -0.44,-0.342 -0.738,-0.27 -0.308,0.075 -0.341,0.361 -0.54,0.607 -0.165,0.203 -0.2,0.375 -0.404,0.539 -0.012,0.008 -0.022,0.016 -0.032,0.024 -0.351,0.244 -0.755,-0.019 -1.112,0.244 -0.287,0.211 -0.348,0.439 -0.538,0.741 -0.207,0.326 -0.159,0.646 -0.471,0.874 -0.283,0.206 -0.58,0.014 -0.875,0.202 -0.388,0.248 -0.49,0.566 -0.607,1.01 -0.059,0.23 0.04,0.395 -0.065,0.605 -0.146,0.287 -0.375,0.359 -0.675,0.472 -0.346,0.13 -0.806,-0.274 -0.94,0.068 -0.107,0.262 0.163,0.41 0.268,0.672 0,0 -0.399,1.225 -0.875,1.01 -0.3,-0.135 -0.31,-0.426 -0.404,-0.74 -0.098,-0.327 0.261,-0.775 -0.067,-0.875 -0.271,-0.083 -0.418,0.192 -0.605,0.404 -0.211,0.238 -0.179,0.466 -0.337,0.74 -0.197,0.342 -0.485,0.433 -0.604,0.809 -0.042,0.127 -0.042,0.203 -0.069,0.336 -0.031,0.165 -0.033,0.314 -0.035,0.453 0,0.263 0.004,0.497 -0.166,0.76 -0.172,0.264 -0.367,0.33 -0.604,0.537 -0.312,0.269 -0.541,0.362 -0.81,0.673 -0.222,0.261 -0.312,0.438 -0.471,0.741 -0.121,0.229 -0.138,0.383 -0.27,0.605 -0.17,0.29 -0.27,0.473 -0.538,0.673 -0.189,0.142 -0.323,0.176 -0.539,0.27 -0.28,0.124 -0.442,0.196 -0.74,0.271 -0.537,0.131 -0.862,0.057 -1.413,0.066 -0.342,0.007 -0.584,-0.176 -0.874,0 -0.245,0.146 -0.151,0.481 -0.405,0.605 -0.261,0.127 -0.453,-0.085 -0.742,-0.066 -0.322,0.022 -0.536,0.021 -0.809,0.201 -0.247,0.167 -0.203,0.469 -0.468,0.606 -0.235,0.121 -0.41,0.06 -0.675,0.067 -0.368,0.011 -0.581,-0.14 -0.943,-0.067 -0.3100005,0.062 -0.4400005,0.231 -0.7390005,0.336 -0.307,0.108 -0.53,0.034 -0.808,0.202 -0.222,0.136 -0.281,0.295 -0.472,0.471 -0.179,0.165 -0.271,0.266 -0.472,0.404 -0.22,0.156 -0.363,0.217 -0.605,0.336 -0.231,0.117 -0.383,0.141 -0.607,0.27 -0.195,0.115 -0.306,0.182 -0.468,0.337 -0.192,0.183 -0.235,0.341 -0.407,0.539 -0.168,0.196 -0.221,0.546 -0.47,0.472 -0.161,-0.049 -0.105,-0.303 -0.271,-0.336 -0.199,-0.042 -0.295,0.161 -0.403,0.336 -0.179,0.29 0,0.533 0,0.875 0,0.157 0.019,0.248 0,0.404 -0.042,0.338 -0.188,0.499 -0.336,0.807 -0.144,0.297 -0.24,0.456 -0.403,0.74 -0.153,0.266 -0.316,0.382 -0.406,0.674 -0.104,0.352 -0.078,0.584 0,0.943 0.028,0.121 0.069,0.214 0.112,0.302 0.054,0.112 0.115,0.22 0.16,0.37 0.088,0.307 0.102,0.49 0.134,0.809 0.042,0.444 0.139,0.721 0,1.145 -0.085,0.257 -0.067,0.61 -0.337,0.605 -0.284,-0.004 -0.168,-0.408 -0.271,-0.672 -0.109,-0.287 0.033,-0.787 -0.269,-0.742 -0.185,0.028 -0.264,0.166 -0.336,0.339 -0.093,0.218 0.063,0.366 0.065,0.604 0.004,0.265 0.164,0.546 -0.065,0.675 -0.249,0.137 -0.342,-0.509 -0.606,-0.403 -0.273,0.106 -0.187,0.45 -0.135,0.739 0.065,0.351 0.366,0.429 0.538,0.74 0.126,0.227 0.2,0.357 0.269,0.605 0.103,0.354 0.086,0.574 0.068,0.942 -0.015,0.345 -0.17,0.532 -0.134,0.876 0.052,0.502 0.44,0.666 0.604,1.145 0.122,0.355 0.256,0.57 0.201,0.941 -0.063,0.47 -0.502,0.569 -0.672,1.011 -0.218,0.564 -0.151,0.941 -0.134,1.549 0.015,0.582 0.147,0.899 0.203,1.481 0.045,0.505 0.119,0.804 0.069,1.295 -10e-4,0.016 -0.002,0.033 -0.004,0.051 -0.049,0.43 -0.097,0.68 -0.269,1.076 -0.174,0.402 -0.385,0.566 -0.606,0.943 -0.256,0.435 -0.195,0.85 -0.605,1.145 -0.249,0.179 -0.46599999,0.132 -0.74099999,0.269 -0.222,0.111 -0.405,0.129 -0.54,0.337 -0.168,0.266 -0.189,0.556 0,0.808 0.139,0.19 0.398,0.083 0.537,0.27"
     sodipodi:nodetypes="ccccccccccccccssccccccccccccccccccccccccccccccccccccccccccccccccccccccccccccccccccccccccccccccccccccccccccccccccccccccccccccccccccccccccccccccccccccccccccccccccccccccccccccccccccccccccccccccccccccsccccccccccccccccccccccccccccccccccccccccccccccccccccccccccccccccccccccccccccccccccccccccccccccccccccccccccccsccccccccccccccccccccccccccccccccccc" /><path
     style="fill:none;stroke:#000000;stroke-opacity:1;stroke-width:0.1;stroke-miterlimit:4;stroke-dasharray:none"
     inkscape:connector-curvature="0"
     id="path4282"
     d="m 36.888987,23.453853 c 0.076,0.089 0.135,0.27 0.135,0.27 0.045,0.162 0.121,0.259 0.271,0.337 0.236,0.125 0.419,-0.047 0.673,-0.135 0.312,-0.108 0.49,-0.189 0.741,-0.404 0.181,-0.157 0.391,-0.229 0.403,-0.471 0.01,-0.211 -0.094,-0.355 -0.27,-0.472 -0.243,-0.159 -0.452,0.054 -0.741,0.067 -0.314,0.015 -0.495,0.018 -0.807,0 -0.265,-0.014 -0.461,-0.224 -0.675,-0.067 -0.216,0.157 -0.287,0.454 -0.133,0.673 0.102,0.144 0.287,0.069 0.403,0.202"
     sodipodi:nodetypes="cccccccccccc" /><path
     style="fill:none;stroke:#000000;stroke-opacity:1;stroke-width:0.1;stroke-miterlimit:4;stroke-dasharray:none"
     inkscape:connector-curvature="0"
     id="path4284"
     d="m 34.330987,72.059853 c 0.289,0.032 0.453,0.105 0.74,0.066 0.188,-0.024 0.284,-0.096 0.473,-0.134 0.256,-0.053 0.515,0.146 0.671,-0.066 0.095,-0.13 0.131,-0.257 0.069,-0.405 -0.096,-0.223 -0.365,-0.105 -0.607,-0.135 -0.287,-0.033 -0.453,-0.029 -0.74,0 -0.348,0.037 -0.611,-0.029 -0.875,0.203 -0.142,0.125 -0.332,0.224 -0.268,0.403 0.069,0.2 0.326,0.044 0.537,0.068"
     sodipodi:nodetypes="cccccccccc" /><path
     style="fill:none;stroke:#000000;stroke-opacity:1;stroke-width:0.1;stroke-miterlimit:4;stroke-dasharray:none"
     inkscape:connector-curvature="0"
     id="path4286"
     d="m 41.937987,80.203853 c 0.134,-0.067 0.172,-0.157 0.271,-0.268 0.147,-0.17 0.435,-0.27 0.336,-0.473 -0.082,-0.172 -0.282,-0.158 -0.471,-0.134 -0.224,0.03 -0.287,0.206 -0.473,0.337 -0.182,0.131 -0.43,0.114 -0.47,0.336 -0.06,0.321 0.518,0.353 0.807,0.202"
     sodipodi:nodetypes="ccccccc" /><path
     style="fill:none;stroke:#000000;stroke-opacity:1;stroke-width:0.1;stroke-miterlimit:4;stroke-dasharray:none"
     inkscape:connector-curvature="0"
     id="path4288"
     d="m 48.466987,80.541853 c 0.219,-0.105 0.323,-0.244 0.406,-0.472 0.079,-0.222 0.122,-0.404 0,-0.606 -0.101,-0.16 -0.216,-0.254 -0.406,-0.269 -0.277,-0.022 -0.384,0.237 -0.538,0.472 -0.122,0.188 -0.199,0.314 -0.202,0.537 0,0.135 -0.01,0.229 0.069,0.338 0.154,0.213 0.435,0.114 0.671,0"
     sodipodi:nodetypes="cccccccc" /><path
     style="fill:none;stroke:#000000;stroke-opacity:1;stroke-width:0.1;stroke-miterlimit:4;stroke-dasharray:none"
     inkscape:connector-curvature="0"
     id="path4290"
     d="m 40.390987,87.070853 c 0.178,0.262 0.496,0.122 0.808,0.068 0.416,-0.073 0.553,-0.375 0.942,-0.54 0.328,-0.138 0.541,-0.143 0.874,-0.269 0.408,-0.152 0.607,-0.311 1.011,-0.472 0.387,-0.153 0.688,-0.072 1.009,-0.335 0.345,-0.284 0.206,-0.715 0.54,-1.011 0.279,-0.251 0.617,-0.13 0.875,-0.404 0.283,-0.304 0.188,-0.62 0.337,-1.009 0.121,-0.32 0.138,-0.53 0.337,-0.809 0.202,-0.289 0.782,-0.269 0.673,-0.606 -0.108,-0.329 -0.538,-0.203 -0.875,-0.134 -0.197,0.039 -0.28,0.148 -0.472,0.202 -0.381,0.104 -0.657,-0.175 -1.011,0 -0.184,0.091 -0.229,0.229 -0.404,0.337 -0.281,0.174 -0.492,0.377 -0.808,0.27 -0.302,-0.105 -0.187,-0.525 -0.47,-0.675 -0.235,-0.123 -0.416,-0.01 -0.673,-0.066 -0.302,-0.065 -0.46,-0.394 -0.743,-0.269 -0.206,0.09 -0.213,0.279 -0.334,0.471 -0.147,0.227 -0.217,0.364 -0.338,0.605 -0.179,0.357 -0.351,0.547 -0.403,0.942 -0.044,0.313 0.164,0.507 0.067,0.808 -0.116,0.354 -0.543,0.326 -0.673,0.674 -0.111,0.295 -0.021,0.493 0,0.808 0.014,0.237 0.089,0.37 0.065,0.606 -0.031,0.34 -0.527,0.527 -0.334,0.808"
     sodipodi:nodetypes="ccccccccccccccccccccccccccc" /><path
     style="fill:none;stroke:#000000;stroke-opacity:1;stroke-width:0.1;stroke-miterlimit:4;stroke-dasharray:none"
     inkscape:connector-curvature="0"
     id="path4398"
     d="m 38.504987,1.2388525 c 0.241,0.108 0.412,-0.034 0.673,-0.067 0.186,-0.023 0.295,-0.009 0.473,-0.068 0.2,-0.064 0.398,-0.07 0.47,-0.26999997 0.063,-0.18 0.02,-0.356 -0.136,-0.471 -0.106,-0.079 -0.206,-0.033 -0.334,-0.066 -0.219,-0.058 -0.321,-0.15 -0.539,-0.203 -0.182,-0.043 -0.302,-0.142 -0.473,-0.066 -0.173,0.076 -0.177,0.237 -0.269,0.403 -0.097,0.175 -0.244,0.276 -0.2,0.472 0.04,0.18099997 0.166,0.25999997 0.335,0.33599997"
     sodipodi:nodetypes="ccccccccccc" /><path
     style="fill:none;stroke:#000000;stroke-opacity:1;stroke-width:0.1;stroke-miterlimit:4;stroke-dasharray:none"
     inkscape:connector-curvature="0"
     id="path4402"
     d="m 47.390987,2.1818525 c 0.172,0.18 0.117,0.425 0.336,0.539 0.119,0.061 0.204,0.051 0.338,0.066 0.183,0.021 0.331,0.119 0.472,0 0.14,-0.121 0.099,-0.289 0.067,-0.471 -0.049,-0.259 -0.192,-0.385 -0.403,-0.539 -0.162,-0.118 -0.276,-0.164 -0.474,-0.201 -0.18,-0.036 -0.314,-0.1 -0.47,0 -0.129,0.082 -0.222,0.184 -0.202,0.336 0.023,0.166 0.221,0.148 0.336,0.27"
     sodipodi:nodetypes="cccccccccc" /><path
     style="fill:none;stroke:#000000;stroke-opacity:1;stroke-width:0.1;stroke-miterlimit:4;stroke-dasharray:none"
     inkscape:connector-curvature="0"
     id="path4450"
     d="m 52.439987,14.972853 c -0.225,-0.137 -0.43,-0.036 -0.674,0.066 -0.256,0.109 -0.348,0.267 -0.538,0.472 -0.178,0.193 -0.247,0.328 -0.402,0.538 -0.213,0.287 -0.559,0.385 -0.539,0.741 0.006,0.108 0.008,0.179 0.066,0.269 0.148,0.218 0.426,0.088 0.673,0 0.181,-0.063 0.232,-0.189 0.404,-0.269 0.313,-0.146 0.616,0.091 0.875,-0.134 0.16,-0.141 0.192,-0.276 0.271,-0.473 0.099,-0.248 0.176,-0.408 0.135,-0.673 -0.038,-0.233 -0.07,-0.416 -0.271,-0.537"
     sodipodi:nodetypes="cccccccccccc" /><path
     style="fill:none;stroke:#000000;stroke-opacity:1;stroke-width:0.1;stroke-miterlimit:4;stroke-dasharray:none"
     d="M 41.742188 0.83789062 C 41.518188 0.87989063 41.460484 1.0527344 41.271484 1.1777344 C 41.015484 1.3467344 40.878703 1.4610781 40.595703 1.5800781 C 40.272703 1.7130781 39.957656 1.52125 39.722656 1.78125 C 39.554656 1.96525 39.634531 2.1667188 39.519531 2.3867188 C 39.433531 2.5557187 39.295 2.6080156 39.25 2.7910156 C 39.192 3.0270156 39.194766 3.2474844 39.384766 3.3964844 C 39.592766 3.5584844 39.797594 3.2940781 40.058594 3.3300781 C 40.340594 3.3670781 40.564469 3.3696094 40.730469 3.5996094 C 40.885469 3.8126094 40.663828 4.0444844 40.798828 4.2714844 C 40.902828 4.4474844 41.028125 4.500375 41.203125 4.609375 C 41.463125 4.771375 41.640406 4.8099531 41.941406 4.8769531 C 42.455406 4.9919531 42.764062 4.8769531 43.289062 4.8769531 C 43.526063 4.8769531 43.733531 4.7049531 43.894531 4.8769531 C 44.020531 5.0139531 44.029891 5.1766094 43.962891 5.3496094 C 43.822891 5.6956094 43.379625 5.0475781 43.015625 5.1425781 C 42.776625 5.2055781 42.715563 5.4224219 42.476562 5.4824219 C 42.219563 5.5444219 42.066734 5.4150625 41.802734 5.4140625 C 41.511734 5.4110625 41.2245 5.2414219 41.0625 5.4824219 C 40.9135 5.7024219 41.049219 5.9322969 41.199219 6.1542969 C 41.380219 6.4282969 41.6795 6.3526406 41.9375 6.5566406 C 42.1145 6.6956406 42.243797 6.7619375 42.341797 6.9609375 C 42.508797 7.2899375 42.214391 7.5383438 42.275391 7.9023438 C 42.304391 8.0903438 42.295156 8.222 42.410156 8.375 C 42.665156 8.71 43.151281 8.629 43.488281 8.375 C 43.684281 8.225 43.629219 7.9909375 43.824219 7.8359375 C 43.979219 7.7109375 44.101922 7.5757656 44.294922 7.6347656 C 44.497922 7.6977656 44.401406 7.9704688 44.566406 8.1054688 C 44.792406 8.2914688 45.033641 8.1322344 45.306641 8.2402344 C 45.502641 8.3182344 45.638344 8.3507187 45.777344 8.5117188 C 45.941344 8.6997188 45.797516 8.9462344 45.978516 9.1152344 C 46.175516 9.2962344 46.392391 9.187 46.650391 9.25 C 47.298391 9.403 47.624578 9.6230625 48.267578 9.7890625 C 48.630578 9.8830625 48.841937 9.9182344 49.210938 9.9902344 C 49.653937 10.078234 49.984516 9.9293589 50.353516 10.193359 C 50.596516 10.368359 50.620172 10.582828 50.826172 10.798828 C 51.145172 11.139828 51.560578 11.119062 51.767578 11.539062 C 51.911578 11.824062 51.798344 12.044656 51.902344 12.347656 C 52.023344 12.691656 52.207047 12.829297 52.373047 13.154297 C 52.519047 13.436297 52.628891 13.588531 52.712891 13.894531 C 52.815891 14.275531 52.749297 14.511297 52.779297 14.904297 C 52.801297 15.219297 52.83275 15.395891 52.84375 15.712891 C 52.86375 16.105891 52.51475 16.507609 52.84375 16.724609 C 53.11275 16.898609 53.334297 16.615891 53.654297 16.587891 C 53.995297 16.558891 54.207297 16.472891 54.529297 16.587891 C 54.894297 16.718891 55.049578 16.939672 55.267578 17.263672 C 55.470254 17.564706 55.552443 17.774143 55.603516 18.132812 C 55.603435 18.133486 55.603596 18.13996 55.603516 18.140625 C 55.636516 18.372625 55.501516 18.528234 55.603516 18.740234 C 55.809516 19.166234 56.342406 18.780641 56.816406 18.806641 C 57.261406 18.833641 57.514937 18.84 57.960938 18.875 C 58.249938 18.896 58.412172 18.950406 58.701172 18.941406 C 59.020172 18.930406 59.231812 18.969641 59.507812 18.806641 C 59.749812 18.665641 59.820469 18.497531 59.980469 18.269531 C 60.099469 18.094531 60.221953 18.005922 60.251953 17.794922 C 60.284953 17.548922 59.904828 17.394406 60.048828 17.191406 C 60.160828 17.036406 60.345531 17.135641 60.519531 17.056641 C 60.660531 16.993641 60.750422 16.964516 60.857422 16.853516 C 61.030422 16.674516 60.848594 16.384 61.058594 16.25 C 61.191594 16.162 61.309891 16.228641 61.462891 16.181641 C 61.720891 16.103641 61.815406 15.943703 62.066406 15.845703 C 62.245406 15.775703 62.345063 15.710938 62.539062 15.710938 C 62.728063 15.710938 62.826766 15.794703 63.009766 15.845703 C 63.218766 15.901703 63.342781 15.918469 63.550781 15.980469 C 63.845781 16.067469 63.989063 16.183 64.289062 16.25 C 64.546063 16.305 64.718844 16.219406 64.964844 16.316406 C 65.174844 16.400406 65.347594 16.444297 65.433594 16.654297 C 65.515594 16.848297 65.339187 16.982406 65.367188 17.191406 C 65.414187 17.566406 65.57625 17.814 65.90625 18 C 66.09425 18.104 66.282312 17.994719 66.445312 18.136719 C 66.705313 18.359719 66.308719 18.736719 66.511719 19.011719 C 66.671719 19.228719 66.896187 19.192656 67.117188 19.347656 C 67.285188 19.466656 67.401531 19.517594 67.519531 19.683594 C 67.680531 19.905594 67.534703 20.158422 67.720703 20.357422 C 68.007703 20.664422 68.388828 20.329828 68.798828 20.423828 C 69.041828 20.480828 69.173297 20.528 69.404297 20.625 C 69.621297 20.716 69.711359 20.860484 69.943359 20.896484 C 70.153359 20.928484 70.273469 20.788125 70.480469 20.828125 C 70.724469 20.874125 70.808531 21.033016 71.019531 21.166016 C 71.308531 21.348016 71.433766 21.536719 71.759766 21.636719 C 71.988766 21.704719 72.141234 21.785125 72.365234 21.703125 C 72.575234 21.626125 72.717578 21.515781 72.767578 21.300781 C 72.849578 20.973781 72.515422 20.807953 72.232422 20.626953 C 72.021422 20.492953 71.782906 20.621781 71.628906 20.425781 C 71.480906 20.238781 71.592547 20.055312 71.560547 19.820312 C 71.538547 19.634313 71.594141 19.502656 71.494141 19.347656 C 71.340141 19.119656 71.025313 19.326484 70.820312 19.146484 C 70.663313 19.005484 70.673781 18.847828 70.550781 18.673828 C 70.432781 18.506828 70.391891 18.371484 70.212891 18.271484 C 69.962891 18.127484 69.670656 18.482484 69.472656 18.271484 C 69.310656 18.097484 69.46225 17.897016 69.40625 17.666016 C 69.28225 17.163016 69.114422 16.871484 68.732422 16.521484 C 68.525422 16.328484 68.323906 16.325188 68.128906 16.117188 C 67.958906 15.937188 67.909016 15.795125 67.791016 15.578125 C 67.638016 15.299125 67.518078 15.147891 67.455078 14.837891 C 67.396078 14.554891 67.318078 14.353609 67.455078 14.099609 C 67.578078 13.867609 67.854187 13.918312 67.992188 13.695312 C 68.156188 13.424312 68.176547 13.179719 68.060547 12.886719 C 67.942547 12.593719 67.726078 12.509609 67.455078 12.349609 C 67.353078 12.288609 67.291547 12.264891 67.185547 12.212891 C 66.974547 12.107891 66.853484 12.054359 66.646484 11.943359 C 66.325484 11.772359 66.050844 11.766703 65.839844 11.470703 C 65.720844 11.310703 65.711719 11.186 65.636719 11 C 65.490719 10.639 65.494828 10.395594 65.298828 10.058594 C 65.115828 9.7335933 64.968359 9.5684062 64.693359 9.3164062 C 64.457359 9.1014063 64.316484 8.9657031 64.021484 8.8457031 C 63.771484 8.7447031 63.590656 8.8249375 63.347656 8.7109375 C 63.011656 8.5519375 62.962828 8.3001094 62.673828 8.0371094 C 62.358828 7.6701094 62.229234 7.4147031 61.865234 7.0957031 C 61.667234 6.9217031 61.574125 6.7814062 61.328125 6.6914062 C 60.980125 6.5644063 60.754766 6.7617656 60.384766 6.7597656 C 59.883766 6.7577656 59.574469 6.805 59.105469 6.625 C 58.854469 6.527 58.741953 6.4131094 58.501953 6.2871094 C 58.063953 6.0581094 57.801469 5.9590469 57.355469 5.7480469 L 56.683594 5.4824219 C 56.682792 5.4817081 56.682439 5.4811817 56.681641 5.4804688 C 56.445425 5.2694039 56.353196 5.0918577 56.078125 4.9433594 C 55.724125 4.7523594 55.465406 4.8002344 55.066406 4.7402344 C 54.859406 4.7092344 54.738297 4.7108281 54.529297 4.6738281 C 54.070297 4.5938281 53.775766 4.5898906 53.384766 4.3378906 C 53.244766 4.2458906 53.192828 4.1533594 53.048828 4.0683594 C 52.835828 3.9413594 52.668359 3.9732344 52.443359 3.8652344 C 52.187359 3.7422344 52.106844 3.5558906 51.839844 3.4628906 C 51.566844 3.3648906 51.384656 3.3515312 51.097656 3.3945312 C 50.818656 3.4355312 50.628781 3.4670625 50.425781 3.6640625 C 50.169781 3.9140625 50.409297 4.2880156 50.154297 4.5410156 C 49.988297 4.7060156 49.840188 4.7315469 49.617188 4.8105469 C 49.340187 4.9085469 49.136953 4.8103125 48.876953 4.9453125 C 48.562953 5.1073125 48.582531 5.4531406 48.269531 5.6191406 C 48.123531 5.6951406 47.984188 5.6369531 47.867188 5.7519531 C 47.680188 5.9379531 48.005188 6.2027813 47.867188 6.4257812 C 47.779187 6.5687813 47.679297 6.6183125 47.529297 6.6953125 C 47.154297 6.8863125 46.828125 6.8179063 46.453125 6.6289062 C 46.154125 6.4779063 46.037656 6.3003906 45.847656 6.0253906 C 45.668656 5.7623906 45.618766 5.5812031 45.509766 5.2832031 C 45.410766 5.0012031 45.371547 4.8349688 45.310547 4.5429688 C 45.217547 4.1029688 45.259828 3.8404375 45.173828 3.3984375 C 45.110828 3.0804375 45.073656 2.8988437 44.972656 2.5898438 C 44.868656 2.2648437 44.894719 2.00325 44.636719 1.78125 C 44.371719 1.55325 44.079719 1.7240781 43.761719 1.5800781 C 43.501719 1.4610781 43.42225 1.2707344 43.15625 1.1777344 C 42.88225 1.0797344 42.696062 1.178375 42.414062 1.109375 C 42.138062 1.043375 42.018187 0.78789063 41.742188 0.83789062 z "
     id="path4452" /><path
     style="fill:none;stroke:#000000;stroke-opacity:1;stroke-width:0.1;stroke-miterlimit:4;stroke-dasharray:none"
     inkscape:connector-curvature="0"
     id="path4454"
     d="m 119.82799,34.494853 c 0.33,-0.312 0.598,-0.926 0.2,-1.145 -0.138,-0.077 -0.244,-0.064 -0.402,-0.066 -0.242,-0.004 -0.41,-0.006 -0.607,0.135 -0.259,0.182 -0.329,0.423 -0.335,0.74 -0.008,0.215 -0.01,0.377 0.135,0.537 0.267,0.301 0.717,0.074 1.009,-0.201"
     sodipodi:nodetypes="ccccccc" /><path
     style="fill:none;stroke:#000000;stroke-opacity:1;stroke-width:0.1;stroke-miterlimit:4;stroke-dasharray:none"
     inkscape:connector-curvature="0"
     id="path4456"
     d="m 116.25999,37.119853 c 0.228,0.289 0.578,0.117 0.943,0.067 0.329,-0.046 0.507,-0.128 0.807,-0.269 0.277,-0.13 0.511,-0.146 0.674,-0.404 0.209,-0.334 0.11,-0.658 -0.067,-1.01 -0.109,-0.217 -0.195,-0.35 -0.404,-0.471 -0.274,-0.16 -0.512,-0.182 -0.808,-0.068 -0.227,0.088 -0.288,0.248 -0.473,0.404 -0.312,0.266 -0.664,0.289 -0.806,0.673 -0.103,0.27 -0.074,0.462 0,0.74 0.035,0.139 0.047,0.227 0.134,0.338"
     sodipodi:nodetypes="ccccccccccc" /><path
     style="fill:none;stroke:#000000;stroke-opacity:1;stroke-width:0.1;stroke-miterlimit:4;stroke-dasharray:none"
     inkscape:connector-curvature="0"
     id="path4458"
     d="m 117.33799,37.994853 c -0.296,0.113 -0.761,0.263 -0.607,0.539 0.117,0.211 0.365,0.164 0.607,0.135 0.197,-0.024 0.346,-0.045 0.469,-0.202 0.131,-0.167 0.217,-0.39 0.069,-0.538 -0.151,-0.151 -0.341,-0.009 -0.538,0.066"
     sodipodi:nodetypes="ccccsc" /><path
     style="fill:none;stroke:#000000;stroke-opacity:1;stroke-width:0.1;stroke-miterlimit:4;stroke-dasharray:none"
     inkscape:connector-curvature="0"
     id="path4910"
     d="m 67.384987,5.0088525 c 0.357,0.024 0.58,-0.067 0.875,-0.271 0.184,-0.124 0.362,-0.185 0.405,-0.402 0.06,-0.311 -0.258,-0.462 -0.539,-0.605 -0.305,-0.158 -0.56,-0.197 -0.875,-0.068 -0.276,0.112 -0.455,0.254 -0.538,0.539 -0.067,0.228 -0.08,0.418 0.066,0.605 0.154,0.196 0.358,0.184 0.606,0.202"
     sodipodi:nodetypes="cccccccc" /><path
     style="fill:none;stroke:#000000;stroke-opacity:1;stroke-width:0.1;stroke-miterlimit:4;stroke-dasharray:none"
     inkscape:connector-curvature="0"
     id="path4912"
     d="m 73.174987,5.8158525 c 0.185,0.01 0.343,0.066 0.47,-0.068 0.147,-0.15 0.106,-0.355 0,-0.537 -0.115,-0.205 -0.304,-0.258 -0.537,-0.27 -0.19,-0.01 -0.343,-0.006 -0.473,0.135 -0.142,0.156 -0.167,0.352 -0.066,0.539 0.119,0.218 0.357,0.188 0.606,0.201"
     sodipodi:nodetypes="ccccccc" /><path
     style="fill:none;stroke:#000000;stroke-opacity:1;stroke-width:0.1;stroke-miterlimit:4;stroke-dasharray:none"
     inkscape:connector-curvature="0"
     id="path4914"
     d="m 74.656987,6.6908525 c 0.167,0.228 0.442,0.104 0.672,0.27 0.289,0.21 0.203,0.622 0.539,0.74 0.197,0.07 0.36,0.111 0.539,0 0.267,-0.168 0.21,-0.527 0.065,-0.807 -0.12,-0.234 -0.334,-0.24 -0.539,-0.404 -0.244,-0.199 -0.319,-0.401 -0.604,-0.539 -0.287,-0.139 -0.659,-0.417 -0.808,-0.135 -0.073,0.14 -0.019,0.248 0,0.404 0.025,0.19 0.021,0.319 0.136,0.471"
     sodipodi:nodetypes="cccccccccc" /><path
     style="fill:none;stroke:#000000;stroke-opacity:1;stroke-width:0.1;stroke-miterlimit:4;stroke-dasharray:none"
     inkscape:connector-curvature="0"
     id="path4916"
     d="m 67.250987,11.201853 c 0.128,0.287 0.705,0.297 0.808,0 0.063,-0.181 0.002,-0.339 -0.135,-0.471 -0.119,-0.116 -0.242,-0.171 -0.405,-0.136 -0.251,0.057 -0.375,0.372 -0.268,0.607"
     sodipodi:nodetypes="ccccc" /><path
     style="fill:none;stroke:#000000;stroke-opacity:1;stroke-width:0.1;stroke-miterlimit:4;stroke-dasharray:none"
     inkscape:connector-curvature="0"
     id="path4918"
     d="m 68.528987,11.941853 c 0.117,0.066 0.238,0.023 0.337,-0.067 0.116,-0.107 0.168,-0.279 0.067,-0.404 -0.117,-0.145 -0.374,-0.09 -0.471,0.068 -0.084,0.137 -0.071,0.325 0.067,0.403"
     sodipodi:nodetypes="ccccc" /><path
     style="fill:none;stroke:#000000;stroke-opacity:1;stroke-width:0.1;stroke-miterlimit:4;stroke-dasharray:none"
     inkscape:connector-curvature="0"
     id="path4920"
     d="m 73.578987,18.270853 c 0.131,0.021 0.246,0.029 0.338,-0.068 0.104,-0.115 0.046,-0.254 0,-0.404 -0.084,-0.267 -0.288,-0.592 -0.539,-0.471 -0.181,0.086 -0.223,0.271 -0.203,0.471 0.022,0.241 0.166,0.432 0.404,0.472"
     sodipodi:nodetypes="cccccc" /><path
     style="fill:none;stroke:#000000;stroke-opacity:1;stroke-width:0.1;stroke-miterlimit:4;stroke-dasharray:none"
     inkscape:connector-curvature="0"
     id="path4922"
     d="m 73.578987,19.751853 c 0.08,-0.234 -0.119,-0.422 -0.337,-0.539 -0.143,-0.075 -0.251,-0.023 -0.403,-0.066 -0.137,-0.039 -0.198,-0.162 -0.337,-0.135 -0.221,0.041 -0.224,0.314 -0.203,0.537 0.015,0.142 0.043,0.23 0.136,0.338 0.175,0.202 0.41,0.189 0.673,0.135 0.207,-0.044 0.402,-0.071 0.471,-0.27"
     sodipodi:nodetypes="cccccccc" /><path
     style="fill:none;stroke:#000000;stroke-opacity:1;stroke-width:0.1;stroke-miterlimit:4;stroke-dasharray:none"
     inkscape:connector-curvature="0"
     id="path4924"
     d="m 73.847987,20.895853 c 0.233,-0.065 0.478,-0.24 0.405,-0.472 -0.069,-0.214 -0.315,-0.21 -0.54,-0.202 -0.166,0.006 -0.308,-10e-4 -0.403,0.135 -0.09,0.13 -0.081,0.27 0,0.404 0.111,0.186 0.33,0.194 0.538,0.135"
     sodipodi:nodetypes="cccccc" /><path
     style="fill:none;stroke:#000000;stroke-opacity:1;stroke-width:0.1;stroke-miterlimit:4;stroke-dasharray:none"
     inkscape:connector-curvature="0"
     id="path4926"
     d="m 76.808987,18.876853 c 0.109,-0.019 0.188,0.004 0.271,-0.068 0.138,-0.119 0.101,-0.316 0,-0.471 -0.144,-0.221 -0.465,-0.229 -0.672,-0.066 -0.192,0.148 -0.304,0.43 -0.136,0.605 0.145,0.15 0.33,0.033 0.537,0"
     sodipodi:nodetypes="cccccc" /><path
     style="fill:none;stroke:#000000;stroke-opacity:1;stroke-width:0.1;stroke-miterlimit:4;stroke-dasharray:none"
     inkscape:connector-curvature="0"
     id="path4928"
     d="m 76.877987,10.393853 c 0.14,-0.273 0.265,-0.4340005 0.269,-0.7400005 0.004,-0.275 0.009,-0.498 -0.203,-0.673 -0.165,-0.14 -0.334,-0.065 -0.536,-0.136 -0.334,-0.112 -0.472,-0.504 -0.81,-0.404 -0.195,0.059 -0.318,0.15 -0.404,0.337 -0.122,0.274 0.212,0.441 0.203,0.74 -0.007,0.217 0.027,0.397 -0.135,0.5400005 -0.159,0.139 -0.348,-0.025 -0.539,0.066 -0.271,0.129 -0.246,0.41 -0.47,0.606 -0.188,0.163 -0.301,0.27 -0.54,0.336 -0.227,0.063 -0.381,0.077 -0.605,0 -0.18,-0.062 -0.217,-0.241 -0.403,-0.27 -0.269,-0.039 -0.348,0.261 -0.606,0.337 -0.329,0.097 -0.537,0.029 -0.877,0 -0.315,-0.027 -0.488,-0.16 -0.806,-0.135 -0.216,0.018 -0.385,-0.019 -0.538,0.135 -0.153,0.152 -0.167,0.324 -0.136,0.539 0.041,0.259 0.194,0.38 0.403,0.539 0.342,0.258 0.674,0.062 1.076,0.201 0.246,0.084 0.361,0.191 0.608,0.269 0.329,0.104 0.528,0.144 0.875,0.135 0.489,-0.011 0.754,-0.161 1.213,-0.336 0.295,-0.114 0.466,-0.173 0.74,-0.337 0.286,-0.175 0.371,-0.389 0.672,-0.538 0.246,-0.123 0.436,-0.065 0.674,-0.202 0.177,-0.103 0.26,-0.189 0.404,-0.337 0.224,-0.228 0.323,-0.386 0.471,-0.672"
     sodipodi:nodetypes="cccccccccccccccccccccccccccc" /><path
     style="fill:none;stroke:#000000;stroke-opacity:1;stroke-width:0.1;stroke-miterlimit:4;stroke-dasharray:none"
     inkscape:connector-curvature="0"
     id="path4932"
     d="m 77.752987,7.9028525 c 0,0 -0.313,0.553 -0.337,0.942 -0.024,0.375 -0.143,0.791 0.202,0.943 0.244,0.107 0.465,0.033 0.673,-0.135 0.327,-0.268 0.22,-0.686 0.066,-1.078 -0.126,-0.327 -0.29,-0.509 -0.604,-0.672"
     sodipodi:nodetypes="cccccc" /><path
     style="fill:none;stroke:#000000;stroke-opacity:1;stroke-width:0.1;stroke-miterlimit:4;stroke-dasharray:none"
     inkscape:connector-curvature="0"
     id="path4934"
     d="m 74.049987,22.376853 c -0.253,0.059 -0.54,0.221 -0.471,0.471 0.069,0.26 0.414,0.201 0.674,0.136 0.217,-0.056 0.453,-0.112 0.47,-0.337 0.024,-0.282 -0.397,-0.335 -0.673,-0.27"
     sodipodi:nodetypes="ccccc" /><path
     style="fill:none;stroke:#000000;stroke-opacity:1;stroke-width:0.1;stroke-miterlimit:4;stroke-dasharray:none"
     inkscape:connector-curvature="0"
     id="path4936"
     d="m 75.531987,21.636853 c -0.228,-0.01 -0.432,0.115 -0.474,0.336 -0.037,0.208 0.101,0.344 0.271,0.472 0.112,0.085 0.199,0.161 0.337,0.135 0.145,-0.027 0.212,-0.132 0.268,-0.269 0.117,-0.285 -0.097,-0.662 -0.402,-0.674"
     sodipodi:nodetypes="cccccc" /><path
     style="fill:none;stroke:#000000;stroke-opacity:1;stroke-width:0.1;stroke-miterlimit:4;stroke-dasharray:none"
     inkscape:connector-curvature="0"
     id="path4938"
     d="m 77.280987,23.116853 c -0.265,-0.006 -0.529,-0.154 -0.674,0.068 -0.1,0.154 0,0.287 0,0.471 l -0.269,0.067 c 0.263,0.157 0.368,0.433 0.673,0.404 0.211,-0.021 0.319,-0.123 0.471,-0.27 0.211,-0.204 0.53,-0.452 0.339,-0.673 -0.14,-0.159 -0.327,-0.061 -0.54,-0.067"
     sodipodi:nodetypes="cccccccc" /><path
     style="fill:none;stroke:#000000;stroke-opacity:1;stroke-width:0.1;stroke-miterlimit:4;stroke-dasharray:none"
     inkscape:connector-curvature="0"
     id="path4940"
     d="m 82.599987,12.614853 c -0.17,-0.174 -0.336,-0.203 -0.471,-0.402 -0.142,-0.207 -0.046,-0.412 -0.201,-0.606 -0.171,-0.21 -0.369,-0.21 -0.606,-0.337 -0.208,-0.109 -0.341,-0.393 -0.539,-0.27 -0.202,0.123 0.094,0.389 0,0.606 -0.089,0.204 -0.333,0.192 -0.404,0.403 -0.049,0.15 -0.06,0.258 0,0.404 0.084,0.209 0.323,0.166 0.47,0.337 0.155,0.177 0.203,0.313 0.271,0.538 0.075,0.252 -0.071,0.449 0.067,0.674 0.193,0.311 0.511,0.346 0.875,0.336 0.343,-0.009 0.603,-0.064 0.81,-0.336 0.221,-0.295 0.219,-0.607 0.066,-0.943 -0.088,-0.187 -0.195,-0.256 -0.338,-0.404"
     sodipodi:nodetypes="ccccccccccccccc" /><path
     style="fill:none;stroke:#000000;stroke-opacity:1;stroke-width:0.1;stroke-miterlimit:4;stroke-dasharray:none"
     inkscape:connector-curvature="0"
     id="path4942"
     d="m 85.695987,14.702853 c -0.191,-0.147 -0.416,0.016 -0.605,-0.135 -0.184,-0.146 -0.131,-0.348 -0.27,-0.538 -0.132,-0.181 -0.192,-0.337 -0.404,-0.404 -0.23,-0.073 -0.467,-0.063 -0.605,0.134 -0.138,0.195 -0.045,0.397 0.067,0.606 0.087,0.163 0.252,0.171 0.336,0.337 0.096,0.188 -0.031,0.352 0.067,0.538 0.144,0.271 0.375,0.336 0.674,0.405 0.392,0.088 0.869,0.174 1.009,-0.203 0.108,-0.287 -0.025,-0.552 -0.269,-0.74"
     sodipodi:nodetypes="ccccccccccc" /><path
     style="fill:none;stroke:#000000;stroke-opacity:1;stroke-width:0.1;stroke-miterlimit:4;stroke-dasharray:none"
     inkscape:connector-curvature="0"
     id="path4944"
     d="m 85.493987,16.655853 c -0.186,-0.115 -0.348,-0.24 -0.538,-0.135 -0.213,0.114 -0.061,0.375 -0.135,0.605 -0.08,0.245 -0.368,0.365 -0.27,0.604 0.089,0.218 0.308,0.313 0.539,0.271 0.237,-0.045 0.23,-0.303 0.403,-0.473 0.146,-0.143 0.355,-0.137 0.404,-0.336 0.062,-0.255 -0.18,-0.399 -0.403,-0.536"
     sodipodi:nodetypes="cccccccc" /><path
     style="fill:none;stroke:#000000;stroke-opacity:1;stroke-width:0.1;stroke-miterlimit:4;stroke-dasharray:none"
     inkscape:connector-curvature="0"
     id="path4946"
     d="m 89.060987,17.462853 c 0.149,-0.135 0.235,-0.273 0.203,-0.471 -0.039,-0.24 -0.293,-0.242 -0.471,-0.404 -0.246,-0.227 -0.354,-0.386 -0.607,-0.606 -0.223,-0.197 -0.351,-0.312 -0.604,-0.471 -0.248,-0.157 -0.392,-0.417 -0.672,-0.337 -0.329,0.092 -0.374,0.469 -0.338,0.808 0.054,0.481 0.579,0.489 0.942,0.809 0.238,0.208 0.323,0.399 0.606,0.538 0.332,0.163 0.668,0.384 0.941,0.134"
     sodipodi:nodetypes="cccccccccc" /><path
     style="fill:none;stroke:#000000;stroke-opacity:1;stroke-width:0.1;stroke-miterlimit:4;stroke-dasharray:none"
     inkscape:connector-curvature="0"
     id="path4948"
     d="m 91.621987,19.212853 c 0.083,-0.307 -0.218,-0.446 -0.338,-0.74 -0.115,-0.285 -0.004,-0.584 -0.269,-0.741 -0.162,-0.094 -0.303,-0.14 -0.473,-0.066 -0.251,0.108 -0.197,0.397 -0.202,0.673 -0.004,0.332 0.07,0.543 0.269,0.809 0.193,0.255 0.371,0.575 0.675,0.471 0.193,-0.068 0.283,-0.207 0.338,-0.406"
     sodipodi:nodetypes="cccccccc" /><path
     style="fill:none;stroke:#000000;stroke-opacity:1;stroke-width:0.1;stroke-miterlimit:4;stroke-dasharray:none"
     inkscape:connector-curvature="0"
     id="path4950"
     d="m 89.667987,19.347853 c -0.244,-0.053 -0.38,-0.095 -0.607,-0.201 -0.256,-0.123 -0.446,-0.641 -0.603,-0.404 -0.088,0.131 0.014,0.248 0,0.404 -0.024,0.215 -0.168,0.324 -0.137,0.538 0.058,0.369 0.389,0.483 0.739,0.604 0.399,0.141 0.726,0.16 1.08,-0.066 0.156,-0.1 0.287,-0.157 0.335,-0.336 0.05,-0.185 -0.002,-0.334 -0.135,-0.473 -0.181,-0.188 -0.414,-0.011 -0.672,-0.066"
     sodipodi:nodetypes="cccccccccc" /><path
     style="fill:none;stroke:#000000;stroke-opacity:1;stroke-width:0.1;stroke-miterlimit:4;stroke-dasharray:none"
     inkscape:connector-curvature="0"
     id="path4952"
     d="m 88.925987,24.060853 c 0.081,0.021 0.047,-0.016 -0.021,-0.079 l -0.112,0.013 c 0.053,0.024 0.078,0.05 0.133,0.066"
     sodipodi:nodetypes="cccc" /><path
     style="fill:none;stroke:#000000;stroke-opacity:1;stroke-width:0.1;stroke-miterlimit:4;stroke-dasharray:none"
     inkscape:connector-curvature="0"
     id="path4954"
     d="m 89.332987,23.520853 c -0.17,-0.203 -0.595,-0.184 -0.674,0.066 -0.039,0.124 0.143,0.292 0.246,0.394 l 0.493,-0.056 c -0.026,-0.157 0.035,-0.281 -0.065,-0.404"
     sodipodi:nodetypes="ccccc" /><path
     style="fill:none;stroke:#000000;stroke-opacity:1;stroke-width:0.1;stroke-miterlimit:4;stroke-dasharray:none"
     inkscape:connector-curvature="0"
     id="path4956"
     d="m 92.697987,21.569853 c -0.221,-0.042 -0.345,-0.092 -0.539,-0.203 -0.242,-0.137 -0.313,-0.636 -0.537,-0.471 -0.138,0.098 -0.112,0.24 -0.138,0.404 -0.041,0.291 -0.006,0.482 0.138,0.74 0.06,0.115 0.088,0.201 0.201,0.27 0.181,0.107 0.33,-0.037 0.536,-0.068 0.291,-0.043 0.531,0.07 0.74,-0.135 0.162,-0.156 0.324,-0.35 0.203,-0.537 -0.127,-0.199 -0.372,0.043 -0.604,0"
     sodipodi:nodetypes="cccccccccc" /><path
     style="fill:none;stroke:#000000;stroke-opacity:1;stroke-width:0.1;stroke-miterlimit:4;stroke-dasharray:none"
     inkscape:connector-curvature="0"
     id="path4958"
     d="m 88.859987,25.540853 c -0.147,-0.035 -0.194,-0.262 -0.336,-0.202 -0.146,0.063 -0.096,0.247 -0.065,0.404 0.041,0.239 0.16,0.471 0.401,0.472 0.205,0 0.312,-0.154 0.404,-0.337 0.073,-0.142 0.168,-0.279 0.069,-0.403 -0.118,-0.147 -0.291,0.109 -0.473,0.066"
     sodipodi:nodetypes="ccccccc" /><path
     style="fill:none;stroke:#000000;stroke-opacity:1;stroke-width:0.1;stroke-miterlimit:4;stroke-dasharray:none"
     inkscape:connector-curvature="0"
     id="path5142"
     d="m 99.900987,31.666853 c 0.214003,-0.222 0.270003,-0.434 0.270003,-0.739 0,-0.217 0.014,-0.383 -0.134,-0.539 -0.220003,-0.228 -0.535003,-0.157 -0.809003,0 -0.265,0.152 -0.339,0.373 -0.404,0.672 -0.072,0.339 -0.146,0.674 0.135,0.877 0.309,0.222 0.678,0.005 0.942,-0.271"
     sodipodi:nodetypes="csccccc" /><path
     style="fill:none;stroke:#000000;stroke-opacity:1;stroke-width:0.1;stroke-miterlimit:4;stroke-dasharray:none"
     inkscape:connector-curvature="0"
     id="path5144"
     d="m 99.765987,32.272853 c -0.25,0.101 -0.476,0.373 -0.336,0.605 0.154,0.257 0.519,-0.002 0.740003,-0.202 0.098,-0.087 0.192,-0.139 0.202,-0.269 0.018,-0.241 -0.381003,-0.223 -0.606003,-0.134"
     sodipodi:nodetypes="ccccc" /><path
     style="fill:none;stroke:#000000;stroke-opacity:1;stroke-width:0.1;stroke-miterlimit:4;stroke-dasharray:none"
     inkscape:connector-curvature="0"
     id="path5146"
     d="m 99.900987,33.619853 c -0.052,0.311 0.634003,0.262 0.810003,0 0.115,-0.176 0.202,-0.487 0,-0.539 -0.151,-0.036 -0.209,0.119 -0.338,0.203 -0.192,0.121 -0.436003,0.113 -0.472003,0.336"
     sodipodi:nodetypes="ccccc" /><path
     style="fill:none;stroke:#000000;stroke-opacity:1;stroke-width:0.1;stroke-miterlimit:4;stroke-dasharray:none"
     inkscape:connector-curvature="0"
     id="path5148"
     d="m 100.23799,74.953853 c -0.21,0.086 -0.271003,0.235 -0.473003,0.336 -0.267,0.135 -0.447,0.15 -0.74,0.203 -0.284,0.051 -0.479,0.193 -0.739,0.066 -0.256,-0.125 -0.439,-0.324 -0.405,-0.605 0.03,-0.239 0.298,-0.254 0.405,-0.471 0.183,-0.378 0.303,-0.789 0,-1.077 -0.147,-0.138 -0.273,-0.214 -0.473,-0.202 -0.296,0.018 -0.314,0.342 -0.54,0.537 -0.224,0.199 -0.375,0.663 -0.603,0.473 -0.184,-0.151 -0.109,-0.396 0,-0.605 0.091,-0.184 0.29,-0.166 0.402,-0.338 0.147,-0.223 0.118,-0.405 0.135,-0.672 0.017,-0.289 -0.115,-0.455 -0.069,-0.741 0.039,-0.222 0.192,-0.314 0.203,-0.538 0.008,-0.16 0.005,-0.262 -0.068,-0.404 -0.093,-0.182 -0.245,-0.205 -0.402,-0.337 -0.186,-0.155 -0.24,-0.333 -0.473,-0.403 -0.226,-0.068 -0.394,-0.044 -0.604,0.067 -0.215,0.113 -0.276,0.266 -0.404,0.471 -0.148,0.239 -0.189,0.401 -0.268,0.673 -0.088,0.308 -0.263,0.516 -0.135,0.809 0.158,0.365 1.031,0.014 0.942,0.404 -0.058,0.255 -0.387,0.189 -0.54,0.403 -0.175,0.243 -0.159,0.444 -0.201,0.739 -0.05,0.34 0.014,0.535 0,0.877 -0.013,0.342 0.066,0.559 -0.066,0.875 -0.103,0.242 -0.241,0.332 -0.405,0.538 -0.298,0.38 -0.498,0.571 -0.808,0.942 -0.238,0.286 -0.317,0.504 -0.606,0.74 -0.418,0.344 -0.812,0.265 -1.277,0.539 -0.277,0.162 -0.463,0.23 -0.676,0.471 -0.231,0.264 -0.504,0.471 -0.401,0.809 0.084,0.287 0.381,0.272 0.604,0.471 0.223,0.197 0.536,0.242 0.538,0.539 0.001,0.211 -0.161,0.289 -0.268,0.471 -0.127,0.213 -0.17,0.357 -0.339,0.539 -0.229,0.252 -0.446,0.291 -0.739,0.472 -0.261,0.16 -0.552,0.122 -0.672,0.403 -0.118,0.27 -0.063,0.521 0.135,0.74 0.278,0.314 0.66,0.061 1.076,0 0.377,-0.055 0.599,-0.1 0.94,-0.269 0.354,-0.175 0.515,-0.345 0.81,-0.606 0.223,-0.196 0.345,-0.313 0.539,-0.538 0.17,-0.199 0.168,-0.422 0.401,-0.539 0.237,-0.116 0.416,0.048 0.674,0 0.277,-0.052 0.54,-0.021 0.676,-0.27 0.099,-0.185 -0.069,-0.339 0,-0.538 0.076,-0.229 0.234,-0.297 0.402,-0.471 0.22,-0.229 0.413,-0.289 0.606,-0.539 0.229,-0.299 0.097,-0.656 0.404,-0.874 0.321,-0.229 0.614,-0.056 1.011,-0.068 0.42,-0.015 0.702,0.19 1.075,0 0.184,-0.093 0.271,-0.181 0.404,-0.337 0.204,-0.242 0.091,-0.539 0.335,-0.74 0.213,-0.174 0.472003,-0.019 0.676003,-0.202 0.189,-0.173 0.131,-0.388 0.269,-0.606 0.149,-0.236 0.369,-0.279 0.471,-0.538 0.078,-0.196 0.066,-0.327 0.067,-0.538 0.002,-0.238 0.1,-0.439 -0.067,-0.607 -0.205,-0.205 -0.472,-0.043 -0.739,0.066"
     sodipodi:nodetypes="ccccccccccccccccccccccccccccccccccccccccccccccccccccccccccccc" /><path
     style="fill:none;stroke:#000000;stroke-opacity:1;stroke-width:0.1;stroke-miterlimit:4;stroke-dasharray:none"
     inkscape:connector-curvature="0"
     id="path5150"
     d="m 68.865987,94.408853 c 0.324,0.188 0.541,-0.232 0.875,-0.403 0.239,-0.124 0.558,-0.069 0.604,-0.337 0.031,-0.163 -0.022,-0.279 -0.134,-0.404 -0.209,-0.235 -0.554,-0.188 -0.807,0 -0.169,0.127 -0.126,0.316 -0.27,0.473 -0.169,0.182 -0.549,0.088 -0.54,0.336 0.01,0.167 0.127,0.252 0.272,0.335"
     sodipodi:nodetypes="cccccccc" /><path
     style="fill:none;stroke:#000000;stroke-opacity:1;stroke-width:0.1;stroke-miterlimit:4;stroke-dasharray:none"
     inkscape:connector-curvature="0"
     id="path5152"
     d="m 89.398987,81.551853 c -0.254,-0.051 -0.353,0.212 -0.605,0.27 -0.283,0.063 -0.664,0.277 -0.741,0 -0.035,-0.129 0.052,-0.203 0.068,-0.338 0.03,-0.233 0.188,-0.463 0,-0.604 -0.207,-0.156 -0.368,0.167 -0.606,0.269 -0.26,0.109 -0.438,0.109 -0.673,0.27 -0.261,0.178 -0.323,0.375 -0.539,0.606 -0.253,0.271 -0.383,0.44 -0.673,0.673 -0.222,0.178 -0.369,0.248 -0.607,0.404 -0.569,0.375 -1.01,0.444 -1.479,0.942 -0.246,0.259 -0.229,0.563 -0.538,0.741 -0.254,0.146 -0.457,0.058 -0.741,0.133 -0.298,0.08 -0.493,0.088 -0.741,0.27 -0.241,0.178 -0.222,0.44 -0.471,0.606 -0.207,0.139 -0.384,0.088 -0.604,0.202 -0.171,0.086 -0.24,0.175 -0.404,0.27 -0.297,0.169 -0.483,0.232 -0.81,0.335 -0.357,0.115 -0.584,0.09 -0.941,0.202 -0.27,0.086 -0.422,0.142 -0.673,0.27 -0.37,0.189 -0.517,0.398 -0.875,0.606 -0.256,0.146 -0.394,0.252 -0.675,0.337 -0.377,0.114 -0.625,-0.025 -1.01,0.067 -0.512,0.123 -0.862,0.208 -1.211,0.605 -0.231,0.265 -0.097,0.631 -0.404,0.808 -0.229,0.133 -0.426,-0.025 -0.674,0.066 -0.278,0.107 -0.355,0.307 -0.604,0.473 -0.529,0.35 -1.256,0.079 -1.481,0.673 -0.074,0.197 0.051,0.363 -0.065,0.538 -0.208,0.305 -0.687,-0.195 -0.944,0.067 -0.139,0.144 -0.127,0.286 -0.203,0.472 -0.052,0.131 -0.181,0.203 -0.134,0.338 0.058,0.154 0.243,0.1 0.404,0.134 0.308,0.065 0.537,-0.163 0.808,0 0.127,0.076 0.171,0.159 0.27,0.269 0.111,0.125 0.175,0.199 0.271,0.338 0.119,0.174 0.113,0.327 0.269,0.471 0.367,0.338 0.791,0.047 1.277,-0.068 0.356,-0.084 0.542,-0.189 0.877,-0.336 0.375,-0.165 0.581,-0.271 0.942,-0.471 0.35,-0.195 0.521,-0.353 0.875,-0.539 0.405,-0.215 0.714,-0.191 1.078,-0.472 0.322,-0.25 0.401,-0.499 0.672,-0.808 0.304,-0.35 0.438,-0.593 0.808,-0.875 0.244,-0.187 0.436,-0.211 0.674,-0.404 0.172,-0.141 0.222,-0.276 0.404,-0.404 0.397,-0.276 0.766,-0.078 1.211,-0.269 0.248,-0.106 0.403,-0.159 0.606,-0.337 0.153,-0.135 0.172,-0.281 0.336,-0.404 0.422,-0.313 0.835,0.114 1.347,0 0.243,-0.053 0.413,-0.045 0.607,-0.201 0.244,-0.2 0.153,-0.479 0.335,-0.74 0.224,-0.321 0.397,-0.484 0.739,-0.674 0.358,-0.197 0.701,-0.004 1.013,-0.269 0.171,-0.147 0.18,-0.308 0.335,-0.472 0.221,-0.232 0.389,-0.32 0.675,-0.473 0.248,-0.131 0.406,-0.176 0.672,-0.268 0.258,-0.09 0.449,-0.044 0.673,-0.201 0.215,-0.153 0.203,-0.371 0.404,-0.54 0.161,-0.136 0.305,-0.14 0.471,-0.269 0.265,-0.208 0.265,-0.479 0.537,-0.674 0.233,-0.163 0.475,-0.069 0.675,-0.269 0.32,-0.317 0.445,-0.821 0.134,-1.145 -0.111,-0.11 -0.191,-0.172 -0.341,-0.201"
     sodipodi:nodetypes="cccccccccccccccccccccccccccccccccccccccccccccccccccccccccccccccc" /><g
     id="Layer_7"
     transform="translate(-505.70001,-161.43915)"
     style="stroke:#000000;stroke-opacity:1;fill:none;stroke-width:0.1;stroke-miterlimit:4;stroke-dasharray:none" /></svg>