<?xml version="1.0" encoding="UTF-8" standalone="no"?>
<!-- Created with Inkscape (http://www.inkscape.org/) -->

<svg
   xmlns:dc="http://purl.org/dc/elements/1.1/"
   xmlns:cc="http://creativecommons.org/ns#"
   xmlns:rdf="http://www.w3.org/1999/02/22-rdf-syntax-ns#"
   xmlns:svg="http://www.w3.org/2000/svg"
   xmlns="http://www.w3.org/2000/svg"
   xmlns:sodipodi="http://sodipodi.sourceforge.net/DTD/sodipodi-0.dtd"
   xmlns:inkscape="http://www.inkscape.org/namespaces/inkscape"
   width="10"
   height="16"
   viewBox="0 0 10 16"
   id="svg2"
   version="1.1"
   inkscape:version="0.91 r13725"
   sodipodi:docname="ok.svg">
  <defs
     id="defs4" />
  <sodipodi:namedview
     id="base"
     pagecolor="#ffffff"
     bordercolor="#666666"
     borderopacity="1.0"
     inkscape:pageopacity="0.0"
     inkscape:pageshadow="2"
     inkscape:zoom="23.423728"
     inkscape:cx="1.9424749"
     inkscape:cy="14.10152"
     inkscape:document-units="px"
     inkscape:current-layer="layer1"
     showgrid="false"
     units="px"
     inkscape:window-width="1280"
     inkscape:window-height="973"
     inkscape:window-x="-4"
     inkscape:window-y="-4"
     inkscape:window-maximized="1" />
  <metadata
     id="metadata7">
    <rdf:RDF>
      <cc:Work
         rdf:about="">
        <dc:format>image/svg+xml</dc:format>
        <dc:type
           rdf:resource="http://purl.org/dc/dcmitype/StillImage" />
        <dc:title></dc:title>
      </cc:Work>
    </rdf:RDF>
  </metadata>
  <g
     inkscape:label="Layer 1"
     inkscape:groupmode="layer"
     id="layer1"
     transform="translate(0,-1036.3622)">
    <path
       style="fill:#000000;fill-opacity:1"
       d="m 8.3853711,1052.3133 c 0.239076,-0.065 0.351054,-0.1284 0.544295,-0.3111 0.395997,-0.3745 0.481755,-1.0106 0.200286,-1.4856 -0.03696,-0.063 -0.607982,-0.657 -1.268932,-1.3215 -0.88138,-0.8861 -1.189965,-1.2154 -1.157604,-1.2354 0.02426,-0.015 0.170078,-0.06 0.324025,-0.1002 0.613237,-0.1593 1.511228,-0.5518 2.005398,-0.8764 0.240189,-0.1578 0.441387,-0.4208 0.514613,-0.6727 0.129201,-0.4445 -0.01549,-0.9565 -0.354057,-1.2529 -0.243934,-0.2136 -0.457763,-0.2897 -0.817976,-0.2911 -0.266187,0 -0.310408,0.01 -0.486037,0.1 -0.993665,0.5199 -1.247288,0.6219 -1.894339,0.7623 -0.294888,0.064 -0.433062,0.074 -1.03688,0.074 -0.600007,0 -0.7427247,-0.01 -1.0287475,-0.072 -0.6322484,-0.1378 -0.8831254,-0.2383 -1.8692216,-0.7487 -0.2094842,-0.1084 -0.244728,-0.1163 -0.51844,-0.1163 -0.2622436,0 -0.316743,0.011 -0.5091931,0.1021 -0.11853441,0.056 -0.27672141,0.1633 -0.35152641,0.2381 -0.074804,0.075 -0.1819583,0.2329 -0.2381181,0.3515 -0.091316,0.1927 -0.1020284,0.2464 -0.101354,0.5072 6.533e-4,0.246 0.01411,0.3203 0.086203,0.4754 0.1228127,0.2644 0.3204358,0.4606 0.67328491,0.6686 0.524654,0.3093 1.4098073,0.6707 1.9243408,0.7857 0.1042755,0.023 0.1974267,0.063 0.2070033,0.088 0.011085,0.029 -0.4299268,0.4945 -1.2143121,1.2821 -1.15214961,1.1568 -1.23647441,1.2492 -1.30524381,1.4312 -0.096106,0.2541 -0.1015355,0.644 -0.012035,0.8642 0.1365385,0.3361 0.38150651,0.5813 0.71979221,0.7207 0.2206512,0.091 0.6093858,0.086 0.8643601,-0.012 0.1811275,-0.069 0.2775269,-0.1571 1.4104619,-1.2854 0.6688262,-0.666 1.2375662,-1.2111 1.2638682,-1.2111 0.0263,0 0.565374,0.5182 1.197939,1.1514 0.632565,0.6334 1.215877,1.194 1.296249,1.2459 0.161454,0.1044 0.468978,0.1961 0.646437,0.1928 0.06308,0 0.191542,-0.023 0.285457,-0.048 z m -3.038378,-7.7253 c 1.447796,-0.1492 2.718395,-1.0329 3.338454,-2.322 0.280061,-0.5822 0.398674,-1.1089 0.400397,-1.778 0.0013,-0.512 -0.0409,-0.8019 -0.1817,-1.2475 -0.203177,-0.643 -0.540097,-1.1946 -1.029756,-1.6859 -0.622739,-0.6249 -1.447108,-1.0427 -2.30487,-1.1681 -0.41518,-0.061 -1.206167,-0.023 -1.5834297,0.077 -0.7924138,0.2079 -1.3901597,0.5454 -1.9407976,1.096 -0.5505415,0.5506 -0.8878494,1.1478 -1.09614471,1.9408 -0.1101154,0.4193 -0.1383227,1.2004 -0.059671,1.6525 0.062352,0.3585 0.23003791,0.8795 0.37724631,1.1722 0.4661289,0.9265 1.339571,1.6966 2.3229654,2.0478 0.5014813,0.1791 1.2372961,0.2696 1.7573071,0.2158 z m -0.920881,-2.4946 c -0.5219526,-0.1811 -0.8968643,-0.5569 -1.0812487,-1.0836 -0.1493562,-0.4268 -0.094742,-1.0016 0.1311194,-1.3804 0.3793821,-0.6362 1.1148353,-0.9738 1.8062053,-0.829 0.670592,0.1404 1.191183,0.64 1.344523,1.2903 0.212746,0.9024 -0.378853,1.8442 -1.288653,2.0517 -0.260501,0.06 -0.66198,0.038 -0.911946,-0.049 z"
       id="path4163"
       inkscape:connector-curvature="0" />
  </g>
</svg>
