<svg xmlns="http://www.w3.org/2000/svg" xmlns:xlink="http://www.w3.org/1999/xlink" width="50" height="50" viewBox="0 0 49.999998 50.000001"><defs><radialGradient r="37.83" fy="66.073" fx="121.106" cy="66.073" cx="121.106" spreadMethod="reflect" gradientTransform="matrix(.71 0 0 .701 38.52 16.246)" gradientUnits="userSpaceOnUse" xlink:href="#a"/><linearGradient id="a"><stop offset="0" stop-color="#0ff"/><stop offset="1" stop-color="#07f"/></linearGradient><radialGradient r="37.83" fy="76.821" fx="120.078" cy="76.821" cx="120.078" spreadMethod="pad" gradientTransform="matrix(.914 -.152 .159 .955 2.591 -.287)" gradientUnits="userSpaceOnUse" xlink:href="#b"/><linearGradient id="b"><stop offset="0" stop-color="#0ff" stop-opacity=".259"/><stop offset=".527" stop-color="#00efff" stop-opacity=".467"/><stop offset=".625" stop-color="#00d2ff" stop-opacity=".643"/><stop offset="1" stop-color="#00458a"/></linearGradient><radialGradient r="37.83" fy="43.835" fx="112.212" cy="43.835" cx="112.212" gradientTransform="matrix(1.304 1.116 -.917 .448 3.407 -100.267)" gradientUnits="userSpaceOnUse" xlink:href="#c"/><linearGradient id="c"><stop offset="0" stop-color="#fff"/><stop offset="1" stop-color="#fff" stop-opacity="0"/></linearGradient><radialGradient xlink:href="#c" gradientUnits="userSpaceOnUse" gradientTransform="matrix(1.304 1.116 -.917 .448 3.407 -100.267)" cx="112.212" cy="43.835" fx="112.212" fy="43.835" r="37.83"/><radialGradient r="37.83" fy="66.073" fx="121.106" cy="66.073" cx="121.106" spreadMethod="reflect" gradientTransform="matrix(.71 0 0 .701 38.52 16.246)" gradientUnits="userSpaceOnUse" xlink:href="#a"/><radialGradient r="37.83" fy="76.821" fx="120.078" cy="76.821" cx="120.078" spreadMethod="pad" gradientTransform="matrix(.914 -.152 .159 .955 2.591 -.287)" gradientUnits="userSpaceOnUse" xlink:href="#b"/><radialGradient r="37.83" fy="43.835" fx="112.212" cy="43.835" cx="112.212" gradientTransform="matrix(1.304 1.116 -.917 .448 3.407 -100.267)" gradientUnits="userSpaceOnUse" xlink:href="#c"/><radialGradient r="37.83" fy="66.073" fx="121.106" cy="66.073" cx="121.106" spreadMethod="reflect" gradientTransform="matrix(.71 0 0 .701 38.52 16.246)" gradientUnits="userSpaceOnUse" xlink:href="#a"/><radialGradient r="37.83" fy="76.821" fx="120.078" cy="76.821" cx="120.078" spreadMethod="pad" gradientTransform="matrix(.914 -.152 .159 .955 2.591 -.287)" gradientUnits="userSpaceOnUse" xlink:href="#b"/><radialGradient r="37.83" fy="43.835" fx="112.212" cy="43.835" cx="112.212" gradientTransform="matrix(1.304 1.116 -.917 .448 3.407 -100.267)" gradientUnits="userSpaceOnUse" xlink:href="#c"/><radialGradient r="37.83" fy="66.073" fx="121.106" cy="66.073" cx="121.106" spreadMethod="reflect" gradientTransform="matrix(.71 0 0 .701 38.52 16.246)" gradientUnits="userSpaceOnUse" xlink:href="#a"/><radialGradient r="37.83" fy="76.821" fx="120.078" cy="76.821" cx="120.078" spreadMethod="pad" gradientTransform="matrix(.914 -.152 .159 .955 2.591 -.287)" gradientUnits="userSpaceOnUse" xlink:href="#b"/><radialGradient r="37.83" fy="43.835" fx="112.212" cy="43.835" cx="112.212" gradientTransform="matrix(1.304 1.116 -.917 .448 3.407 -100.267)" gradientUnits="userSpaceOnUse" xlink:href="#c"/></defs><g><path d="M15.061 2.392h-.06l-.228.051-.163.086-.212-.017-.114.068c-.031.062.006.118.049.172.068.083.158.042.261.051h.261l.163-.035.244-.034.261-.035c.069-.01.136.042.179-.017.044-.059.016-.134-.033-.189l-.163-.051-.277-.035-.168-.019zm.763.326h-.123l-.325.068-.245.068c-.069.036-.181.04-.163.12l.097.086.228-.035.114.035.195.086h.179l.228.069h.277l.343.068c.107.013.184.076.277.017l.081-.086-.033-.103-.131-.069-.016-.12c-.045-.095-.145-.071-.245-.086h-.212l-.163.051-.065-.086-.179-.068-.121-.019zm1.76.321c-.062 0-.137.03-.188.075l-.082.155c-.023.083-.042.148 0 .223.032.058.069.086.131.103h.114l.212-.086c.137-.031.219.018.359.018.133 0 .222.044.342-.018.057-.03.126-.037.13-.103l-.049-.103c-.065-.076-.147-.044-.245-.051h-.13l-.228-.103h-.147l-.114.051-.016-.103-.088-.058zm.901.65h-.035l-.045.024c-.053.039-.078.082-.083.151l.053.159v.12c-.039.061-.111-.01-.181-.016-.063-.01-.11-.059-.159-.016l-.038.135c-.057.072-.138 0-.227.016l-.257.047-.25.055-.272-.119h-.31c-.076 0-.146-.06-.197 0l-.03.104c-.04.058-.099.048-.166.064l-.295-.016-.272.072-.25.016-.174.12-.182.047c-.064.015-.132-.018-.166.039l-.007.039c.007.054.099.09.159.127l.144.056.098.047.166.088.098.12c.01.107-.163 0-.265 0h-.144l-.136.032-.212-.047-.113.047-.227.039h-.242l-.325-.039h-.151c-.067.056-.009.162.053.223l.181.056.045.191c.055.047.112.018.181.015l.129-.015.197.047.061.047.038.024.159.047.113.072c.078.038.247-.02.212.063-.031.074-.113.012-.189.015h-.235l-.174.024-.212-.072h-.166l-.098-.072h-.197l-.227-.079-.061-.024-.083-.032c-.068-.015-.163-.087-.182-.015v.047l.015.039.113.151-.159-.047h-.151c-.064 0-.138-.064-.159 0l.068.119.113.063h.113l.159.039c.096.01.168-.093.25-.039l.076.104.136.088.015.056c-.038.045-.094.01-.151 0l-.159-.039-.091-.015-.06-.015-.257-.056-.197-.032-.144-.015c-.082-.028-.145-.054-.182-.135l-.015-.16-.038-.104-.06-.079-.144-.088c-.061-.02-.197-.075-.166-.015l.068.047.098.088.015.047-.015.088h-.083c-.062.01-.113.014-.144.072v.136l.144.12.098.103.03.015.144.056.068.136.015.207.083.088.015.015.083.088.098.168.212.015.182.039.144-.039.128-.032.212.032.129.039.113.016.121.104c.088.071.183.053.242.151l.045.207.136.104.144.064c.021.082-.116.069-.197.071l-.113-.015c-.075-.034-.087-.102-.128-.175l-.083-.183-.113-.056-.227-.12-.128-.047-.151.016-.212.065.03-.032-.129.056-.03.08.182.12v.207l.007.096c.017.08.045.146-.007.215l-.083.072-.166.064-.113.136c-.094.057-.164.01-.272 0l-.265-.032c-.127-.017-.211.014-.325-.047l-.113-.088-.166-.072c-.036-.086.15-.028.234 0l.091.057.136.047.174-.015.166.032.083-.152.113-.088.015-.128.015-.039.113-.12-.129-.175v-.151l-.128-.071-.197-.104-.128-.151-.083-.207-.129-.088-.053-.191-.083-.167-.113-.12-.113-.104-.113-.056v-.135l-.03-.191c-.039-.08-.088-.114-.166-.151l-.159-.032-.25-.015-.113-.024h-.174c-.096 0-.165-.064-.25-.015l-.098.104.053.223c0 .075.01.13-.03.191-.045.069-.105.081-.181.103l-.113.015c-.033.041-.014.091.015.136l.182.056.03.088.098.119.03.12v.167l.113.056.166.016.159.047.136.143.189.015c.058.038.081.081.098.152v.136l-.128.015-.197-.096-.174-.024-.31-.08-.28-.12c.007 0 .408.541.257.646-.006 0-.994.513-.756.773.324.355.698 2.501.703 2.503.006 0 .077.133.083.486.006.33.017.332.023.335.005 0 .337.342.461.789.135.487-.728.311-.787.67-.038.232.637 1.321 1.309.239 0 0 .261.047.25.494-.009.353.01.197.015.199.036.067.076.566.076.566-.041.139-.062.273-.068.39l-.371.319-.605-.279c-.129.014-.382-.353-.87-.295-.084-.02-.13.088-.273.252.027.394-.039.312-.181.374l-.26.086c-.175.037-.303-.078-.456.016l-.13.12-.147.309c-.051.085-.072.143-.147.206-.071.059-.124.128-.212.103l-.13-.137-.114.035-.049.069c-.042.083-.026.147-.016.24.014.129.032.213.114.309l.146.103.016.016c.071.082.1.148.114.258l-.016.206c.006.131.025.21.081.327l.049.086.003.069.062-.053.163-.206c.095-.057.17-.013.278-.034l.146-.035.179-.24.147.017.261.137.26-.087c.062.029.083.074.114.138.056.113.014.199.016.326v.206l.082.103c-.018.057-.089-.011-.147-.016l-.163-.017-.163-.016-.147.035c-.047.047-.05.106-.032.172l.146.137-.011.077-.005.01c-.037.055-.101.014-.163 0l-.023-.01-.123-.06-.077.06-.004.01c-.03.066.008.133.065.172l.131.017.066.138.065.086.147.087.032.154.18-.016.049.155.081.086.196-.017.049.086v.172l.049.206.082.189c.048.087.073.27.147.206l.032-.155c.008-.101-.097-.182-.032-.258l.082-.051.146-.017c.106.025.106.14.179.223l.131.137c.092.085.268.059.26.189l-.065.137c-.057.057-.118.066-.196.052l-.147-.087-.179-.035h-.114c-.079.036-.067.132-.065.223l.016.103.163.086.131.069c.037.063-.02.115-.032.189l-.032.172c.014.075.058.106.113.154l.142.069.021.016.098.172c.058.126.064.208.098.344l.064.265.002.044-.016.155-.13-.016h-.212l-.196.016h-.163l-.146.018-.179.016-.163-.051-.163-.155-.147-.12-.179-.069h-.097l-.163-.035c-.095-.06-.078-.164-.114-.274-.034-.105-.066-.165-.065-.275l.033-.189.13-.206v-.24l.114-.086.229.059.015-.025c.024-.078-.056-.117-.114-.172l-.31-.12-.163-.189-.174-.203h.011l-.022-.01-.01-.012.019.025-.033.01-.209-.027-.273-.101-.134.023-.087.01-.26-.052h-.011l-.169-.053c-.141-.057-.22-.097-.344-.186l-.24-.213c-.109-.071-.174-.132-.303-.136l-.29.097c-.098 0-.16-.03-.238-.079l-.05-.065c-.076-.076-.115-.133-.212-.172l-.134-.023h-.236l-.086.01-.13.086-.045.012.062.022.031.015h-.007l.186.101c.083.048.125.098.163.189l.033.155.049.206-.097.138-.062.031h.009l-.143.053-.114.069-.196.051-.211-.051h-.114l-.163.051c-.139.015-.207-.073-.343-.103l-.195-.035c-.078.045-.145.05-.228.017l-.114-.086-.049-.12c-.074-.093-.188.014-.293-.035l-.131-.087-.195-.016h-.40800000000000003l-.244.035-.212.034-.179.103-.179.12-.081.138-.146-.016h-.245l-.196-.035-.114-.017-.049.086.016.12c.052-.017.112.028.114.086.002.064-.08.053-.131.087l-.113.051h-.538l-.212.017c-.074.021-.142.015-.179.086v.172l-.054.129.006.025.081.069.131.051.114.035c.052.045.056.102.049.172-.008.068-.034.108-.082.155l-.146.069-.131-.052c-.068-.017-.138-.077-.179-.016-.04.058.021.116.065.172l.114.087.196.034.147.017.081.068.033.172.146.069-.065.154.065.12c.053.058.103.078.179.087l.13-.017.146.017.147.069.065.155c.069.069.149.026.245.035h.293l.065-.189.114-.086c.082-.037.142-.042.228-.016l.163.103.212.103.13.12.212-.016.196-.016.13-.086.114-.103.097-.051h.13l.212.051.163-.086.131-.017-.115.206v.206l-.016.172.016.103.002.082h-.004l.002.117v.01l.033.24-.043.136-.038.12.016.223v.137l-.009.043-.109.206h-.002l-.01.025h.001-.001l-.065.24-.065.292-.082.189-.049.069.029-.031-.078.099h-.212c-.115 0-.507-.049-.62-.069l.312.721c.072-.05.094.106.131.189l.048.223c.043.112.095.161.164.258l.163.206c.046.076.013.199.098.206l.131-.086c.092-.114.131-.14.228.068.069.072.158.01.244.051.108.058.139.138.212.24l.13.223.131.137.179.292.146.223.066.309.131.138.032.154.212.086.163.155.163.224.082.137.049.223-.016.206.048.241.016.257.098.137.131.241c.055.069.082.127.163.155h.163l.13.154.131.12.032.189v.034l.049.12.016.155.146.103.098.206.097.12c.206.187.408.55.408.55.062.058.09.105.114.189l.016.155-.163.12c-.034.065-.029.116-.017.189l.098.189.081.189.049.189.016.206.114.223-.049.24c.024.071.07.096.13.137l.163.068c.096.014.152-.021.244-.051l.229-.103.244-.12.179-.069.195-.068.147-.018c.106-.022.164-.049.26-.103.082-.045.113-.179.196-.138l.065.068.115-.034.196-.103.097-.138.212-.086.163-.103.244-.103.244-.052.212-.103.163-.086.033-.155c.009-.101-.082-.17-.033-.258l.179-.103.066-.086.068-.034.029.016-.013-.02.094-.015.228-.035.179-.086.163-.069.147.051.146.035c.051-.022.086-.062.082-.12l-.049-.086c-.032-.068-.078-.119-.049-.189.031-.075.106-.059.179-.086l.229-.051.098-.086v-.189l.097-.12.163-.154.13-.172.049-.172.065-.206v-.155l.18-.035.082-.068.033-.172.114-.103.13-.138.098-.137.033-.223.016-.138-.196-.035-.065-.138-.114-.068v-.206l-.146-.068-.131-.017-.212-.035-.098-.017-.13-.103-.195-.172-.098-.103-.097-.069-.016-.12-.049-.189v-.154l-.065-.103-.082-.104.097-.068.017-.12c-.015-.055-.046-.119-.098-.103l-.032.138-.131.137-.114.171-.066.155-.13.137-.016.137-.114.12-.163.12-.163.052-.179.051-.097-.051-.147-.069-.146.086-.114.016-.114-.103-.179-.069v-.155l.005-.055.012-.083.033-.137-.017-.12v-.189l-.13-.086-.065-.034c-.066 0-.07.086-.082.154l.016.155.016.12c.002.075.031.156-.032.189h-.097l-.082-.12.017-.138-.049-.103-.13-.12-.082-.103.033-.155-.065-.086.016-.154-.065-.069-.131-.068-.114-.12-.033-.12-.146-.103-.065-.155-.049-.138-.081-.12-.082-.069-.039-.125-.025-.081-.066-.103-.146-.034-.017-.12.133-.089.046-.031.098-.069.114-.051.017-.12.13.016.098.052.033.086.097-.086.13.035.066.103.114.172.114.155.114.189.033.12.081.172c.065.13.054.261.179.326l.179.034.13-.034.13.12.18.103.146.103.114.069h.114l.179.068.146.103.114-.035.146-.12.081-.068.082-.086.114-.035h.212l.163.035.081.086.114.154.017.292.065.12.114.086.065.087.147-.017h.195l.147.068c.139.048.228.022.375.035l.196.016.244.069.196.103c.093.022.151 0 .244-.017l.045-.013.149-.056h.343l.211-.051.163-.018.196.051c.107.016.17.015.277 0l.212-.051.147-.103h.131c.064.015.115.025.146.086l-.033.206.114.087.163.069.114.206.098.172.195.103.147.121.097.12.131.103.081.069.163.017.163.017c.089 0 .225-.111.228-.017l-.082.121c-.062.058-.114.073-.195.087l-.196-.017-.097.035c-.046.057.035.115.082.172l.097.086.044.051.054.068.196.172.179.189.098.12.179-.035.196-.051c.074-.031.136-.033.179-.103l.032-.103.033-.137-.049-.12.049-.206.065-.051c.059-.01.053.082.082.138l.055.12.01.035v.24l.13.172c.034.087.047.152.016.241l-.098.137c-.036.093-.015.158 0 .258l.066.224.098.223.065.292.082.172c.049.146.017.241.033.395l.033.275c.042.111.109.147.179.24v-.034l.147.292.113.24.114.206.163.155c.065.109.035.198.049.326l.016.172.065.154.033.206c.021.108-.007.195.065.275l.163.086c.095.082.094.176.147.292l.114.275.114.292.098.309c.04.152-.013.273.082.395l.114.103.065.206c.064.07.137.051.228.069l.146.016c.128-.031.095-.191.163-.309l.114-.189.13-.103.081-.068v-.189l.081-.086-.033-.121.13-.016.13-.069.016-.172-.049-.206-.016-.292.049-.292.066-.189c.025-.092.067-.147.049-.24l-.081-.155.016-.138v-.257l-.049-.189c-.027-.145-.06-.238-.016-.378l.065-.137.13-.086c.07 0 .128.05.179 0l.033-.155.049-.12.146.051.098-.051c.072-.047.12-.077.163-.155l.049-.206.081-.103.115-.12.081-.035v-.138l.082-.086.163-.034.032-.086.066-.103.065-.086.082-.154.114-.086.098-.12.147-.103.13-.138.261-.137.097-.172v-.223c.006-.101-.02-.173.032-.258l.082-.086.147-.051c.06-.027.09-.12.147-.086l.048.086.098-.068.065-.035h.02l.094.052h.179l.13-.017.098-.051.016-.103.179.034.114-.103.131-.018v-.172l.032-.137h.131l.097.103.065.189.066.137c.045.139-.017.232 0 .378.014.123.002.206.065.309l.212.275.081.103c.089.047.129-.115.228-.12.131-.01.219.058.293.172.045.07.101.13.066.206l-.042.035-.105.051.016.137.114.051.146-.035-.032-.051.114.12.114.154.082.326.097.258c.009.124-.063.185-.082.309-.016.106-.06.178-.016.275.03.068.064.109.13.137l.114.016.147-.034c.113-.02.193.042.293-.016l.098-.086.065-.12.163-.017.033-.12c.02-.099-.06-.197.016-.258l.098-.035c.09 0 .104.105.147.189l.065.206.097.086.098.206.032.412.114.24.033.292c.004.087-.047.151 0 .223l.147.086.033.103v.258l.033.224c.003.115-.104.204-.033.292l.163.068c.053.067.07.157.016.223l-.082.051c-.075.075-.059.166-.049.275l.147.257c.014.073-.048.106-.082.172l-.081.154-.033.189.016.138-.016.12h.016l-.049.137.098.017h.163l.049.069.13.086.131.172.146.154.081.12.057.107v.001l.089.167.163.189.032.172v.275l.066.223c.021.112-.044.197.016.292l.114.103c.069.08.096.139.131.241l.033.12.082.24.032.121.081.052.13.035.081.086.147.172.163.12c.09.056.142.094.244.12.075.019.123.044.196.017.094-.034.145-.103.163-.206l-.016-.154c-.024-.089-.053-.14-.114-.206l-.179-.121c-.059-.088-.022-.167-.032-.274l-.016-.189.016-.292c-.004-.142-.004-.227-.049-.36l-.098-.206-.114-.189-.146-.103-.065-.171c-.18-.057-.181-.07-.211-.172-.044-.094-.104-.132-.196-.172l-.195-.035-.163-.12-.082-.137-.098-.223-.114-.206-.114-.155-.033-.24-.049-.086-.196-.051-.032-.137-.081-.189c-.025-.119.005-.191.032-.309l.081-.24.131-.206.016-.155v-.309l.016-.24c.009-.081-.014-.141.033-.206l.081-.068.098-.051c.056-.013.107-.025.147.017v.172l-.016.172c.032.057.086.055.147.069h.179l.163.069.098.138.277.086.016.12.114.069.016.189c.009.075-.037.172.033.189l.097-.035.082.103.114.155.163.016.13.016.081.12.114.086.081.086-.032.12-.049.189.032.223.033.103c.046.045.105.012.163-.018l.114-.12.049-.12.13-.035.082-.069.065-.12.131-.12.066-.206.049-.137c.066-.083.16-.024.26-.051.111-.031.184-.034.277-.103l.163-.189.114-.154c.06-.095.126-.144.13-.258l-.016-.12.049-.223v-.189l-.066-.172-.048-.326-.131-.172-.049-.309-.097-.189-.115-.103-.041-.24-.024-.035-.147-.068c-.102-.055-.17-.079-.244-.172l-.065-.103-.016.016-.114-.068-.13-.155-.098-.035-.098-.069c-.061-.062-.072-.12-.097-.206-.021-.071.028-.149-.033-.189h-.13l-.033-.103-.114-.103-.032-.103v-.224l-.033-.223.049-.103.147-.155.049-.189.016-.155.179-.035.163-.172.195-.086-.049-.051.049.051c.099-.035.157-.088.261-.069l.146.069.147-.035c.095.036-.018.169 0 .275.019.113.018.197.097.274.061.059.113.089.196.087.076 0 .13-.024.179-.087.074-.092 0-.188 0-.309v-.189c.062-.208.324-.039.521-.103l.374-.154v-.016l.212-.069.098-.154.13.017.163.016c.151-.01.227-.076.358-.155l.228-.171c.102-.037.212.074.277-.017l.032-.155.114-.103.196-.172.113-.103.066-.189.244-.154.065-.257.163-.103c.088-.115-.018-.231-.016-.378l.016-.258.017-.206.097-.206c.047-.117.005-.228.098-.309l.147-.068.068-.12.014-.051.016-.172-.033-.103.066-.258c-.005-.099-.001-.189-.082-.24l-.163-.017-.228-.035c-.078-.02-.221.012-.196-.068l.131-.069c.098-.056.214-.042.245-.154.019-.072-.007-.119-.033-.189l-.066-.12v-.12l-.049-.189-.049-.172c-.059-.075-.141-.034-.227-.068l-.229-.121-.114-.103-.114-.223-.114-.224-.114-.172-.066-.12-.163-.154-.146-.086-.098-.035c-.059-.036-.091-.07-.114-.137-.033-.097.015-.162.049-.257l.179-.292.033-.12.066-.103.047-.035.195-.017.163-.086c.063-.066.079-.13.082-.223l-.016-.12c-.044-.058-.11-.01-.179 0l-.146.035-.212-.103-.179-.016-.212.016-.131.052-.017.086-.064.087-.131-.017-.082-.051-.13-.12-.114-.137-.049-.12c-.07-.089-.181 0-.277-.052l-.146-.138-.147-.103c-.052-.077-.113-.199-.032-.24l.147.034.179-.017c.077-.01.135.015.196-.035.052-.042.1-.089.081-.155l-.13-.086c-.02-.073.07-.094.114-.154l.065-.051.13-.172.022-.146.027-.043.163-.034c.079-.025.115-.108.196-.087l.065.035.106.129.024.043.065.138-.065.138c-.036.085-.099.132-.082.223l.049.103.033.12c.012.094-.104.182-.033.24.07.057.146-.024.212-.086l.098-.189.179-.137.13-.052s.422-.026.587 0l.212.017.163.103c.07.089.05.176.049.292l-.049.275c.004.104-.01.191.065.258.078.069.159.017.26.016l.244-.016.114.032.017.02.006-.01.023-.039-.022.039.06.027.146.087c.045.067.034.128.016.206l-.098.172c-.012.074-.003.125.032.189l.212.138.033.12c.041.159.071.248.082.412v.189l.033.223.097.172.114.086c.078.021.158.01.195-.069l-.049-.206.016-.189c.045-.087.124-.084.212-.12.127-.051.207-.087.342-.068l.13.035c.083 0 .141-.02.195-.086.055-.067.047-.134.049-.223.004-.117-.012-.189-.065-.292l-.179-.206-.049-.172c-.062-.142-.157-.18-.261-.292l-.179-.189-.131-.155-.114-.12-.163-.172-.163-.085c-.093-.045-.224 0-.244-.103l.032-.137-.179-.069c-.053-.06-.085-.133-.049-.206l.131-.086.13-.069v-.018c.064-.087.127-.12.163-.223.035-.101.049-.173.016-.275l-.082-.138c-.044-.083-.11-.128-.098-.223.092-.176.194-.408.329-.58l.144-.071.151.119.174.104.197.047c.101 0 .154-.028.242-.08l.212-.191c.066-.065.152-.082.166-.175l-.015-.12c-.01-.106-.031-.169 0-.271l.083-.159.091-.391.098-.295c.016-.119-.003-.183-.015-.303l-.045-.327c-.007-.114-.038-.189 0-.295.036-.098.161-.102.159-.207l-.098-.167-.113-.263-.128-.271-.023-.039-.076-.12-.129-.103-.083-.136-.098-.207-.061-.167-.045-.303-.038-.056-.083-.072-.159-.103-.098-.167-.136-.207-.128-.143-.242-.08-.197-.159-.159-.047h-.008l-.227-.071-.129-.065h-.113v.015h-.144l-.053.12-.061.151-.098.015c-.078-.013-.079-.101-.121-.168l-.015-.015-.061-.072-.113-.032-.212-.015-.083-.143c-.064-.068-.124-.079-.212-.104l-.393.024-.098-.039.068-.183-.015-.088c.008-.067.058-.089.113-.119l.144-.039.038-.199.076-.175-.076-.151c.003-.063.027-.107.076-.143l.151-.032-.015-.191.061-.032.053-.135-.098-.136v-.047l.061-.143c.038-.091.028-.183.113-.223h.166l.355-.015h.25l.212.015.144.047.166-.12.076.072.181.032.144-.032.182.016.166.056.015-.223.113-.072c.086-.01.102.1.182.136.089.038.146.035.242.032l.212-.032c.063.015.12.024.144.088v.104l.015.119h.068c.107 0 .175.03.28 0l.144-.072.128.056.151-.119.144-.016.144-.024c.076 0 .143.082.197.024l.038-.128-.136-.065-.212-.015c-.09-.014-.174.022-.227-.057l-.03-.119.03-.151.098-.088-.023-.12-.007-.032-.015-.12v-.263c.023-.058.084-.045.144-.047l.181.047.129-.065c.102-.036.172-.027.28-.024l.174.024.136.104.091.119.136.104h.144l.068.119.061.032h.098l.03-.015.068-.136.053-.159.076-.065c.037-.05.065-.097.053-.159-.018-.097-.14-.056-.212-.12-.052-.046-.137-.069-.113-.136.023-.063.095-.027.159-.039.076-.015.127-.066.197-.032l.083.088.113.151.098.159.068.104.113.08c.059.069.107.136.076.223l-.03.056-.03.032-.113.119-.038.223-.03.414.008.247-.008.047-.068.167c-.07.084-.252-.025-.257.088l.045.119.053.223-.03.151.098.16.189.239.136.207.242.207.272.239.31.255.25.255.196.263.227.12.227.167c.14.113.219.177.34.311l.227.295c.059.047.099.134.166.104.058-.025.044-.096.061-.16l.023-.183c-.002-.13-.017-.208-.068-.327l-.128-.207-.068-.136.197-.024.068-.136c.012-.092-.027-.151-.083-.223l-.129-.104c-.029-.06-.047-.122 0-.167l.129-.015h.113l.128-.039c.051-.05.065-.13.015-.183l-.113-.039-.212-.119-.128-.151c-.068-.077-.255-.121-.182-.191l.098-.032h.128c.074-.023.157-.056.151-.136-.005-.077-.095-.079-.151-.128l-.144-.135-.166.015-.113-.104-.159-.271c-.061-.075-.095-.134-.181-.175l-.295-.016-.174-.079-.136-.152-.015-.024-.015-.239-.144-.119c-.05-.058-.107-.098-.098-.175.008-.071.046-.141.113-.136l.083.047c.066.034.107.083.174.056l.098-.119.038-.175c.049-.043.104-.033.159 0l.068.071.045.151.129.015.068-.08.015-.143.068-.08c.066-.054.129-.034.212-.039h.212l.159.039c.083.031.131.057.197.119l.098.12.166.032c.069.01.134.06.174 0 .038-.057-.024-.101-.045-.167l-.053-.143.061-.047.023-.015.053-.279.113-.12.113-.015.113-.015v-.104l.128-.12.098-.071v-.135l.098-.047.083.096.174.024h.235l.272.065.219-.065-.28-.231c-.928-.734-1.881-1.416-2.836-2.065-.426-.289-.852-.571-1.278-.845l-.076.047c-.172.014-.267.039-.439.032-.187-.01-.302-.018-.476-.088l-.227-.119h-.212c-.166 0-.259.019-.424.039l-.31.047c-.157 0-.231-.077-.386-.104-.157-.027-.249-.045-.408-.032l-.129.015c-.039.056.027.105.076.151l.151.072h.212c.093.016.16.017.227.088.051.053.094.094.083.167-.018.126-.193.054-.31.024l-.227-.128h-.235c-.151-.025-.232-.072-.355-.167l-.113-.104.091-.136-.008-.015c-.037-.046-.092-.01-.144.015h-.008l-.113.12-.197.088c-.173.046-.275-.025-.454-.039l-.537-.047c-.147-.014-.235-.066-.378-.032l-.189.08c-.147.04-.242.024-.393 0-.104-.015-.178 0-.265-.065l-.083-.104-.045-.055-.212-.136c-.177-.092-.3-.086-.492-.135l-.272-.072-.363-.065h-.401c-.209 0-.336-.057-.544-.024l-.356.104c-.139.015-.219.016-.355-.016l-.265-.119-.083-.032-.257-.057h-.144l-.197-.047-.212-.057c-.064-.014-.157.036-.166-.032l.068-.104c.013-.105-.143-.068-.242-.088l-.212-.015c-.152-.013-.289-.15-.393-.032l-.068.207c-.047.037-.092.061-.144.032l.015-.223-.068-.072-.015-.015c-.086-.057-.156.01-.257 0l-.325-.047h-.408l-.393-.056-.37-.047h-.167l-.03.119-.212.015-.015.032.015.128.129.032c.083.021.161-.024.212.047l.03.12.166.072-.166.015-.197-.032-.227.032-.174-.065c-.13-.032-.215-.012-.348 0l-.227.032-.295.063-.242-.032-.242-.135c-.056-.024-.11-.102-.151-.057l.023.144.098.151h-.008l-.076.088-.151-.015-.174-.016c-.133-.016-.233.015-.34-.055l-.023-.015-.098-.104-.174-.047-.234-.088-.174-.12-.181-.056-.113-.047h-.212l-.166.047-.076-.088v-.032c.005-.072.082-.072.144-.104l.144-.047.053-.12-.129-.056-.166-.016-.113.016-.113-.063c-.085-.031-.144-.035-.227 0l-.113.079-.166-.047-.325-.072-.212-.047-.182-.032-.144.08.34.191c.083.014.149-.025.212.032.039.035.087.069.068.12-.023.065-.102-.019-.166-.032l-.197-.032-.287-.056-.227.056-.151-.039-.272-.015c-.133 0-.232.069-.348 0l-.098-.079-.144-.04-.128-.104c-.109-.057-.189-.024-.31-.032h-.439l-.348-.032-.189.032-.151.072-.128-.104c-.088-.056-.153-.157-.242-.104l-.083.12c-.071.046-.133.01-.212-.016l-.212-.143c-.081-.018-.131 0-.212.024-.073.016-.157-.01-.181.064v.088l.151.048c.043.076-.132 0-.212.024l-.181.079-.182.056h-.144c-.054-.046-.036-.129 0-.191.047-.084.153-.01.227-.063l.098-.128c.076-.077.13-.108.227-.152l.166-.047.091-.088.121-.032.053-.047.038-.112-.129-.103-.061-.168-.151-.055-.197-.016-.227-.071-.174-.08-.197-.055-.212-.016-.227-.016-.295.048-.28.024c-.146.01-.334.165-.371.016l.03-.175c-.041-.076-.129-.017-.212-.016l-.197.016-.144-.032-.166-.032-.045-.175c-.066-.054-.128.035-.212.032l-.212-.048h-.28l-.116-.011zm-1.629.093l-.112.037-.049.103c.018.057.095.026.147 0l.081-.086-.066-.053zm12.27.431c-.044.047-.114.066-.114.138l.065.12.082.138.131.068h.146l.131.035.146.068.049.068.081.035c.092.025.15 0 .244-.016l.228-.069.277-.035.147-.035c.096-.01.151.01.244.035l.13.051.179-.069c.077-.032.168 0 .196-.086.023-.067.001-.126-.049-.172-.062-.057-.129.01-.212 0l-.228-.035-.228-.051-.26-.018-.245-.034-.179-.086c-.056-.011-.128-.057-.146 0l.049.103.049.086c-.003.07-.099-.031-.164-.051l-.146-.051-.195-.086-.212-.035-.195-.017zm-.47.191l-.018.016.032.086.064.12.082.035.033-.087-.017-.12-.098-.035-.079-.016zm3.845.13l-.132.01h-.163l-.163.069-.163-.069-.13.035c-.028.057.032.101.081.138l.163.034.195-.017c.115-.001.186-.01.293.034l.163.103.179.035h.18c.115-.01.229.05.293-.052l.032-.137c-.03-.067-.109-.014-.179-.017h-.244l-.146-.051-.212-.103-.048-.01zm-1.641.454l-.072.049.065.103.147.017.098-.035c.029-.055-.06-.081-.114-.103l-.123-.033zm.546.185h-.048l-.13.069c-.045.046-.103.102-.065.154l.13.016.147.017h.195l.163.035.179.034c.102.01.288.07.261-.034l-.065-.086-.196-.052-.26-.103-.179-.018-.132-.035zm10.694 1.648h-.07l-.082.12.098.052c.056.013.116.035.146-.017.028-.047.007-.101-.033-.138l-.061-.02zm-1.011 7.058l-.036.019c-.046.048.005.11.032.172l.163.172-.033.155c.006.134.113.174.196.275l.228.24.212.258.196.154.163.103.081.154.163.258.114.258.244.24.147.309c.051.107.036.208.131.275l.195.052c.061.062.024.138.049.223l.049.137.13.223.114.138.082.223c.071.071.173.141.244.068l.016-.206.114-.017.164.087c.075.015.143.042.195-.018.076-.087-.14-.115-.229-.189l-.228-.189-.179-.172-.098-.085c-.065-.066-.11-.102-.147-.189l-.032-.258c-.038-.076-.166-.071-.146-.154l.065-.086c.069-.048.134-.014.212.016l.147.103.114.138c.059.015.118 0 .147-.051.039-.076-.066-.119-.13-.172l-.114-.068-.098-.103-.13-.12-.195-.189-.163-.069-.179-.137-.146-.206-.098-.206c-.053-.088-.071-.165-.163-.206l-.163-.017-.13-.172-.114-.035-.066-.172-.114-.189c-.085-.116-.156-.16-.261-.257l-.13-.12-.163-.035-.114-.154c-.062-.069-.096-.117-.179-.154l-.126-.054zm6.165 1.708l-.092.046c-.034.041-.05.125 0 .137l.081-.068.049-.087-.038-.029zm.201.131l-.081.068c-.048.056-.073.098-.081.172l.016.137.13-.035.147-.069c.027-.054.008-.099-.016-.154-.026-.06-.052-.129-.114-.12zm.011.539l-.027.011-.003.106.02.014c.042.014.096-.041.082-.087l-.071-.046zm-.446 1.688h-.054c-.072.01-.114.053-.146.12-.03.059-.065.127-.017.172.043.039.105.024.147-.017l.032-.138.081-.12-.044-.022zm-.471.376l-.072.01c-.079 0-.138 0-.195.051l-.066.154c-.024.091-.048.152-.016.24l.049.087c.054.034.106-.019.147-.068l.032-.206.082-.069c.052-.057.147-.113.098-.172l-.059-.024zm-2.352.014l-.099.025-.081.087c-.037.091.053.148.114.223l.163.137v.189l.098.086.065.189c.012.059.059.115.016.154l-.13-.017-.097.052.032.257-.065.086-.082.12c-.021.08-.015.158.049.206l.146.017.146.103.114.154.131-.017c.107-.03.261-.038.245-.155l-.082-.12-.163-.086c-.071-.038-.148-.026-.179-.103-.02-.049-.041-.105 0-.137l.13.052.146.035.082-.103h.147l.147.12.13.12.147.103c.078.027.151.059.212 0s.009-.136.016-.223l.016-.189c.043-.067.106-.062.179-.086l.163-.034c.055-.05.069-.116.049-.189l-.098-.12.049-.206c-.002-.077.019-.162-.049-.189l-.147.069-.146-.018-.13.068h-.163c-.152-.014-.234-.058-.375-.12l-.26-.138-.294-.223c-.107-.062-.196-.17-.292-.181zm-38.529 1.052l.08.044h.006l-.086-.04zm39.51 1.007l-.101.011-.114.051h-.114l-.033.189-.114.051.114.12v.326l.082.138.163.069v.206l.065.223-.016.275.016.138c-.007.077-.052.112-.092.163l-.038.06-.066.155c-.053.051-.108.066-.179.051l-.082-.034.016-.189h-.13l-.097.12v.189l-.033.223-.098.24.049.154-.13-.017-.147-.087c-.128-.044-.211.01-.342.035l-.18.052-.228.035-.163.189-.114.12-.114.154-.114.051h-.081c-.085.033-.034.176.033.24l.129.052.163-.034.179.051.146-.051.098-.103.179-.035.147-.069.098-.12h.146l.196.016c.108.01.256-.112.277 0l-.016.103.016.206.066.12.13.069c.074.021.126.035.195 0l.082-.069.082-.223.082-.086c.005-.056-.052-.074-.098-.103l-.081-.035c-.038-.045-.027-.114.016-.155.048-.045.107-.014.163.017l.114.172c.066.039.119.024.196.017l.196-.052h.228l.098-.051-.017-.103-.065-.103c.005-.057.059-.081.114-.086l.098.034.049.086c.048.026.088-.015.13-.051.06-.05.075-.108.082-.189l-.033-.172-.098-.087-.082-.189-.065-.378-.052-.146-.013-.043c-.025-.087-.079-.14-.049-.223l.114-.12-.049-.12-.097-.275-.131-.326c-.059-.114-.084-.192-.179-.275l-.13-.087-.163-.138-.115.016-.048-.137.032-.189-.079-.045zm-41.457 2.798l-.11.046-.146.12h-.196l-.131.069c-.044.051-.072.106-.049.172.028.075.104.077.18.086.084.011.133-.018.212-.052l.147-.086c.073-.055.144-.079.163-.172.013-.067.023-.137-.032-.172l-.037-.011zm40.288.764l-.073.036-.017.086-.13.052h-.179l-.016.12-.114.189.065.137.016.12.082.069c.087.037.23.014.228-.087l-.049-.103c-.003-.066.04-.11.098-.137.066-.03.111.014.179.035l.131.051c.067-.015.075-.086.098-.155l.016-.172c-.009-.071-.006-.136-.065-.172l-.098-.016-.172-.055zm-1.185.232l-.077.011-.114.068-.115.086-.097.087.065.103.016.189c.05.061.133.082.195.035l.049-.172.098-.068c.11-.025.226.132.179.24l-.081.086.066.103-.082.189.114.172.033.172.098.103.18.051.065-.189.114-.103c.043-.096-.063-.153-.082-.258l-.016-.258.032-.154-.065-.172-.114-.12-.081-.086-.114-.016-.147.016-.049-.086-.069-.027zm-29.741 3.393l-.071.035c-.05.032-.099.058-.098.12l.066.103.13-.017.082-.069.017-.086c-.011-.051-.049-.079-.098-.086h-.027zm-2.226.291l-.027.001-.033.103.065.086c.048 0 .064-.071.049-.12l-.054-.069zm29.456.695l-.09.026-.098.12-.066.24-.081.206c-.031.104-.048.166-.049.275l.033.24.049.155.097.154c.055.069.078.163.163.155l.098-.052.016-.155.033-.172.065-.12.049-.086-.032-.172-.098-.137.066-.086.016-.137v-.29200000000000004l-.082-.137-.089-.026zm-4.189 2.642l-.121.012-.212.103-.195.12-.081.12-.098.155.016.172c.022.081.035.138.098.189l.179.052.245.016c.078-.01.141.01.195-.051l.049-.154.098-.069v-.206l.098-.052.016-.171-.049-.206-.114-.018-.123-.012zm4.636.767c-.071 0-.119-.01-.179.035-.094.061-.096.159-.114.275l.016.275.033.292.016.138c.014.081.12.17.049.206l-.147-.087c-.079-.01-.15.025-.179.103-.03.079.033.129.065.206l.114.206.13.258.245.052.146.051v.12l-.016.155.048.103c.061.059.13.01.212 0l.147-.016.147.034.114.087.065.12c.045.042.095.084.147.051l.032-.154.114.051c.046.044.09.094.066.155l-.082.069.016.103.13.103-.082.12c-.036.068-.106.123-.065.189l.131.051.163.016c.056.01.116.069.146.016l-.033-.12c-.012-.094-.001-.152.033-.24l.065-.12-.114-.137-.065-.172v-.172l-.13-.068-.097-.103-.114.051-.082-.12c-.073-.053-.139.01-.228 0-.083-.01-.158.034-.212-.034l-.033-.155-.131-.069c-.061-.069-.012-.148-.033-.24l-.049-.172.066-.086.097-.241.115-.189c.041-.095.09-.157.065-.258l-.082-.137-.065-.103-.081-.172c-.046-.11-.002-.226-.098-.291-.085-.058-.16.013-.26 0l-.163-.035zm.148 2.548l-.05.029.049.085.081.086.066.103.049.172-.081.172c.038.045.091.014.146 0 .063-.016.108-.031.147-.087l.033-.189c.007-.08.037-.136 0-.206l-.131-.103c-.081-.044-.137-.053-.228-.052l-.08-.011zm1.874.415l-.05.01-.097.12c-.07.117-.047.21-.081.344l-.066.24-.049.138-.146.051h-.196c-.063.019-.111.027-.146.087v.206l-.114.189-.065.137.016.12.163.154.098.12c.075.031.147 0 .196-.068l.032-.155.082-.137.082-.206.098-.275c.034-.077.018-.193.098-.189.074 0 .062.104.097.172.048.092.016.222.114.241.059.012.108 0 .146-.051.044-.057.015-.117 0-.189l-.049-.137.081-.12c.051-.116.014-.2 0-.326l-.048-.258-.066-.138-.129-.077zm-1.217.111l-.023.016c-.041.051-.006.105 0 .172l.049.206-.065.326c-.002.081-.04.152.016.206l.131.035c.088 0 .124-.066.196-.12.076-.058.155-.076.179-.172v-.12c-.019-.068-.054-.105-.114-.138h-.212l-.032-.189c-.031-.082-.073-.236-.124-.223zm-.861.05l-.041.017-.049.103.049.12.081.035c.057 0 .107-.014.131-.069.025-.058-.005-.111-.049-.154l-.122-.052zm-.287.601l-.015.293-.146.12-.049.12-.114.189-.179.172-.163.223c-.056.074-.15.094-.147.189.002.059.013.113.065.138l.146-.052.163-.103.049-.155.114-.069.13-.103.033-.155.033-.154.163-.051.049-.137.065-.137c.011-.084-.021-.136-.065-.206-.035-.056-.052-.109-.114-.12h-.017zm2.265.547l-.146.055-.082.12.016.12.114.068.114-.068.114-.12-.049-.137-.082-.037zm-18.747.1l-.088.058c-.035.056-.007.109.016.172l.065.103-.016.154-.016.258-.066.172.066.154-.081.172c-.015.105.049.157.081.258l.032.086-.048.103.048.154.082.103.13-.016h.179l.147-.068.113-.172.114-.086v-.172c-.008-.102-.005-.166-.048-.257l-.115-.154-.081-.206-.098-.138-.033-.223-.13-.103-.065-.172-.082-.155-.107-.024zm19.2.099l-.062.027c-.059.05.012.127 0 .206l-.065.206-.229.12-.082.068c-.051.029-.094.062-.146.035l-.049-.172c-.056-.035-.101.015-.163.035-.086.027-.153.03-.212.103l-.065.189-.179.051c-.073.037-.123.064-.163.137l-.032.206v-.035l.016.189c.034.053.07.091.131.086l.114-.103c.059-.083-.025-.216.065-.258h.13l.147.051.131-.103h.34199999999999997c.071.011.179-.025.179.051 0 .069-.093.046-.146.086l-.098.086c-.043.075-.011.137 0 .223.015.105.016.177.082.258l.196.12.212.12.146.035c.077-.035.051-.138.033-.223l-.082-.155c-.031-.089-.086-.164-.032-.24.03-.044.064-.079.114-.069l.082.103.016.189c.042.057.098.09.163.069.093-.03.032-.157.049-.258l.033-.224c.005-.101.015-.162-.016-.258l-.081-.155-.115-.102.033-.189c-.009-.089-.052-.13-.097-.206l-.115-.154-.113-.138-.069-.01zm-3.38 1.384l-.136.016-.163.016c-.074.042-.085.107-.115.189l-.032.206-.081.051-.049.138-.097.068-.082.103v.154l-.097.051h-.066l-.094-.035-.029-.01-.028.01-.026.018-.049.154-.051.046-.063.023-.022.001h-.039l-.02.01-.017.019h-.002l-.005.016-.009.064-.033.138-.114.12-.146.258-.147.154-.146.069c-.111.03-.195-.078-.293-.016-.079.048-.077.127-.131.206l-.098.138-.016.223-.066.138-.147-.103h-.228l-.081-.086-.115-.086-.073.066v-.001l-.04.055-.131.086-.049.172-.016.275v.172l.08.155.008.016.041.138-.082.103.114.086.082.154.114.138.081.086-.016.137.032.12v.29100000000000004l.114.103.033.103-.016.172.131.016.163-.035.114.016.114-.069.097.035v.154l.098.069.162-.035.099.016.13-.086.114-.016.13.051.229.086.13-.016c.09.032.045.148.082.24l.065.155h.098c.104-.016.139-.093.228-.155l.147-.103c.082-.077.11-.14.163-.24l.082-.189.065-.172.016-.189v-.223c.037-.086.112-.09.179-.154l.147-.154.114-.12c.044-.089-.004-.158 0-.258l.016-.223-.001-.035.001-.171c.031-.075.073-.116.146-.138l.163.018.196.016.13-.051-.016-.12-.147-.154-.114-.137-.131-.035c-.066-.062.022-.146.017-.24l-.017-.121-.114-.154-.098-.068-.016-.189-.049-.189c.004-.086.021-.146.082-.206l.13-.068.016-.034h.001l-.016.035.163-.069.065-.103-.146-.138.081-.103.212-.035c.058-.036.122-.066.114-.137l-.082-.103-.147-.137-.179-.016-.049-.103-.114-.035-.065-.051-.049-.223-.097-.035-.082-.138-.043-.016zm-7.392.091h.001-.001zm9.515.119l-.076.012-.114.051c-.011.058.074.075.131.069.058-.01.139-.047.114-.103l-.055-.03zm-.367.211l-.148.043-.065.035c-.02.043.039.069.082.087l.13-.017.049-.103-.047-.043zm-10.962.17l-.037.01-.033.12.016.206.098.206.163.189.114.206.147.087.13.034.114.121.082.154.081.051.082.138v.206c.013.071.014.124.066.172l.13.051.147.017.114.138c.063.106.046.189.081.309l.082.258c.019.087-.045.189.033.223h.098l.098.069.13.206.114.086.033.172.065.172.066.172.065.172.082.154.114.155.066.154.098.223.179.189.065.086.082.172.196.086.163.12.147.189c.071.08.151.09.195.189l.033.12c.039.075.082.138.163.138l.131-.069.146-.035.196.103c.071-.032.064-.11.082-.189v-.24l-.016-.344v-.223c.026-.093.075-.13.131-.206l.081-.103c.016-.08-.066-.108-.114-.171l-.114-.137-.114-.172h-.196l-.048-.12-.131-.154-.065-.12-.016-.223-.066-.12-.228-.016c-.055-.058-.033-.124-.033-.206l.033-.206.065-.103c.013-.077-.039-.125-.098-.171l-.179-.051h-.114v-.138c-.005-.088.019-.154-.033-.223-.048-.063-.104-.069-.179-.086h-.179l-.033-.086-.016-.189-.098-.051-.098.086-.097-.086-.114-.137-.179-.034-.163-.121-.164-.24-.049-.086-.163-.103-.049-.155-.196-.051-.098-.12-.146-.12-.033-.189-.114-.086-.098-.172c-.091-.075-.179-.011-.293-.017-.121-.01-.198.032-.309-.016l-.18-.138-.109-.078zm7.842.645h-.001zm5.465.01l-.081.078c-.025.063.02.178.081.155l.049-.12-.016-.103-.032-.01zm.749.972l-.082.069v.12l.017.085.065.12c.062.01.049-.091.065-.155l.016-.137c-.014-.05-.032-.103-.081-.103zm-.197.255l-.095.088-.081.12-.049.154-.032.138-.049.103.065.12.065.172.032.189-.098.154-.065.086-.049.103c.015.066.099-.01.162 0l.114.016.082.103c.045.023.092.035.131 0l.033-.103-.114-.103-.016-.172c-.001-.08-.044-.157.016-.206h.163c.064-.01.135.027.163-.035l-.017-.12-.049-.12.066-.103c.033-.087.01-.148 0-.241l-.017-.103-.098.017-.13.051c-.069-.024-.02-.119-.049-.189l-.065-.12h-.019zm-1.214.164l-.054.01-.098.086-.016.12-.163.069-.032.138c-.049.066-.117.046-.196.051l-.228-.035-.196.035-.163-.103-.228-.051-.212-.035c-.076-.01-.133-.064-.196-.017l-.065.12-.082.069-.163.069-.179.068c-.069.079-.01.168-.016.275l-.016.258-.033.223-.196.155-.033.206v.197l-.016.163-.098.138c-.05.103-.059.176-.049.292.006.076-.013.149.049.189l.196-.068c.073.023.098.081.131.154l.032.154-.016.275-.065.24c-.033.102-.138.158-.097.258.04.099.142.1.244.103.101 0 .189 0 .245-.086.049-.079-.009-.147 0-.241l.049-.257-.066-.206.033-.086.033-.223-.033-.138v-.154c.015-.073.018-.138.082-.172.056-.031.111-.023.163.017.082.062.003.167 0 .274-.004.101-.057.166-.017.258l.082.103.163.035.017.086-.082.121c-.026.083-.027.163.033.223.069.069.185.079.244 0l.032-.121.082-.068.195.016c.051-.037.07-.089.066-.154-.006-.077-.068-.096-.114-.155l-.097-.12v-.12l.081-.12-.097-.138-.131-.171-.147-.172-.016-.086.008-.043.074-.094.146-.051c.108-.051.164-.098.245-.189l.097-.138.212-.016.017-.121-.065-.12c-.075-.064-.149.011-.245.016-.089.01-.173-.056-.228.018l-.033.103c-.046.055-.11.01-.179.016-.064.01-.124-.021-.163.036v.154c-.047.088-.179.091-.245.016l-.016-.206-.147-.086c-.055-.068-.044-.134-.049-.223-.005-.101-.046-.199.033-.258l.163-.016.146.051.18.016c.128 0 .204.01.326-.035l.147-.068.131.068c.138.049.228-.01.375-.016.114-.01.193.042.293-.016l.131-.138.098-.223.097-.155.032-.154c-.021-.055-.071-.078-.125-.078zm-8.638.91l-.101.027-.049.102c.006.083.128.093.195.053l.066-.086c.01-.056-.049-.091-.111-.096zm10.983.384l-.069.038v.12c.042.057.097-.155.097-.155h-.028zm-3.146.223h-.035l-.082.069-.081.103.081.018.082.016.163-.034.082-.051c.017-.055-.064-.062-.114-.086l-.095-.038zm1.888.073l-.13.068-.033.121.016.103c.042.045.089-.034.147-.052l.114-.035.179.035-.033-.12-.098-.069-.163-.052zm-9.295.066l-.139.088c-.061.04-.117.05-.146.12l-.017.087v-.035l-.016.103.146.016.147.034.033.121.049.137.13.121c.048.05.05.159.114.138l.065-.103.033-.189.016-.086-.114-.103-.131-.102c-.013-.094.016-.161-.033-.24l-.114-.103h-.024zm7.907.015l-.029.021-.016.068-.033.103.114.086.13.017.147-.035.13-.069-.032-.103-.131-.068h-.163l-.118-.021zm2.489.06l-.09.012-.097.035v.12l.065.087c.08.067.187.091.261.017l.048-.086v-.137l-.097-.035-.089-.012zm-1.79.312c-.042.01-.09.055-.076.095.015.046.078.065.114.035.035-.029.035-.091 0-.12l-.038-.01zm-7.75.095l-.081.103c-.048.056-.126.061-.13.137l.049.12.049.086.195-.051.098-.085c.03-.059.039-.119 0-.172l-.114-.052-.065-.086zm8.812.191l-.063.014-.114.086c-.04.068-.008.126 0 .206l.016.103.147-.018.309.018c.096.01.16-.03.245.016l.097.086c.061.05.086.111.163.12.075.01.137 0 .18-.069.037-.056.027-.105.016-.172-.014-.082-.041-.13-.097-.189-.066-.067-.128-.067-.212-.103l-.179-.069-.163.035-.163-.035-.182-.032zm-.914.122l-.045.013c-.04.021-.106.046-.081.087l.016.016.049.189.098.069c.07.036.12.075.196.051l.097-.068.016-.12c-.004-.071-.011-.127-.065-.172l-.147-.035-.134-.03zm-1.381.713h-.032l-.098.12-.13.016-.147.103c-.043.056-.067.1-.065.172.002.084.052.12.098.189l.066.086.114.018.114-.052.032-.103-.016-.137.033-.086.032-.12.114-.035c.028-.046.005-.099-.033-.137l-.082-.037zm-1.201.739l-.07.055c-.039.045-.073.11-.032.154.035.038.089.031.13 0l.049-.103-.049-.103h-.028zm-6.086 0l-.109.034c-.077.057-.082.131-.114.224l-.033.12-.179.016.017.155.032.12c.051.051.11-.011.179-.017l.179-.035.049.103.049.12c.07.078.159-.012.26 0l.229.051.13.068h.244l.277.017h.228l.147.103.146.035.293.154h.213l.13-.017.179.035.195.017h.196l.146.069c.112.028.22.059.294-.035l.049-.137c.021-.079.056-.129.032-.207l-.065-.103c-.055-.049-.107-.045-.179-.051h-.098l-.195.051c-.073-.028-.09-.094-.114-.171l-.017-.138-.097-.069-.163-.016-.13-.035-.082-.12-.212.016-.016-.086-.114-.016-.114.189-.114.069c-.129.041-.196-.084-.326-.12l-.245-.052-.179.017-.081-.207c-.089-.101-.196-.066-.326-.085l-.179-.018-.212-.016-.2-.034zm2.93.388l-.09.058.016.12.082.103.163.035.146-.051.098-.086.049-.12-.114-.035-.212-.016-.138-.01zm5.728.447l-.132.039c-.098.016-.175 0-.244.069-.037.038-.094.075-.065.12l.066.035h.13l.131-.035c.064-.027.124-.035.147-.103v-.103l-.031-.023zm-3.749.246l-.13.069-.163.138-.163.103c-.054.042-.122.049-.131.12-.007.059.019.102.066.137.062.046.119 0 .196-.017l.244-.068.228-.035.212-.035.114-.103c.02-.069-.01-.129-.065-.172l-.114-.035-.163-.016-.13-.086zm-1.13.05l-.108.019h-.114l-.065.103.082.087.097.12.131-.086.114-.035c.044-.048.045-.124 0-.171l-.098-.035-.039-.001zm.458 0l-.077.019-.066.086-.081.155-.065.085-.017.103.114.016.163.018.065-.154.049-.137-.016-.154-.069-.035zm1.806.02l-.075.015-.147.103-.179.121-.098.103.065.103.179.035.147.016.163.035c.094 0 .141-.047.228-.086l.228-.12.196-.035c.082-.014.175.045.212-.034v-.12l-.017-.103-.146.016-.228.068c-.088.024-.145.091-.228.051l-.098-.103c-.069-.048-.131-.072-.202-.067zm1.22 0l-.04.01-.081.085-.016.069.081.051c.067.024.141.045.179-.016.032-.05.022-.109-.016-.154l-.106-.046zm1.394.056l-.196.024-.26.051c-.116.027-.192.021-.293.086l-.147.138-.098.137-.179.103-.196.138-.179.103c-.041.068-.023.125-.016.206l.033.154c.045.049.098.045.163.035l.147-.086.13-.154.228-.103.081-.137.163-.068.179-.138.212-.051.196-.137c.085-.049.216 0 .228-.103.01-.085-.059-.131-.13-.172l-.064-.024zm-3.27.481l-.038.023-.033.104c.002.062.035.098.082.137l.163.051.147.103.081.12c.054.024.103.01.146-.035l.05-.155-.033-.137-.163-.051-.081-.138h-.179l-.141-.023zm1.677.708h-.053l-.147.035c-.067.042-.137.094-.114.172.025.085.13.075.212.051.061-.018.101-.044.13-.103.023-.048.052-.099.016-.137l-.044-.02z" stroke="#000" stroke-width=".104" fill="none"/></g></svg>