<svg xmlns="http://www.w3.org/2000/svg" xmlns:xlink="http://www.w3.org/1999/xlink" width="50" height="50" viewBox="0 0 50 50" overflow="visible" enable-background="new 0 0 631.104 323.379"><defs><radialGradient xlink:href="#a" gradientUnits="userSpaceOnUse" gradientTransform="matrix(.71 0 0 .701 38.52 16.246)" spreadMethod="reflect" cx="121.106" cy="66.073" fx="121.106" fy="66.073" r="37.83"/><linearGradient id="a"><stop offset="0" stop-color="#0ff"/><stop offset="1" stop-color="#07f"/></linearGradient><radialGradient xlink:href="#b" gradientUnits="userSpaceOnUse" gradientTransform="matrix(.914 -.152 .159 .955 2.591 -.287)" spreadMethod="pad" cx="120.078" cy="76.821" fx="120.078" fy="76.821" r="37.83"/><linearGradient id="b"><stop offset="0" stop-color="#0ff" stop-opacity=".259"/><stop offset=".527" stop-color="#00efff" stop-opacity=".467"/><stop offset=".625" stop-color="#00d2ff" stop-opacity=".643"/><stop offset="1" stop-color="#00458a"/></linearGradient><radialGradient xlink:href="#c" gradientUnits="userSpaceOnUse" gradientTransform="matrix(1.304 1.116 -.917 .448 3.407 -100.267)" cx="112.212" cy="43.835" fx="112.212" fy="43.835" r="37.83"/><linearGradient id="c"><stop offset="0" stop-color="#fff"/><stop offset="1" stop-color="#fff" stop-opacity="0"/></linearGradient><radialGradient r="37.83" fy="43.835" fx="112.212" cy="43.835" cx="112.212" gradientTransform="matrix(1.304 1.116 -.917 .448 3.407 -100.267)" gradientUnits="userSpaceOnUse" xlink:href="#c"/><radialGradient xlink:href="#a" gradientUnits="userSpaceOnUse" gradientTransform="matrix(.71 0 0 .701 38.52 16.246)" spreadMethod="reflect" cx="121.106" cy="66.073" fx="121.106" fy="66.073" r="37.83"/><radialGradient xlink:href="#b" gradientUnits="userSpaceOnUse" gradientTransform="matrix(.914 -.152 .159 .955 2.591 -.287)" spreadMethod="pad" cx="120.078" cy="76.821" fx="120.078" fy="76.821" r="37.83"/><radialGradient xlink:href="#c" gradientUnits="userSpaceOnUse" gradientTransform="matrix(1.304 1.116 -.917 .448 3.407 -100.267)" cx="112.212" cy="43.835" fx="112.212" fy="43.835" r="37.83"/><radialGradient xlink:href="#a" gradientUnits="userSpaceOnUse" gradientTransform="matrix(.71 0 0 .701 38.52 16.246)" spreadMethod="reflect" cx="121.106" cy="66.073" fx="121.106" fy="66.073" r="37.83"/><radialGradient xlink:href="#b" gradientUnits="userSpaceOnUse" gradientTransform="matrix(.914 -.152 .159 .955 2.591 -.287)" spreadMethod="pad" cx="120.078" cy="76.821" fx="120.078" fy="76.821" r="37.83"/><radialGradient xlink:href="#c" gradientUnits="userSpaceOnUse" gradientTransform="matrix(1.304 1.116 -.917 .448 3.407 -100.267)" cx="112.212" cy="43.835" fx="112.212" fy="43.835" r="37.83"/><radialGradient xlink:href="#a" gradientUnits="userSpaceOnUse" gradientTransform="matrix(.71 0 0 .701 38.52 16.246)" spreadMethod="reflect" cx="121.106" cy="66.073" fx="121.106" fy="66.073" r="37.83"/><radialGradient xlink:href="#b" gradientUnits="userSpaceOnUse" gradientTransform="matrix(.914 -.152 .159 .955 2.591 -.287)" spreadMethod="pad" cx="120.078" cy="76.821" fx="120.078" fy="76.821" r="37.83"/><radialGradient xlink:href="#c" gradientUnits="userSpaceOnUse" gradientTransform="matrix(1.304 1.116 -.917 .448 3.407 -100.267)" cx="112.212" cy="43.835" fx="112.212" fy="43.835" r="37.83"/><radialGradient xlink:href="#a" gradientUnits="userSpaceOnUse" gradientTransform="matrix(.71 0 0 .701 38.52 16.246)" spreadMethod="reflect" cx="121.106" cy="66.073" fx="121.106" fy="66.073" r="37.83"/><radialGradient xlink:href="#b" gradientUnits="userSpaceOnUse" gradientTransform="matrix(.914 -.152 .159 .955 2.591 -.287)" spreadMethod="pad" cx="120.078" cy="76.821" fx="120.078" fy="76.821" r="37.83"/><radialGradient xlink:href="#c" gradientUnits="userSpaceOnUse" gradientTransform="matrix(1.304 1.116 -.917 .448 3.407 -100.267)" cx="112.212" cy="43.835" fx="112.212" fy="43.835" r="37.83"/><radialGradient xlink:href="#a" gradientUnits="userSpaceOnUse" gradientTransform="matrix(.71 0 0 .701 38.52 16.246)" spreadMethod="reflect" cx="121.106" cy="66.073" fx="121.106" fy="66.073" r="37.83"/><radialGradient xlink:href="#b" gradientUnits="userSpaceOnUse" gradientTransform="matrix(.914 -.152 .159 .955 2.591 -.287)" spreadMethod="pad" cx="120.078" cy="76.821" fx="120.078" fy="76.821" r="37.83"/><radialGradient xlink:href="#c" gradientUnits="userSpaceOnUse" gradientTransform="matrix(1.304 1.116 -.917 .448 3.407 -100.267)" cx="112.212" cy="43.835" fx="112.212" fy="43.835" r="37.83"/><radialGradient xlink:href="#a" gradientUnits="userSpaceOnUse" gradientTransform="matrix(.71 0 0 .701 38.52 16.246)" spreadMethod="reflect" cx="121.106" cy="66.073" fx="121.106" fy="66.073" r="37.83"/><radialGradient xlink:href="#b" gradientUnits="userSpaceOnUse" gradientTransform="matrix(.914 -.152 .159 .955 2.591 -.287)" spreadMethod="pad" cx="120.078" cy="76.821" fx="120.078" fy="76.821" r="37.83"/><radialGradient xlink:href="#c" gradientUnits="userSpaceOnUse" gradientTransform="matrix(1.304 1.116 -.917 .448 3.407 -100.267)" cx="112.212" cy="43.835" fx="112.212" fy="43.835" r="37.83"/></defs><g stroke="#000" stroke-width=".252" fill="none"><path d="M37.889 20.932c.123-.047.157-.249.055-.333-.083-.07-.209-.058-.277.027-.092.115.085.358.222.306"/><path d="M39.749 24.485c.084.023.159.032.223-.028.049-.047.074-.101.054-.166-.019-.067-.07-.096-.138-.111-.094-.021-.161.035-.223.111l-.055.111c.01.062.078.066.139.083"/><path d="M37.778 22.597l.056.249.194.195.25.25.111.194.305.195.111.222c.042.077.038.146.111.195.1.065.186-.028.306-.028.119 0 .212.102.306.028.056-.045.073-.094.083-.167.013-.088-.017-.141-.055-.222-.056-.118-.122-.167-.223-.25-.079-.064-.124-.107-.222-.139-.123-.04-.237.088-.333 0-.096-.088.002-.206-.028-.333-.049-.202-.061-.387-.25-.473l-.278-.028c-.111-.05-.16-.116-.223-.222-.067-.115.009-.235-.082-.333-.08-.085-.168-.149-.279-.111-.072.026-.108.068-.138.139-.048.114.036.191.082.305l.194.334"/><path d="M.248 33.895l.028.278c.077.113.199.085.334.111.202.04.322.012.528 0l.471-.056c.185-.027.309.009.472-.083l.222-.194c.099-.061.167-.075.278-.111.127-.042.216-.016.333-.083l.167-.139c.089-.052.148-.068.249-.083h.222l.416-.111c.195-.023.305.022.5.027h.8600000000000001c.206 0 .339.083.527 0 .113-.05.154-.117.25-.194l.388-.334c.109-.096.148-.183.278-.249l.388-.084.167-.166.305-.084.305-.194c.133-.051.219-.049.361-.056.151-.007.245-.019.388.028l.222.111c.137.035.222-.004.362-.027.212-.036.332-.076.527-.167l.268-.16.064-.035c.148-.074.23-.123.388-.167.138-.038.219-.049.361-.056l.388.028c.174.001.273-.002.444-.028.143-.022.223-.125.361-.083.132.04.187.128.25.249l.023.091.032.077c.073.084.168.044.278.056h.278l.194.056c.18.042.351-.086.473.055l.083.25c.056.092.188.087.194.194l-.111.195c-.014.101.055.151.083.249l.056.222v.222l.055.166v.25l-.084.278c.011.096.017.2.112.222.105.026.115-.121.194-.194l.222-.195.194-.111.028-.25.166-.111.278-.111.25-.111c.1-.049.18-.052.25-.139l.083-.222c.075-.094.16-.114.278-.139.094-.02.197-.082.249 0 .059.092-.143.116-.166.222v.139c-.021.149-.073.246-.195.334l-.193.083c-.082.045-.142.061-.195.139l-.055.222-.139.139c-.094.102-.1.212-.221.278-.088.047-.189-.024-.25.056-.047.061-.07.13-.028.194.049.073.135.026.223.028.109.003.179.019.277-.028.096-.046.134-.106.195-.194l.111-.25c.068-.077.127-.173.222-.139.074.026.094.091.112.167.03.123-.055.192-.112.305l-.138.222-.096.073c-.077.042-.154.071-.126.149l.334-.028c.055.057.039.118.055.195.032.148.067.242.027.388-.028.107-.074.158-.138.249l-.167.194c-.028.094.001.156.028.25l.277.388.057.306c.062.106.142.134.249.195.111.061.179.098.305.111l.333-.055c.115.026.155.097.25.167.112.081.151.166.278.222.12.053.206.092.332.055.126-.036.149-.14.25-.222.085-.068.122-.125.223-.167l.36-.027.195-.166c.111-.079.181-.223.306-.166.129.058.036.219.055.36l.028.222c.043.098.103.139.194.195.106.064.184.098.306.083.162-.02.195-.165.333-.249l.334-.167c.116-.049.212-.026.305-.111l.139-.278c.121-.121.249-.105.417-.139.201-.04.321-.043.527-.027.176.013.268.094.445.083.133-.008.222-.007.333-.083.109-.075.124-.167.194-.278.169-.265.141-.496.362-.722l.389-.278.221-.361c.121-.139.24-.167.37-.288l.018-.017.278-.333.388-.473.417-.527c.146-.168.214-.28.389-.417l.36-.222.306-.278.333-.278.222-.194.143-.16.218-.285.416-.5c.118-.141.205-.206.306-.36.111-.171.143-.285.222-.473.071-.17.057-.294.166-.444l.278-.249c.12-.158.139-.281.194-.472.052-.18.077-.285.084-.472.007-.197-.083-.306-.056-.5.022-.16.095-.233.139-.389.044-.16.067-.251.083-.417.024-.237-.012-.372-.027-.61-.016-.244.034-.4-.05-.625l-.006-.014-.139-.25c-.095-.15-.164-.225-.278-.361-.143-.17-.329-.202-.388-.416-.051-.179.049-.287.055-.473.007-.195.119-.371-.028-.499-.085-.075-.169-.052-.277-.083-.118-.035-.208-.009-.305-.084-.108-.082-.122-.177-.167-.305-.058-.165-.023-.273-.056-.445l-.082-.333c-.047-.155-.118-.229-.139-.389-.015-.107.059-.187 0-.277-.059-.089-.158-.057-.25-.112-.106-.062-.171-.1-.249-.195l-.14-.249-.277-.083c-.121-.068-.157-.149-.249-.249l-.195-.222c-.134-.235-.051-.424-.028-.694l.009-.063c.038-.193.16-.318.102-.52l-.111-.221c-.059-.176-.018-.288-.028-.473l-.027-.722c-.016-.238.087-.419-.056-.61l-.249-.195-.031-.156-.053-.121c-.111-.076-.207.039-.333.083l-.073.038c-.078.055-.134.129-.232.101-.059-.017-.085-.054-.095-.101-.02-.099.035-.247.04-.372l.11-.527c.01-.229-.061-.354-.083-.583-.018-.183.03-.297-.027-.472l-.195-.334c-.071-.194.1-.391-.055-.527-.109-.095-.225-.133-.361-.083-.139.051-.167.169-.223.306l-.055.333-.222.5c-.053.18-.061.286-.084.472-.024.205.029.33-.027.527-.046.163-.215.221-.195.388l.084.195-.031.177-.136.24-.139.388c-.087.267-.129.421-.194.694l-.083.388c-.06.232-.053.39-.194.583-.109.149-.202.213-.361.306-.168.098-.277.16-.473.167-.178.007-.295-.013-.444-.111-.148-.097-.143-.245-.278-.361l-.388-.222c-.194-.138-.275-.25-.445-.416l-.221-.222-.222-.111c-.142-.073-.252-.077-.361-.194-.112-.121-.035-.29-.167-.388l-.249-.083c-.101-.082-.164-.177-.139-.305.019-.092.081-.122.139-.195l.143-.156.079-.094c.06-.082.129-.12.139-.221l-.112-.25c-.009-.099-.002-.169.056-.25.064-.091.146-.101.249-.139.144-.053.308.074.389-.056.062-.102-.053-.188-.028-.305.031-.139.218-.166.195-.306-.015-.092-.068-.134-.139-.195-.08-.069-.143-.1-.249-.111-.123-.012-.202.151-.306.082l-.083-.249c-.077-.042-.142-.007-.223.028l-.222.249c-.132.052-.223-.019-.361-.056-.146-.038-.222-.08-.361-.139l-.305-.139-.389-.082-.277-.223-.25-.111c-.137-.033-.267-.104-.362 0-.059.066-.084.137-.056.222.028.08.092.099.167.139l.166.055c.095.094.008.236-.084.334l-.221.111c-.08.048-.101.131-.195.139l-.249-.195c-.138-.006-.155.156-.278.222l-.333.111-.194.083c-.077.108-.159.151-.195.278-.038.135.11.245.028.361-.073.104-.209.029-.305.111l-.166.334c-.072.072-.179.046-.222.139l-.01.121.037.129c.036.161.255.249.167.388-.063.099-.162.098-.278.111l-.472-.166c-.129.016-.197.212-.305.139l-.083-.194-.167-.25-.066-.156c-.027-.084-.049-.162-.129-.232-.09-.08-.167-.091-.278-.139-.115-.05-.181-.141-.304-.111-.127.031-.141.149-.223.25l-.167.222-.013.01-.459.101c-.118.087-.143.181-.222.306-.085.134-.066.266-.194.36l-.361.083c-.16.102-.202.233-.25.416l-.027.249c-.06.118-.155.148-.278.195-.143.054-.332-.113-.388.028-.044.108.067.169.111.277 0 0-.165.505-.361.416-.124-.056-.128-.176-.167-.305-.04-.135.108-.32-.028-.361-.112-.034-.172.079-.249.167-.087.098-.074.192-.139.305-.081.141-.2.179-.249.334l-.028.139-.014.187c0 .108.002.205-.068.313-.071.109-.151.136-.249.221-.129.111-.223.149-.334.278-.092.108-.129.181-.194.306l-.111.249c-.07.12-.111.195-.222.278l-.222.111-.305.112c-.221.054-.355.024-.583.027-.141.003-.241-.073-.36 0l-.167.249c-.108.052-.187-.035-.306-.027-.133.009-.221.009-.334.083l-.193.25c-.097.05-.169.025-.278.028-.152.005-.24-.058-.389-.028l-.305.139c-.127.045-.219.014-.333.083l-.195.194-.195.167-.249.139-.25.111-.193.139-.168.222c-.069.081-.091.225-.194.195l-.112-.139c-.082-.017-.122.066-.166.139-.074.12 0 .22 0 .361v.167c-.017.139-.078.206-.139.333l-.166.305c-.063.11-.13.158-.167.278-.043.145-.032.241 0 .389l.046.125.066.153.055.334c.017.183.057.297 0 .472-.035.106-.028.252-.139.249-.117-.002-.069-.168-.112-.277-.045-.118.014-.325-.111-.306-.076.012-.109.068-.139.14-.038.09.026.151.027.249.002.109.068.225-.027.278l-.25-.166c-.113.044-.077.186-.056.305.027.145.151.177.222.305l.111.249c.042.146.035.237.028.388l-.055.361c.021.207.181.275.249.472.05.146.106.235.083.388-.026.194-.207.235-.277.417-.09.233-.062.388-.055.639.006.24.061.371.084.611.019.208.049.332.028.534l-.002.021c-.02.177-.04.28-.111.444-.072.166-.159.233-.25.389-.106.179-.08.35-.249.472l-.306.111c-.092.046-.167.053-.223.139-.069.11-.078.229 0 .333l.221.111"/><path d="M15.182 15.186l.056.111c.019.067.05.107.112.139.097.052.173-.019.278-.056.129-.045.202-.078.306-.167.075-.065.161-.094.166-.194.004-.087-.039-.146-.111-.195-.1-.066-.186.022-.306.028h-.333c-.109-.006-.19-.092-.278-.028-.089.065-.118.187-.055.278l.166.083"/><path d="M14.127 35.228c.119.013.187.043.305.027l.195-.055c.106-.022.212.06.277-.027.039-.054.054-.106.028-.167-.04-.092-.151-.043-.25-.056h-.305c-.143.015-.252-.012-.361.084-.059.052-.137.092-.111.166.028.082.134.018.221.028"/><path d="M17.264 38.586l.112-.111c.061-.07.179-.111.139-.195-.034-.071-.116-.065-.194-.055-.092.012-.118.085-.195.139-.075.054-.177.047-.194.139-.025.132.214.146.333.083"/><path d="M19.956 38.725c.09-.043.133-.101.167-.195.033-.092.05-.167 0-.25-.042-.066-.089-.105-.167-.111-.114-.009-.158.098-.222.195-.05.078-.082.129-.083.221l.028.139c.064.088.179.047.277 0"/><path d="M16.626 41.417c.073.108.205.05.333.028.172-.03.228-.155.388-.223l.36-.111.417-.195c.16-.063.284-.03.416-.138l.223-.417.361-.167c.117-.125.078-.256.139-.416.05-.132.057-.219.139-.334.083-.119.322-.111.278-.25-.045-.136-.222-.084-.361-.055l-.195.083c-.157.043-.271-.072-.417 0l-.167.139c-.116.072-.203.155-.333.111l-.194-.278-.278-.027c-.125-.027-.19-.162-.306-.111-.085.037-.088.115-.138.194l-.139.249c-.074.147-.145.226-.166.388l.028.333-.278.278c-.046.122-.009.203 0 .333l.027.25c-.013.14-.217.217-.138.333"/><path d="M15.849 6.025c.099.045.17-.014.278-.028l.195-.028c.082-.026.164-.029.194-.111.026-.074.008-.147-.056-.194l-.138-.027-.222-.084c-.075-.018-.125-.059-.195-.027-.071.031-.073.098-.111.166-.04.072-.101.114-.082.195.016.075.068.107.138.139"/><path d="M19.513 6.414l.139.222.139.027c.075.009.136.049.195 0 .058-.05.041-.119.028-.194-.02-.107-.079-.159-.166-.222l-.195-.083c-.074-.015-.129-.041-.194 0-.053.034-.092.076-.083.139l.139.111"/><path d="M21.595 11.689c-.093-.056-.177-.015-.278.027-.106.045-.143.11-.222.195l-.166.222c-.088.118-.23.159-.222.306l.027.111c.061.09.176.036.278 0l.167-.111c.129-.06.254.038.361-.055.066-.058.079-.114.112-.195.041-.102.073-.168.056-.278-.016-.096-.029-.172-.112-.221"/><path d="M17.183 5.86c-.092.017-.116.089-.194.14l-.279.166c-.133.055-.263-.024-.36.083l-.084.25-.111.167c-.024.097-.023.188.056.25.086.067.17-.042.278-.027.116.015.209.016.277.111l.028.277c.043.073.095.094.167.139.107.067.18.083.304.11.212.047.339 0 .556 0 .098 0 .183-.071.25 0 .052.056.056.124.028.195-.058.143-.241-.125-.391-.085l-.222.14-.278-.028c-.12-.001-.238-.071-.305.028-.061.091-.005.186.056.277.075.113.198.082.304.166.073.057.126.085.167.167.069.136-.053.238-.027.388l.056.195c.105.138.306.105.445 0l.139-.222c.064-.052.115-.107.194-.083l.112.194c.093.077.193.011.305.056.081.032.137.046.194.112l.083.249c.081.075.171.03.277.056l.667.222.389.083c.183.036.319-.025.471.084l.195.25c.132.141.303.132.388.305l.056.333.194.333c.06.116.105.179.14.305.042.157.015.254.027.416l.027.333c.008.162-.136.328 0 .417.111.072.202-.045.334-.056.141-.012.228-.047.361 0 .151.054.215.145.304.279.084.124.117.21.139.358v.25c.085.176.305.017.5.027l.472.028.305.027c.132-.005.219.012.333-.056.1-.058.129-.127.195-.221.049-.072.1-.109.112-.196l-.084-.249.194-.056.139-.084.083-.249.167-.028.249-.139.195-.056.194.056.223.056.304.111.279.027c.087.035.158.053.193.139l-.027.221c.019.155.086.257.222.333l.222.056.027.361c.066.089.159.075.25.139l.166.139.083.278c.118.127.275-.011.445.027l.25.083.222.112.221-.028c.101.019.135.084.222.139.119.075.171.153.305.194.094.028.157.061.25.027.087-.032.145-.077.166-.166.034-.135-.104-.203-.221-.278l-.249-.083c-.061-.077-.015-.153-.028-.25l-.027-.195-.278-.083-.111-.195-.139-.166h-.305c-.067-.072-.004-.154-.027-.25-.051-.207-.12-.328-.278-.472l-.249-.167-.139-.222c-.063-.115-.113-.177-.139-.305-.024-.117-.056-.2 0-.304l.221-.167c.068-.112.076-.213.028-.333-.049-.121-.138-.155-.25-.221l-.111-.056-.222-.111c-.132-.071-.246-.073-.333-.195l-.084-.194c-.06-.149-.059-.249-.139-.388-.075-.134-.136-.202-.25-.306-.097-.089-.155-.145-.277-.194l-.278-.056c-.139-.066-.159-.169-.278-.278-.13-.151-.183-.257-.333-.388-.082-.072-.12-.13-.221-.167-.143-.052-.236.029-.389.028-.207-.001-.334.019-.528-.056l-.249-.139-.473-.222-.277-.11-.001-.001c-.097-.087-.135-.16-.249-.221-.146-.079-.253-.059-.417-.084l-.221-.027c-.189-.033-.311-.035-.472-.139l-.139-.111-.25-.084-.249-.166c-.113-.04-.188-.046-.306-.028-.115.017-.193.03-.277.111l-.112.362c-.068.068-.13.079-.221.111l-.305.056-.25.278-.166.055v.278l-.139.111c-.155.079-.289.051-.444-.027-.123-.062-.171-.135-.25-.249-.074-.108-.094-.183-.139-.306l-.082-.305-.056-.472-.083-.333c-.043-.134-.032-.242-.139-.333-.109-.094-.23-.024-.361-.083l-.25-.166-.306-.028c-.114-.027-.163-.133-.277-.112z"/><path d="M49.381 19.738c.136-.129.247-.382.082-.472l-.166-.027c-.1-.002-.169-.002-.25.056-.107.075-.136.174-.138.305-.003.089-.004.155.056.221.11.124.296.031.416-.083"/><path d="M47.91 20.821c.094.119.238.048.389.028.136-.019.209-.053.333-.111.114-.054.211-.06.278-.167.086-.138.045-.271-.028-.416-.045-.089-.08-.144-.167-.194-.113-.066-.211-.075-.333-.028-.094.036-.119.102-.195.167-.129.11-.274.119-.332.278-.042.111-.031.191 0 .305l.055.139"/><path d="M48.355 21.181c-.122.047-.314.108-.25.222.048.087.151.068.25.056.081-.01.143-.019.193-.083.054-.069.089-.161.028-.222-.062-.062-.141-.004-.222.027"/><path d="M27.757 7.58c.147.01.239-.028.361-.112.076-.051.149-.076.167-.166.025-.128-.106-.191-.222-.249-.126-.065-.231-.081-.361-.028-.114.046-.188.105-.222.222-.028.094-.033.172.027.249.064.081.148.076.25.083"/><path d="M30.144 7.913c.076.004.141.027.194-.028.061-.062.044-.146 0-.221-.047-.085-.125-.106-.221-.111-.078-.004-.141-.002-.195.056-.059.064-.069.145-.027.222.049.09.147.078.25.083"/><path d="M30.755 8.274c.069.094.182.043.277.111.119.087.084.256.222.305.081.029.148.046.222 0 .11-.069.087-.217.027-.333-.049-.096-.138-.099-.222-.167-.101-.082-.132-.165-.249-.222-.118-.057-.272-.172-.333-.056v.167c.01.078.009.132.056.194"/><path d="M27.702 10.134c.053.118.291.122.333 0 .026-.075.001-.14-.056-.194-.049-.048-.1-.071-.167-.056-.103.024-.155.153-.111.25"/><path d="M28.229 10.439c.048.027.098.009.139-.028.048-.044.069-.115.028-.167-.048-.06-.154-.037-.194.028-.035.056-.029.134.028.166"/><path d="M30.311 13.048l.139-.028c.043-.047.019-.105 0-.167-.035-.11-.119-.244-.222-.194-.075.035-.092.112-.084.194.009.099.068.178.167.195"/><path d="M30.311 13.659c.033-.096-.049-.174-.139-.222l-.166-.027-.139-.056c-.091.017-.092.129-.084.221l.056.139c.072.083.169.078.278.056.085-.018.166-.029.194-.111"/><path d="M30.422 14.131c.096-.027.197-.099.167-.195-.028-.088-.13-.087-.223-.083-.068.002-.127 0-.166.056-.037.054-.033.111 0 .167.046.077.136.08.222.056"/><path d="M31.643 13.298l.112-.028c.057-.049.042-.13 0-.194-.059-.091-.192-.094-.277-.027-.079.061-.125.177-.056.249.06.062.136.014.221 0"/><path d="M31.671 9.8c.058-.113.109-.179.111-.305.002-.113.004-.205-.084-.278l-.221-.056c-.138-.046-.195-.208-.334-.167-.08.024-.131.062-.167.139-.05.113.087.182.084.305-.003.089.011.164-.056.223l-.222.027c-.112.053-.101.169-.194.25-.078.067-.124.111-.223.139-.094.026-.157.032-.249 0l-.166-.111c-.111-.016-.143.108-.25.139-.136.04-.221.012-.362 0l-.332-.056c-.089.007-.159-.008-.222.056-.063.063-.069.134-.056.222.017.107.08.157.166.222.141.106.278.026.444.083l.251.111c.136.043.218.059.361.056.202-.005.311-.066.5-.139l.305-.139.277-.222.278-.083.167-.139c.092-.094.133-.159.194-.277"/><path d="M32.032 8.773s-.129.228-.139.388c-.01.155-.059.326.083.389.101.044.192.014.278-.056.135-.111.091-.283.027-.445-.052-.135-.12-.21-.249-.277"/><path d="M30.505 14.742c-.104.024-.223.091-.194.194.028.107.171.083.278.056.089-.023.187-.046.194-.139.01-.116-.164-.138-.278-.111"/><path d="M31.116 14.436c-.094-.004-.178.047-.195.139-.015.086.042.142.112.195l.139.056c.06-.011.087-.054.111-.111.048-.118-.04-.273-.166-.278"/><path d="M31.837 15.047c-.109-.002-.218-.064-.278.028v.194l-.111.028c.108.065.152.179.278.167.087-.009.132-.051.194-.111.087-.084.219-.186.14-.278-.058-.066-.135-.025-.223-.028"/><path d="M34.031 10.716l-.194-.166-.083-.25c-.071-.087-.152-.087-.25-.139-.086-.045-.141-.162-.222-.111-.083.051.039.16 0 .25l-.167.166v.167l.194.139c.064.073.084.129.112.222l.028.278c.08.128.211.143.361.139.141-.004.249-.026.334-.139.091-.122.09-.25.027-.389l-.139-.167"/><path d="M35.307 11.577l-.249-.056-.111-.222c-.054-.075-.079-.139-.167-.167-.095-.03-.193-.026-.249.055-.057.08-.019.164.028.25l.139.139.028.222c.059.112.155.139.278.167.162.036.358.072.416-.084.045-.118-.01-.228-.111-.305"/><path d="M35.224 12.383c-.077-.047-.143-.099-.222-.056-.088.047-.025.155-.056.249-.033.101-.152.151-.111.249.037.09.127.129.222.112.098-.019.095-.125.166-.195.06-.059.146-.056.167-.139.026-.105-.074-.165-.166-.221"/><path d="M36.695 12.715c.061-.056.097-.113.084-.194-.016-.099-.121-.1-.194-.167l-.25-.25-.249-.194c-.102-.065-.162-.172-.277-.139-.136.038-.154.193-.139.333.022.198.239.202.388.334.098.086.133.165.25.222.137.067.275.158.388.055"/><path d="M37.751 13.437c.034-.127-.09-.184-.139-.305-.047-.118-.002-.241-.111-.306-.067-.039-.125-.058-.195-.027-.103.045-.081.164-.083.278-.002.137.029.224.111.334.08.105.153.237.278.194.08-.028.117-.085.139-.167"/><path d="M36.945 13.493l-.25-.083c-.106-.051-.184-.264-.249-.167v.167l-.056.222c.024.152.16.199.305.249.165.058.299.066.445-.027.064-.041.118-.065.138-.139.021-.076-.001-.138-.056-.195-.075-.078-.171-.005-.277-.027"/><path d="M36.639 15.436l-.009-.033-.046.005.055.027"/><path d="M36.807 15.213c-.07-.084-.245-.076-.278.027-.016.051.059.12.101.162l.203-.023-.027-.167"/><path d="M38.195 14.409l-.222-.084c-.1-.056-.129-.262-.221-.194-.057.04-.046.099-.057.167-.017.12-.002.199.057.305l.083.111c.075.044.136-.015.221-.028.12-.018.219.029.305-.056.067-.064.134-.144.084-.221-.052-.082-.153.018-.249 0"/><path d="M36.612 16.046l-.139-.083c-.06.026-.04.102-.027.167.017.099.066.194.165.195.085 0 .129-.064.167-.139.03-.059.069-.115.028-.166l-.195.027"/><path d="M41.165 18.572c.088-.092.111-.179.111-.305 0-.089.006-.158-.055-.222-.091-.094-.221-.065-.334 0-.109.063-.14.154-.167.277-.03.14-.06.278.056.362.127.092.28.002.388-.112"/><path d="M41.109 18.822c-.103.042-.196.154-.139.249.064.106.214-.001.305-.083l.083-.111c.007-.099-.157-.092-.25-.055"/><path d="M41.165 19.377c-.021.128.261.108.334 0 .047-.073.083-.201 0-.222l-.139.084c-.079.05-.18.047-.195.139"/><path d="M41.304 36.421l-.195.139c-.11.056-.184.062-.305.084-.117.021-.198.08-.305.027-.106-.052-.181-.134-.167-.249l.167-.194c.075-.156.125-.325 0-.444-.061-.057-.113-.088-.195-.083-.122.007-.129.141-.223.221-.092.082-.155.273-.249.195-.076-.062-.045-.163 0-.249l.166-.139c.061-.092.049-.167.056-.277l-.028-.306.084-.222-.028-.167-.166-.139c-.077-.064-.099-.137-.195-.166-.093-.028-.162-.018-.249.028-.089.047-.114.11-.167.194-.061.099-.078.165-.111.278-.036.127-.108.213-.056.334l.388.167c-.024.105-.16.078-.223.166-.072.1-.066.183-.083.305v.362c-.005.141.027.23-.027.361-.042.1-.099.137-.167.222l-.333.388c-.098.118-.131.208-.25.305-.172.142-.335.109-.527.222-.114.067-.191.095-.279.194-.095.109-.208.194-.165.334.035.118.157.112.249.194.092.081.221.1.222.222 0 .087-.066.119-.111.194l-.14.222c-.094.104-.184.12-.305.195-.108.066-.228.05-.277.166-.049.111-.026.215.056.305.115.129.272.025.444 0 .155-.023.247-.041.388-.111.146-.072.212-.142.334-.25l.222-.222c.07-.082.069-.174.165-.222h.278c.114-.021.223-.009.279-.111v-.222c.031-.094.096-.122.166-.194l.25-.222c.094-.123.04-.27.167-.36.132-.094.253-.023.417-.028.173-.006.289.078.443 0l.167-.139.138-.305.279-.083.111-.25.194-.222.028-.222c.001-.098.041-.181-.028-.25-.085-.085-.195-.018-.305.027"/><path d="M28.368 44.443c.134.078.223-.096.361-.166.099-.051.23-.028.249-.139.013-.067-.009-.115-.055-.167-.086-.097-.228-.078-.333 0l-.111.195c-.07.075-.226.036-.223.139.004.069.052.104.112.138"/><path d="M36.834 39.142c-.105-.021-.146.087-.249.111-.117.026-.274.114-.306 0l.028-.139c.012-.096.078-.191 0-.249-.085-.064-.152.069-.25.111l-.278.111c-.108.073-.133.155-.222.25-.104.112-.158.181-.278.278l-.25.167c-.235.155-.416.183-.61.388-.101.107-.094.232-.222.306-.105.06-.188.024-.306.055-.123.033-.203.036-.306.111l-.194.25-.249.083-.167.111c-.122.07-.199.096-.334.138l-.388.083-.278.111-.361.25c-.106.06-.162.104-.278.139l-.416.028c-.211.051-.355.086-.499.249-.095.109-.04.26-.167.333l-.278.027c-.115.044-.146.127-.249.195-.218.144-.518.033-.611.278l-.027.222-.389.028-.084.195-.055.139c.024.064.1.041.167.055.127.027.221-.067.333 0l.111.111.112.139.111.194c.151.139.326.019.527-.028.147-.035.223-.078.362-.139l.388-.194.361-.222c.167-.089.294-.079.445-.195.133-.103.165-.206.277-.333.125-.144.181-.245.333-.361l.278-.167.167-.167c.164-.114.316-.032.499-.111.102-.044.166-.066.25-.139l.139-.167c.174-.129.344.047.555 0 .1-.022.17-.019.25-.083.101-.082.063-.198.138-.305.092-.132.164-.2.305-.278.148-.081.289-.002.418-.111l.138-.195c.091-.096.16-.132.278-.195l.277-.111c.106-.037.185-.018.278-.083l.167-.223.194-.111.221-.278.278-.111c.132-.131.183-.339.055-.472l-.141-.083"/></g></svg>