<?xml version="1.0" encoding="UTF-8" standalone="no"?>
<!-- Generated by IcoMoon.io -->

<svg
   xmlns:dc="http://purl.org/dc/elements/1.1/"
   xmlns:cc="http://creativecommons.org/ns#"
   xmlns:rdf="http://www.w3.org/1999/02/22-rdf-syntax-ns#"
   xmlns:svg="http://www.w3.org/2000/svg"
   xmlns="http://www.w3.org/2000/svg"
   xmlns:sodipodi="http://sodipodi.sourceforge.net/DTD/sodipodi-0.dtd"
   xmlns:inkscape="http://www.inkscape.org/namespaces/inkscape"
   version="1.1"
   width="20"
   height="16"
   viewBox="0 0 20 16"
   id="svg4708"
   inkscape:version="0.91 r13725"
   sodipodi:docname="tw.svg">
  <metadata
     id="metadata4716">
    <rdf:RDF>
      <cc:Work
         rdf:about="">
        <dc:format>image/svg+xml</dc:format>
        <dc:type
           rdf:resource="http://purl.org/dc/dcmitype/StillImage" />
        <dc:title></dc:title>
      </cc:Work>
    </rdf:RDF>
  </metadata>
  <defs
     id="defs4714" />
  <sodipodi:namedview
     pagecolor="#ffffff"
     bordercolor="#666666"
     borderopacity="1"
     objecttolerance="10"
     gridtolerance="10"
     guidetolerance="10"
     inkscape:pageopacity="0"
     inkscape:pageshadow="2"
     inkscape:window-width="1280"
     inkscape:window-height="973"
     id="namedview4712"
     showgrid="false"
     inkscape:zoom="20.85965"
     inkscape:cx="13.316372"
     inkscape:cy="16"
     inkscape:window-x="-4"
     inkscape:window-y="-4"
     inkscape:window-maximized="1"
     inkscape:current-layer="svg4708" />
  <path
     d="m 19.813761,1.8798473 c -0.7241,0.323534 -1.506129,0.539224 -2.322668,0.63536 0.835643,-0.501016 1.475316,-1.294138 1.779131,-2.23762497 -0.782029,0.462192 -1.648484,0.80113197 -2.56917,0.98231197 -0.739507,-0.78572697 -1.79084,-1.27503397 -2.954331,-1.27503397 -2.233927,0 -4.0444865,1.81055997 -4.0444865,4.04448697 0,0.315523 0.03451,0.623651 0.1041471,0.920686 C 6.4440922,4.7805633 3.4626468,3.1702863 1.4678268,0.72128633 1.1208748,1.3184383 0.92120791,2.0154233 0.92120791,2.7549303 c 0,1.401982 0.71239169,2.641889 1.79885069,3.366605 -0.6624751,-0.01911 -1.2861259,-0.20398 -1.83336101,-0.504713 0,0.01541 0,0.03451 0,0.04992 0,1.960309 1.39458691,3.597701 3.24705171,3.966838 -0.3389407,0.09244 -0.6969853,0.142355 -1.0667388,0.142355 -0.2619087,0 -0.5121085,-0.02711 -0.7623084,-0.07334 0.5164224,1.6059627 2.0108426,2.7768477 3.7782642,2.8119747 -1.3865755,1.085842 -3.1274981,1.733527 -5.0261821,1.733527 -0.32723183,0 -0.64706857,-0.01911 -0.96690532,-0.05793 1.79515302,1.151782 3.92061932,1.817954 6.20507942,1.817954 7.4412877,0 11.5122747,-6.1662537 11.5122747,-11.5122727 0,-0.176866 -0.0037,-0.35065 -0.01171,-0.523818 0.789423,-0.566339 1.475315,-1.27873 2.018237,-2.091572 z"
     id="path4710"
     inkscape:connector-curvature="0" />
</svg>
